<?xml version="1.0" standalone="no"?>
<!DOCTYPE svg PUBLIC "-//W3C//DTD SVG 20010904//EN"
 "http://www.w3.org/TR/2001/REC-SVG-20010904/DTD/svg10.dtd">
<svg version="1.0" xmlns="http://www.w3.org/2000/svg"
 width="672.000000pt" height="672.000000pt" viewBox="0 0 672.000000 672.000000"
 preserveAspectRatio="xMidYMid meet">
<metadata>
Created by potrace 1.11, written by Peter Selinger 2001-2013
</metadata>
<g transform="translate(0.000000,672.000000) scale(0.100000,-0.100000)"
fill="#000000" stroke="none">
<path d="M2462 5831 c-115 -119 -256 -263 -312 -321 -471 -486 -744 -763
-1397 -1418 l-752 -754 332 -328 c183 -181 429 -424 547 -540 118 -117 453
-447 743 -733 291 -287 646 -638 790 -779 l261 -257 201 0 c110 1 205 0 210
-1 6 -1 12 -2 15 -1 3 1 501 2 1108 2 l1103 0 659 659 658 660 -327 327 c-180
181 -477 477 -659 659 l-332 332 -659 -659 -659 -660 -204 201 c-941 929
-1120 1105 -1129 1108 -5 2 -9 8 -9 13 0 9 6 15 821 819 298 294 547 540 553
547 8 8 26 -5 71 -52 33 -34 124 -130 202 -211 224 -236 485 -511 610 -643 86
-92 255 -269 357 -376 80 -83 88 -89 100 -72 8 10 126 133 262 273 298 305
405 416 714 734 129 133 250 256 268 274 57 52 57 60 11 103 -54 50 -140 131
-490 463 -52 50 -268 254 -390 370 -26 25 -107 101 -180 170 -73 69 -158 149
-188 178 -65 63 -36 58 -401 67 -488 13 -536 14 -730 20 -369 10 -914 24
-1127 30 -90 2 -167 6 -172 10 -5 3 -12 1 -16 -5 -4 -6 -11 -8 -16 -4 -5 3
-61 7 -123 8 l-113 3 -211 -216z"/>
</g>
</svg>
