<svg width="49" height="47" viewBox="0 0 49 47" fill="none" xmlns="http://www.w3.org/2000/svg">
<path d="M43.3257 42.4306C42.8818 42.331 42.4412 42.6093 42.3415 43.0533C42.2468 43.4733 42.0631 43.8596 41.7954 44.1998C41.5146 44.5572 41.5755 45.0753 41.9338 45.3561C42.0854 45.4747 42.2641 45.5324 42.442 45.5324C42.6866 45.5324 42.9279 45.4245 43.0902 45.2178C43.5053 44.6906 43.8018 44.068 43.9484 43.4157C44.048 42.9709 43.7697 42.5303 43.3257 42.4306Z" fill="#FFB800"/>
<path d="M26.3515 23.0615C25.9949 23.0607 25.6481 22.9972 25.3203 22.872C24.8986 22.7114 24.4201 22.9231 24.257 23.3481C24.0956 23.7731 24.3089 24.2491 24.7331 24.4114C25.2487 24.6074 25.7915 24.7079 26.3499 24.7087H26.6439C27.0994 24.7087 27.4675 24.3406 27.4675 23.8851C27.4675 23.4296 27.0994 23.0615 26.6439 23.0615H26.3515Z" fill="#FFB800"/>
<path d="M24.3953 17.8529C24.5444 17.8529 24.6943 17.8125 24.8302 17.7285C25.1951 17.5012 25.5986 17.362 26.0278 17.3142C26.4799 17.264 26.8061 16.8571 26.7567 16.4049C26.7072 15.9528 26.3028 15.6299 25.8474 15.676C25.1704 15.751 24.5345 15.97 23.958 16.33C23.5717 16.5705 23.4548 17.0786 23.6953 17.4649C23.8517 17.7153 24.1202 17.8529 24.3953 17.8529Z" fill="#FFB800"/>
<path d="M14.8791 45.2991H13.2318C12.7764 45.2991 12.4082 45.6672 12.4082 46.1227C12.4082 46.5782 12.7764 46.9463 13.2318 46.9463H14.8791C15.3345 46.9463 15.7027 46.5782 15.7027 46.1227C15.7027 45.6672 15.3337 45.2991 14.8791 45.2991Z" fill="#FFB800"/>
<path d="M29.6451 30.4741C29.5742 30.4741 29.5042 30.4758 29.4342 30.4791C28.9796 30.4972 28.6271 30.881 28.6452 31.3356C28.6625 31.7787 29.0282 32.1255 29.4672 32.1255C29.4787 32.1255 29.4902 32.1255 29.5018 32.1247L31.1152 32.1214C31.5707 32.1214 31.9389 31.7532 31.9389 31.2977C31.9389 30.8423 31.5707 30.4741 31.1152 30.4741H29.6451Z" fill="#FFB800"/>
<path d="M29.2338 17.2959H30.881C31.3365 17.2959 31.7046 16.9278 31.7046 16.4723C31.7046 16.0168 31.3365 15.6487 30.881 15.6487H29.2338C28.7783 15.6487 28.4102 16.0168 28.4102 16.4723C28.4102 16.9278 28.7783 17.2959 29.2338 17.2959Z" fill="#FFB800"/>
<path d="M39.351 30.4741C38.8955 30.4741 38.5273 30.8423 38.5273 31.2977C38.5273 31.7532 38.8955 32.1214 39.351 32.1214H40.9982C41.4537 32.1214 41.8218 31.7532 41.8218 31.2977C41.8218 30.8423 41.4537 30.4741 40.9982 30.4741H39.351Z" fill="#FFB800"/>
<path d="M42.2945 23.8849C42.2945 23.4294 41.9263 23.0613 41.4709 23.0613H39.8236C39.3682 23.0613 39 23.4294 39 23.8849C39 24.3404 39.3682 24.7085 39.8236 24.7085H41.4709C41.9255 24.7085 42.2945 24.3404 42.2945 23.8849Z" fill="#FFB800"/>
<path d="M34.4115 32.1214H36.0588C36.5142 32.1214 36.8824 31.7532 36.8824 31.2977C36.8824 30.8423 36.5142 30.4741 36.0588 30.4741H34.4115C33.9561 30.4741 33.5879 30.8423 33.5879 31.2977C33.5879 31.7532 33.9569 32.1214 34.4115 32.1214Z" fill="#FFB800"/>
<path d="M35.8244 17.2959C36.2798 17.2959 36.648 16.9278 36.648 16.4723C36.648 16.0168 36.2798 15.6487 35.8244 15.6487H34.1771C33.7217 15.6487 33.3535 16.0168 33.3535 16.4723C33.3535 16.9278 33.7217 17.2959 34.1771 17.2959H35.8244Z" fill="#FFB800"/>
<path d="M29.9408 23.0613C29.4853 23.0613 29.1172 23.4294 29.1172 23.8849C29.1172 24.3404 29.4853 24.7085 29.9408 24.7085H31.5881C32.0435 24.7085 32.4117 24.3404 32.4117 23.8849C32.4117 23.4294 32.0435 23.0613 31.5881 23.0613H29.9408Z" fill="#FFB800"/>
<path d="M37.3511 23.8849C37.3511 23.4294 36.983 23.0613 36.5275 23.0613H34.8803C34.4248 23.0613 34.0566 23.4294 34.0566 23.8849C34.0566 24.3404 34.4248 24.7085 34.8803 24.7085H36.5275C36.9822 24.7085 37.3511 24.3404 37.3511 23.8849Z" fill="#FFB800"/>
<path d="M48.9455 26.8762C48.873 26.4265 48.4489 26.1193 48.0017 26.1934C47.552 26.2651 47.2464 26.6884 47.3189 27.1373C47.3419 27.2839 47.3551 27.433 47.3535 27.5919C47.3535 27.8687 47.3139 28.1421 47.2365 28.4057C47.1088 28.8422 47.3584 29.3001 47.7957 29.4278C47.8732 29.45 47.9506 29.4607 48.0272 29.4607C48.3838 29.4607 48.7124 29.2285 48.8179 28.8685C48.9389 28.4543 49.0007 28.0251 49.0007 27.5977C49.0024 27.3605 48.9842 27.1175 48.9455 26.8762Z" fill="#FFB800"/>
<path d="M34.6467 45.2991H32.9994C32.5439 45.2991 32.1758 45.6672 32.1758 46.1227C32.1758 46.5782 32.5439 46.9463 32.9994 46.9463H34.6467C35.1021 46.9463 35.4703 46.5782 35.4703 46.1227C35.4703 45.6672 35.1013 45.2991 34.6467 45.2991Z" fill="#FFB800"/>
<path d="M29.7033 45.2991H28.056C27.6006 45.2991 27.2324 45.6672 27.2324 46.1227C27.2324 46.5782 27.6006 46.9463 28.056 46.9463H29.7033C30.1588 46.9463 30.5269 46.5782 30.5269 46.1227C30.5269 45.6672 30.1579 45.2991 29.7033 45.2991Z" fill="#FFB800"/>
<path d="M38.7652 38.7101C38.7652 38.2546 38.397 37.8865 37.9416 37.8865H36.2943C35.8389 37.8865 35.4707 38.2546 35.4707 38.7101C35.4707 39.1656 35.8389 39.5337 36.2943 39.5337H37.9416C38.3962 39.5337 38.7652 39.1656 38.7652 38.7101Z" fill="#FFB800"/>
<path d="M33.8238 38.7101C33.8238 38.2546 33.4556 37.8865 33.0002 37.8865H31.3529C30.8975 37.8865 30.5293 38.2546 30.5293 38.7101C30.5293 39.1656 30.8975 39.5337 31.3529 39.5337H33.0002C33.4548 39.5337 33.8238 39.1656 33.8238 38.7101Z" fill="#FFB800"/>
<path d="M39.5304 45.2991H37.9408C37.4853 45.2991 37.1172 45.6672 37.1172 46.1227C37.1172 46.5782 37.4853 46.9463 37.9408 46.9463L39.5642 46.9455L39.5881 46.1219V46.9455C40.0435 46.9455 40.3829 46.5773 40.3829 46.1219C40.3829 45.6672 39.9859 45.2991 39.5304 45.2991Z" fill="#FFB800"/>
<path d="M42.4434 40.9498C42.6213 40.9498 42.8017 40.8921 42.9516 40.7735C43.3098 40.4918 43.3708 39.9738 43.0899 39.6171C42.6757 39.0908 42.1411 38.656 41.5424 38.3586C41.133 38.1552 40.6405 38.3224 40.4379 38.7293C40.2353 39.137 40.4016 39.6311 40.8085 39.8338C41.1898 40.0224 41.5308 40.2999 41.7944 40.636C41.9575 40.8419 42.1988 40.9498 42.4434 40.9498Z" fill="#FFB800"/>
<path d="M45.5849 30.2507C45.2316 30.399 44.8577 30.4739 44.4714 30.4739H44.2943C43.8389 30.4739 43.4707 30.8421 43.4707 31.2976C43.4707 31.753 43.8389 32.1212 44.2943 32.1212H44.4714C45.0776 32.1212 45.6665 32.0026 46.2216 31.7695C46.6417 31.5933 46.8385 31.1106 46.6622 30.6914C46.4868 30.2722 46.0009 30.0745 45.5849 30.2507Z" fill="#FFB800"/>
<path d="M23.0854 22.1182C23.517 21.9757 23.7525 21.5103 23.6109 21.0779C23.5162 20.7888 23.4676 20.4866 23.4676 20.1818C23.4684 20.0575 23.4758 19.9331 23.4906 19.812C23.5475 19.3607 23.2279 18.9481 22.7765 18.892C22.3112 18.8402 21.9126 19.1564 21.8566 19.6061C21.8335 19.7923 21.8211 19.9817 21.8203 20.1777C21.8203 20.662 21.8961 21.1381 22.0452 21.5927C22.1596 21.9395 22.4817 22.1594 22.8276 22.1594C22.9133 22.1594 23.0006 22.147 23.0854 22.1182Z" fill="#FFB800"/>
<path d="M19.8205 45.2991H18.1732C17.7178 45.2991 17.3496 45.6672 17.3496 46.1227C17.3496 46.5782 17.7178 46.9463 18.1732 46.9463H19.8205C20.2759 46.9463 20.6441 46.5782 20.6441 46.1227C20.6441 45.6672 20.2751 45.2991 19.8205 45.2991Z" fill="#FFB800"/>
<path d="M28.1029 39.1997C28.4158 39.1997 28.714 39.0209 28.8524 38.7187C29.041 38.3044 28.8598 37.816 28.4463 37.6274C28.06 37.4503 27.71 37.1842 27.4349 36.8564C27.1417 36.508 26.6228 36.4627 26.2744 36.756C25.926 37.0483 25.8807 37.5681 26.1739 37.9164C26.6055 38.4296 27.154 38.848 27.7611 39.1247C27.8722 39.1749 27.9884 39.1997 28.1029 39.1997Z" fill="#FFB800"/>
<path d="M46.7377 23.6692C46.1496 23.3282 45.5072 23.128 44.8293 23.0745C44.3772 23.0416 43.9794 23.3768 43.944 23.8314C43.9085 24.2852 44.247 24.6814 44.7009 24.7168C45.1308 24.7506 45.5385 24.8774 45.9116 25.094C46.0417 25.1698 46.1842 25.2052 46.3242 25.2052C46.6084 25.2052 46.8851 25.0578 47.0375 24.795C47.2656 24.4022 47.1314 23.8981 46.7377 23.6692Z" fill="#FFB800"/>
<path d="M24.7599 45.2991H23.1127C22.6572 45.2991 22.2891 45.6672 22.2891 46.1227C22.2891 46.5782 22.6572 46.9463 23.1127 46.9463H24.7599C25.2154 46.9463 25.5836 46.5782 25.5836 46.1227C25.5836 45.6672 25.2146 45.2991 24.7599 45.2991Z" fill="#FFB800"/>
<path d="M26.813 34.4596C26.8945 34.0363 27.0659 33.6451 27.3228 33.2958C27.5922 32.9302 27.5139 32.4146 27.1474 32.1444C26.7809 31.8759 26.2661 31.9533 25.996 32.3198C25.5932 32.8684 25.3231 33.4836 25.1946 34.1499C25.1089 34.5963 25.4013 35.0279 25.8485 35.1144C25.9004 35.1243 25.9531 35.1292 26.0042 35.1292C26.3913 35.1276 26.7364 34.8533 26.813 34.4596Z" fill="#FFB800"/>
<path d="M17.721 23.0424C15.8506 20.9298 13.3566 19.7668 10.6972 19.7668C7.41428 19.7668 5.16579 20.9487 3.29617 23.0613C-0.502385 27.3532 -0.50221 34.4183 3.29634 38.7102L10.2969 46.5346L17.7202 38.6081C21.5196 34.3162 21.5196 27.3343 17.721 23.0424Z" fill="#FFEDC0"/>
<path d="M17.6197 23.0921C15.6691 20.9476 13.0683 19.7671 10.2949 19.7671C7.52149 19.7671 4.92071 20.9476 2.97098 23.0921C-0.990325 27.4488 -0.990325 34.5361 2.97098 38.8929L10.2949 46.9467L17.6189 38.8929C21.581 34.5361 21.581 27.4488 17.6197 23.0921ZM16.3331 37.7842L10.2958 44.4234L4.25763 37.7842C0.851182 34.0395 0.851182 27.9455 4.25763 24.2007C5.87667 22.4199 8.02138 21.4392 10.2949 21.4392C12.5685 21.4392 14.714 22.4199 16.3322 24.2007C19.7387 27.9455 19.7387 34.0387 16.3331 37.7842Z" fill="#FFB800"/>
<ellipse cx="10.2961" cy="29.6505" rx="3.70631" ry="3.29449" fill="white"/>
<path d="M10.2894 24.7087C7.56403 24.7087 5.34766 26.9251 5.34766 29.6505C5.34766 32.3759 7.56403 34.5922 10.2894 34.5922C13.0148 34.5922 15.2311 32.3759 15.2311 29.6505C15.2311 26.9251 13.0148 24.7087 10.2894 24.7087ZM10.2894 32.945C8.47248 32.945 6.9949 31.4674 6.9949 29.6505C6.9949 27.8336 8.47248 26.356 10.2894 26.356C12.1063 26.356 13.5839 27.8336 13.5839 29.6505C13.5839 31.4674 12.1063 32.945 10.2894 32.945Z" fill="#FFB800"/>
<path d="M45.2236 1.96533C44.1014 0.697773 42.605 0 41.0093 0C39.0396 0 37.6905 0.70914 36.5687 1.9767C34.2896 4.55184 34.2897 8.79086 36.5688 11.366L40.7691 16.0607L45.2231 11.3047C47.5028 8.72958 47.5028 4.54047 45.2236 1.96533Z" fill="#FFEDC0"/>
<path d="M45.1636 1.99501C43.9933 0.708312 42.4328 0 40.7687 0C39.1047 0 37.5442 0.708312 36.3744 1.99501C33.9976 4.60905 33.9976 8.86143 36.3744 11.4755L40.7687 16.3077L45.1631 11.4755C47.5404 8.86143 47.5404 4.60905 45.1636 1.99501ZM44.3916 10.8103L40.7693 14.7938L37.1464 10.8103C35.1025 8.56346 35.1025 4.90702 37.1464 2.66019C38.1178 1.5917 39.4046 1.00328 40.7687 1.00328C42.1329 1.00328 43.4202 1.5917 44.3911 2.66019C46.435 4.90702 46.435 8.56296 44.3916 10.8103Z" fill="#FFB800"/>
<ellipse cx="40.7707" cy="5.93007" rx="2.22378" ry="1.9767" fill="white"/>
<path d="M40.7658 2.96509C39.1306 2.96509 37.8008 4.29491 37.8008 5.93013C37.8008 7.56535 39.1306 8.89518 40.7658 8.89518C42.401 8.89518 43.7309 7.56535 43.7309 5.93013C43.7309 4.29491 42.401 2.96509 40.7658 2.96509ZM40.7658 7.90683C39.6757 7.90683 38.7891 7.02028 38.7891 5.93013C38.7891 4.83998 39.6757 3.95344 40.7658 3.95344C41.856 3.95344 42.7425 4.83998 42.7425 5.93013C42.7425 7.02028 41.856 7.90683 40.7658 7.90683Z" fill="#FFB800"/>
</svg>
