<svg width="63" height="56" viewBox="0 0 63 56" fill="none" xmlns="http://www.w3.org/2000/svg">
<path d="M30.4927 55.4766C44.4101 55.4766 55.6924 44.1943 55.6924 30.2769C55.6924 16.3594 44.4101 5.07715 30.4927 5.07715C16.5753 5.07715 5.29297 16.3594 5.29297 30.2769C5.29297 44.1943 16.5753 55.4766 30.4927 55.4766Z" fill="#E9EAEB"/>
<path d="M53.0273 1H16.0273V29H53.0273V1Z" fill="white" stroke="#FFB800" stroke-width="2" stroke-miterlimit="10"/>
<path d="M40.0273 1H29.0273V7H40.0273V1Z" fill="#FFE5A3" stroke="#FFB800" stroke-width="2" stroke-miterlimit="10"/>
<path d="M49.6763 26.8336L49.8013 26.7619L49.8689 26.6346C51.5047 23.5555 53.4904 22.2502 55.7463 21.6857C56.9449 21.3983 58.0185 21.3582 58.8668 21.5278C59.5965 21.6737 60.1271 21.9664 60.4555 22.3595C59.8026 23.7774 58.2589 26.0788 56.6976 28.2315C55.0498 30.5034 53.4392 32.5334 52.9581 33.0628C52.4291 33.6396 50.1003 35.8218 47.7026 37.8698C46.5065 38.8915 45.3054 39.8693 44.3147 40.5893C43.8183 40.95 43.3843 41.2389 43.0356 41.4356C42.8611 41.534 42.7169 41.6042 42.6032 41.6485C42.5467 41.6706 42.5028 41.6843 42.4701 41.6921C42.4395 41.6995 42.4262 41.7 42.4268 41.7H42.4172H42.4068H42.3961H42.3851H42.3738H42.3622H42.3503H42.3381H42.3256H42.3128H42.2998H42.2864H42.2728H42.2588H42.2446H42.2301H42.2153H42.2002H42.1849H42.1693H42.1534H42.1372H42.1207H42.104H42.087H42.0697H42.0521H42.0343H42.0162H41.9979H41.9792H41.9604H41.9412H41.9218H41.9021H41.8821H41.8619H41.8415H41.8208H41.7998H41.7786H41.7571H41.7353H41.7134H41.6911H41.6686H41.6459H41.6229H41.5997H41.5762H41.5525H41.5286H41.5044H41.4799H41.4553H41.4303H41.4052H41.3798H41.3542H41.3283H41.3023H41.276H41.2494H41.2227H41.1957H41.1684H41.141H41.1133H41.0854H41.0573H41.029H41.0005H40.9717H40.9427H40.9135H40.8841H40.8545H40.8247H40.7946H40.7644H40.7339H40.7033H40.6724H40.6413H40.61H40.5786H40.5469H40.515H40.4829H40.4506H40.4182H40.3855H40.3527H40.3196H40.2864H40.2529H40.2193H40.1855H40.1515H40.1173H40.083H40.0484H40.0137H39.9788H39.9437H39.9084H39.873H39.8374H39.8016H39.7656H39.7294H39.6931H39.6567H39.62H39.5832H39.5462H39.5091H39.4717H39.4343H39.3966H39.3588H39.3209H39.2828H39.2445H39.2061H39.1675H39.1287H39.0898H39.0508H39.0116H38.9723H38.9328H38.8932H38.8534H38.8135H38.7734H38.7332H38.6928H38.6524H38.6117H38.571H38.5301H38.489H38.4479H38.4066H38.3652H38.3236H38.2819H38.2401H38.1982H38.1561H38.1139H38.0716H38.0292H37.9866H37.9439H37.9011H37.8582H37.8152H37.7721H37.7288H37.6855H37.642H37.5984H37.5547H37.5109H37.467H37.423H37.3789H37.3347H37.2903H37.2459H37.2014H37.1568H37.1121H37.0673H37.0224H36.9774H36.9323H36.8871H36.8418H36.7965H36.751H36.7055H36.6599H36.6142H36.5684H36.5225H36.4766H36.4306H36.3845H36.3383H36.292H36.2457H36.1993H36.1528H36.1063H36.0597H36.013H35.9662H35.9194H35.8725H35.8256H35.7786H35.7315H35.6844H35.6372H35.59H35.5427H35.4953H35.4479H35.4004H35.3529H35.3053H35.2577H35.2101H35.1624H35.1146H35.0668H35.0189H34.9711H34.9231H34.8752H34.8271H34.7791H34.731H34.6829H34.6347H34.5866H34.5383H34.4901H34.4418H34.3935H34.3452H34.2968H34.2484H34.2H34.1516H34.1031H34.0547H34.0062H33.9577H33.9091H33.8606H33.812H33.7635H33.7149H33.6663H33.6177H33.5691H33.5205H33.4719H33.4232H33.3746H33.326H33.2773H33.2287H33.1801H33.1315H33.0828H33.0342H32.9856H32.937H32.8884H32.8398H32.7912H32.7426H32.6941H32.6455H32.597H32.5485H32.5H32.4516H32.4031H32.3547H32.3063H32.2579H32.2095H32.1612H32.1129H32.0646H32.0163H31.9681H31.9199H31.8718H31.8237H31.7756H31.7275H31.6795H31.6316H31.5836H31.5357H31.4879H31.4401H31.3923H31.3446H31.297H31.2493H31.2018H31.1543H31.1068H31.0594H31.012H30.9647H30.9175H30.8703H30.8232H30.7761H30.7291H30.6821H30.6353H30.5884H30.5417H30.495H30.4484H30.4019H30.3554H30.309H30.2627H30.2164H30.1702H30.1241H30.0781H30.0322H29.9863H29.9405H29.8948H29.8492H29.8037H29.7582H29.7129H29.6676H29.6224H29.5773H29.5323H29.4874H29.4426H29.3979H29.3533H29.3088H29.2644H29.22H29.1758H29.1317H29.0877H29.0438H29H28.9563H28.9127H28.8692H28.8259H28.7826H28.7395H28.6965H28.6535H28.6108H28.5681H28.5255H28.4831H28.4408H28.3986H28.3565H28.3146H28.2728H28.2311H28.1895H28.1481H28.1068H28.0656H28.0246H27.9837H27.943H27.9023H27.8618H27.8215H27.7813H27.7412H27.7013H27.6615H27.6219H27.5824H27.5431H27.5039H27.4648H27.426H27.3872H27.3486H27.3102H27.2719H27.2338H27.1959H27.1581H27.1204H27.0829H27.0456H27.0085H26.9715H26.9347H26.898H26.8615H26.8252H26.7891H26.7531H26.7173H26.6817H26.6463H26.611H26.5759H26.541H26.5063H26.4717H26.4374H26.4032H26.3692H26.3354H26.3018H26.2683H26.2351H26.202H26.1692H26.1365H26.104H26.0718H26.0397H26.0078H25.9761H25.9447H25.9134H25.8823H25.8514H25.8208H25.7903H25.7601H25.73H25.7002H25.6706H25.6412H25.612H25.583H25.5542H25.5257H25.4973H25.4692H25.4414H25.4137H25.3862H25.359H25.332H25.3053H25.2787H25.2524H25.2263H25.2005H25.1749H25.1495H25.1243H25.0994H25.0748H25.0503H25.0261H25.0022H24.9785H24.955H24.9318H24.9088H24.886H24.8636H24.8413H24.8193H24.7976H24.7761H24.7549H24.7339H24.7132H24.6927H24.6725H24.6526H24.6329H24.6135H24.5943H24.5754H24.5568H24.5385H24.5204H24.5025H24.485H24.4677H24.4507H24.434H24.4175H24.4013H24.3854H24.3698H24.3544H24.3394H24.3246H24.3101H24.2959H24.2819H24.2683H24.2549H24.2419H24.2291H24.2166H24.2044H24.1925H24.1809H24.1696H24.1586H24.1479H24.1375H24.1273C23.0565 41.7 22.3049 42.314 21.6207 43.0627C21.3618 43.3461 21.0954 43.6687 20.8188 44.0035C20.7306 44.1103 20.6414 44.2184 20.551 44.3268C20.2601 44.6759 19.949 45.0397 19.6015 45.4086C18.9447 44.817 17.8398 43.7874 16.538 42.5744C16.0006 42.0737 15.4296 41.5416 14.8427 40.9963C12.7375 39.0398 10.4347 36.9177 8.78672 35.4924C10.2345 34.1712 14.4458 30.1887 16.2809 28.3536C16.9031 27.7314 17.7688 27.0341 18.7022 26.4956C19.6446 25.9519 20.6043 25.6 21.4273 25.6H21.4379H21.4485H21.4592H21.4699H21.4806H21.4914H21.5023H21.5132H21.5241H21.5351H21.5461H21.5571H21.5682H21.5794H21.5906H21.6018H21.6131H21.6244H21.6357H21.6471H21.6586H21.6701H21.6816H21.6931H21.7047H21.7164H21.7281H21.7398H21.7515H21.7633H21.7752H21.7871H21.799H21.8109H21.8229H21.835H21.847H21.8591H21.8713H21.8835H21.8957H21.9079H21.9202H21.9325H21.9449H21.9573H21.9697H21.9822H21.9947H22.0073H22.0198H22.0324H22.0451H22.0578H22.0705H22.0832H22.096H22.1088H22.1216H22.1345H22.1474H22.1604H22.1733H22.1863H22.1994H22.2124H22.2255H22.2387H22.2518H22.265H22.2782H22.2915H22.3047H22.3181H22.3314H22.3448H22.3581H22.3716H22.385H22.3985H22.412H22.4255H22.4391H22.4527H22.4663H22.48H22.4936H22.5073H22.5211H22.5348H22.5486H22.5624H22.5762H22.59H22.6039H22.6178H22.6317H22.6457H22.6597H22.6737H22.6877H22.7017H22.7158H22.7299H22.744H22.7581H22.7723H22.7864H22.8006H22.8149H22.8291H22.8434H22.8576H22.872H22.8863H22.9006H22.915H22.9294H22.9438H22.9582H22.9726H22.9871H23.0016H23.0161H23.0306H23.0451H23.0597H23.0742H23.0888H23.1034H23.118H23.1327H23.1473H23.162H23.1767H23.1914H23.2061H23.2208H23.2355H23.2503H23.2651H23.2799H23.2947H23.3095H23.3243H23.3391H23.354H23.3689H23.3837H23.3986H23.4135H23.4285H23.4434H23.4583H23.4733H23.4882H23.5032H23.5182H23.5332H23.5482H23.5632H23.5782H23.5933H23.6083H23.6234H23.6384H23.6535H23.6686H23.6837H23.6988H23.7139H23.729H23.7441H23.7592H23.7743H23.7895H23.8046H23.8198H23.8349H23.8501H23.8653H23.8804H23.8956H23.9108H23.926H23.9412H23.9564H23.9716H23.9868H24.002H24.0172H24.0324H24.0476H24.0629H24.0781H24.0933H24.1085H24.1238H24.139H24.1542H24.1695H24.1847H24.1999H24.2152H24.2304H24.2456H24.2609H24.2761H24.2913H24.3066H24.3218H24.337H24.3522H24.3675H24.3827H24.3979H24.4131H24.4284H24.4436H24.4588H24.474H24.4892H24.5044H24.5196H24.5348H24.55H24.5651H24.5803H24.5955H24.6107H24.6258H24.641H24.6561H24.6713H24.6864H24.7015H24.7166H24.7318H24.7469H24.762H24.7771H24.7921H24.8072H24.8223H24.8373H24.8524H24.8674H24.8825H24.8975H24.9125H24.9275H24.9425H24.9575H24.9724H24.9874H25.0023H25.0173H25.0322H25.0471H25.062H25.0769H25.0918H25.1066H25.1215H25.1363H25.1511H25.166H25.1808H25.1955H25.2103H25.2251H25.2398H25.2545H25.2692H25.2839H25.2986H25.3132H25.3279H25.3425H25.3571H25.3717H25.3863H25.4009H25.4154H25.4299H25.4444H25.4589H25.4734H25.4878H25.5023H25.5167H25.5311H25.5455H25.5598H25.5741H25.5885H25.6028H25.617H25.6313H25.6455H25.6597H25.6739H25.6881H25.7022H25.7164H25.7305H25.7445H25.7586H25.7726H25.7866H25.8006H25.8146H25.8285H25.8424H25.8563H25.8702H25.884H25.8978H25.9116H25.9254H25.9391H25.9528H25.9665H25.9802H25.9938H26.0074H26.021H26.0346H26.0481H26.0616H26.075H26.0885H26.1019H26.1153H26.1286H26.142H26.1553H26.1685H26.1818H26.195H26.2081H26.2213H26.2344H26.2475H26.2605H26.2736H26.2866H26.2995H26.3124H26.3253H26.3382H26.351H26.3638H26.3766H26.3893H26.402H26.4147H26.4273H26.4399H26.4525H26.465H26.4775H26.4899H26.5023H26.5147H26.5271H26.5394H26.5517H26.5639H26.5761H26.5883H26.6004H26.6125H26.6245H26.6366H26.6485H26.6605H26.6724H26.6842H26.6961H26.7079H26.7196H26.7313H26.743H26.7546H26.7662H26.7777H26.7892H26.8007H26.8121H26.8235H26.8348H26.8461H26.8574H26.8686H26.8798H26.8909H26.902H26.913H26.924H26.935H26.9459H26.9567H26.9676H26.9783H26.9891H26.9998H27.0104H27.021H27.0316H27.0421H27.0525H27.0629H27.0733H27.0836H27.0939H27.1041H27.1143H27.1244H27.1345H27.1446H27.1545H27.1645H27.1744H27.1842H27.194H27.2037H27.2134H27.2231H27.2327H27.2422H27.2517H27.2611H27.2705H27.2799H27.2891H27.2984H27.3076H27.3167H27.3258H27.3348H27.3438H27.3527H27.3616H27.3704H27.3791H27.3878H27.3965H27.4051H27.4136H27.4221H27.4305H27.4389H27.4472H27.4555H27.4637H27.4719H27.48H27.488H27.496H27.5039H27.5118H27.5196H27.5274H27.5351H27.5427H27.5503H27.5578H27.5653H27.5727H27.58H27.5873H27.5945H27.6017H27.6088H27.6158H27.6228H27.6297H27.6366H27.6434H27.6501H27.6568H27.6634H27.67H27.6765H27.6829H27.6893H27.6956H27.7018H27.708H27.7141H27.7202H27.7261H27.7321H27.7379H27.7437H27.7494H27.7551H27.7607H27.7662H27.7717H27.7771H27.7824H27.7877H27.7929H27.798H27.8031H27.808H27.813H27.8178H27.8226H27.8273C28.1484 25.6 28.5449 25.7376 29.0133 26.0036C29.4744 26.2654 29.953 26.6208 30.4325 26.9944C30.5443 27.0815 30.657 27.1703 30.7694 27.2589C31.1266 27.5404 31.4821 27.8206 31.8044 28.0429C32.0188 28.1907 32.2352 28.325 32.4448 28.4236C32.6489 28.5196 32.8842 28.6 33.1273 28.6H33.1496H33.1718H33.194H33.2161H33.2382H33.2602H33.2822H33.3042H33.3261H33.348H33.3698H33.3916H33.4133H33.4351H33.4567H33.4784H33.5H33.5215H33.543H33.5645H33.586H33.6074H33.6287H33.65H33.6713H33.6926H33.7138H33.7349H33.7561H33.7771H33.7982H33.8192H33.8402H33.8611H33.882H33.9028H33.9237H33.9444H33.9652H33.9859H34.0065H34.0272H34.0477H34.0683H34.0888H34.1093H34.1297H34.1501H34.1705H34.1908H34.2111H34.2313H34.2516H34.2717H34.2919H34.312H34.332H34.3521H34.3721H34.392H34.4119H34.4318H34.4517H34.4715H34.4913H34.511H34.5307H34.5504H34.57H34.5896H34.6092H34.6287H34.6482H34.6676H34.6871H34.7064H34.7258H34.7451H34.7644H34.7836H34.8028H34.822H34.8412H34.8603H34.8793H34.8984H34.9174H34.9363H34.9553H34.9742H34.993H35.0119H35.0307H35.0494H35.0682H35.0869H35.1055H35.1242H35.1428H35.1613H35.1799H35.1984H35.2168H35.2353H35.2537H35.272H35.2904H35.3087H35.3269H35.3452H35.3634H35.3815H35.3997H35.4178H35.4359H35.4539H35.4719H35.4899H35.5078H35.5258H35.5436H35.5615H35.5793H35.5971H35.6149H35.6326H35.6503H35.668H35.6856H35.7032H35.7208H35.7383H35.7558H35.7733H35.7908H35.8082H35.8256H35.843H35.8603H35.8776H35.8949H35.9121H35.9293H35.9465H35.9636H35.9808H35.9979H36.0149H36.032H36.049H36.0659H36.0829H36.0998H36.1167H36.1336H36.1504H36.1672H36.184H36.2007H36.2174H36.2341H36.2508H36.2674H36.284H36.3006H36.3171H36.3337H36.3502H36.3666H36.3831H36.3995H36.4159H36.4322H36.4485H36.4648H36.4811H36.4974H36.5136H36.5298H36.5459H36.5621H36.5782H36.5943H36.6103H36.6264H36.6424H36.6584H36.6743H36.6903H36.7062H36.722H36.7379H36.7537H36.7695H36.7853H36.801H36.8168H36.8325H36.8481H36.8638H36.8794H36.895H36.9106H36.9261H36.9416H36.9571H36.9726H36.9881H37.0035H37.0189H37.0343H37.0496H37.0649H37.0803H37.0955H37.1108H37.126H37.1412H37.1564H37.1716H37.1867H37.2018H37.2169H37.232H37.247H37.262H37.277H37.292H37.307H37.3219H37.3368H37.3517H37.3666H37.3814H37.3962H37.411H37.4258H37.4405H37.4553H37.47H37.4846H37.4993H37.514H37.5286H37.5432H37.5577H37.5723H37.5868H37.6013H37.6158H37.6303H37.6448H37.6592H37.6736H37.688H37.7023H37.7167H37.731H37.7453H37.7596H37.7739H37.7881H37.8023H37.8165H37.8307H37.8449H37.859H37.8731H37.8873H37.9013H37.9154H37.9294H37.9435H37.9575H37.9715H37.9854H37.9994H38.0133H38.0272H38.0411H38.055H38.0689H38.0827H38.0965H38.1103H38.1241H38.1379H38.1516H38.1653H38.179H38.1927H38.2064H38.2201H38.2337H38.2473H38.2609H38.2745H38.2881H38.3016H38.3152H38.3287H38.3422H38.3557H38.3692H38.3826H38.396H38.4095H38.4229H38.4362H38.4496H38.463H38.4763H38.4896H38.5029H38.5162H38.5295H38.5427H38.556H38.5692H38.5824H38.5956H38.6088H38.622H38.6351H38.6482H38.6614H38.6745H38.6875H38.7006H38.7137H38.7267H38.7398H38.7528H38.7658H38.7788H38.7917H38.8047H38.8176H38.8306H38.8435H38.8564H38.8693H38.8821H38.895H38.9078H38.9207H38.9335H38.9463H38.9591H38.9719H38.9847H38.9974H39.0102H39.0229H39.0356H39.0483H39.061H39.0737H39.0863H39.099H39.1116H39.1243H39.1369H39.1495H39.1621H39.1747H39.1872H39.1998H39.2123H39.2249H39.2374H39.2499H39.2624H39.2749H39.2874H39.2999H39.3123H39.3248H39.3372H39.3496H39.362H39.3744H39.3868H39.3992H39.4116H39.424H39.4363H39.4486H39.461H39.4733H39.4856H39.4979H39.5102H39.5225H39.5348H39.547H39.5593H39.5715H39.5838H39.596H39.6082H39.6204H39.6326H39.6448H39.657H39.6692H39.6813H39.6935H39.7057H39.7178H39.7299H39.7421H39.7542H39.7663H39.7784H39.7905H39.8026H39.8146H39.8267H39.8388H39.8508H39.8629H39.8749H39.887H39.899H39.911H39.923H39.935H39.947H39.959H39.971H39.983H39.9949H40.0069H40.0189H40.0308H40.0428H40.0547H40.0667H40.0786H40.0905H40.1024H40.1143H40.1263H40.1382H40.15H40.1619H40.1738H40.1857H40.1976H40.2095H40.2213H40.2332H40.245H40.2569H40.2687H40.2806H40.2924H40.3043H40.3161H40.3279H40.3397H40.3515H40.3634H40.3752H40.387H40.3988H40.4106H40.4224H40.4342H40.4459H40.4577H40.4695H40.4813H40.4931H40.5048H40.5166H40.5284H40.5401H40.5519H40.5637H40.5754H40.5872H40.5989H40.6107H40.6224H40.6342H40.6459H40.6576H40.6694H40.6811H40.6929H40.7046H40.7163H40.7281H40.7398H40.7515H40.7632H40.775H40.7867H40.7984H40.8101H40.8219H40.8336H40.8453H40.857H40.8687H40.8805H40.8922H40.9039H40.9156H40.9273C42.2773 28.6 43.1261 29.1317 43.6273 29.8L43.8927 30.1538L44.2763 29.9336L49.6763 26.8336Z" fill="white" stroke="#FFCF9E"/>
<path d="M29.9 34.9787C29.9 34.9787 38.9 34.9787 40.9 34.9787C45.9 34.9787 45.9 27.9787 40.9 27.9787C38.9 27.9787 36.9 27.9787 33.1 27.9787C32 27.9787 29.6 24.9787 27.8 24.9787C27 24.9787 23.2 24.9787 21.4 24.9787C19.6 24.9787 17.2 26.5787 15.9 27.8787C13.8 29.9787 8.6 34.8787 8 35.3787C11.3 38.1787 18.1 44.6787 19.6 45.9787C21.6 43.9787 22.4 42.0787 24.1 42.0787C25.8 42.0787 40.7 42.0787 42.4 42.0787C43.9 42.0787 52.2 34.4787 53.3 33.2787C54.3 32.1787 59.8 25.0787 61 22.1787C60.2 21.0787 58.1 20.6787 55.6 21.2787C53.2 21.8787 51.1 23.2787 49.4 26.4787L43.9 28.9787" stroke="#FFB800" stroke-width="2" stroke-miterlimit="10"/>
<path d="M8.7872 31.163L2 37.9521L17.0634 53.0112L23.8506 46.2221L8.7872 31.163Z" fill="#FFE5A3" stroke="#FFB800" stroke-width="2" stroke-miterlimit="10"/>
<path d="M7.62695 37L10.227 39.6" stroke="#FFB800" stroke-width="2" stroke-miterlimit="10"/>
<path d="M19.0273 21H21.0273" stroke="#FFB800" stroke-width="2" stroke-miterlimit="10"/>
<path d="M23.0273 21H25.0273" stroke="#FFB800" stroke-width="2" stroke-miterlimit="10"/>
<path d="M27.0273 21H29.0273" stroke="#FFB800" stroke-width="2" stroke-miterlimit="10"/>
</svg>
