<svg width="62" height="57" viewBox="0 0 62 57" fill="none" xmlns="http://www.w3.org/2000/svg">
<path d="M54 56.7H8C3.6 56.7 0 53.1 0 48.7V41.7H62V48.7C62 53.1 58.4 56.7 54 56.7Z" fill="#E9EAEB"/>
<path d="M59 39.7C59 38.5 59.5 34.2 56.6 33.5C56.4 33 55.3 30.7 54.4 28.7C53.6 26.9 51.7 25.7 49.7 25.7H42V44.7H58.6C58.6 44.7 60 43.8 60 42.7C60 41.7 60.3 40.1 59 39.7Z" fill="#FFE5A3"/>
<path d="M7 5.69995H5" stroke="#BCC0C4" stroke-width="2" stroke-miterlimit="10"/>
<path d="M3 5.69995H1" stroke="#BCC0C4" stroke-width="2" stroke-miterlimit="10"/>
<path d="M37 5.7H27.2C26.8 4.7 25.7 3.9 24.5 3.9C24.1 3.9 23.8 3.9 23.4 4.1C22.7 2.3 21 1 19 1C16.4 1 14.3 3.7 14.3 5.7H9" stroke="#BCC0C4" stroke-width="2" stroke-miterlimit="10"/>
<path d="M61 10.7001H57C56.3 9.7001 55 8.6001 53.3 8.8001C52.6 7.6001 51.3 6.6001 49.7 6.6001C47.4 6.6001 45.6 8.6001 45.6 10.6001H36" stroke="#BCC0C4" stroke-width="2" stroke-miterlimit="10"/>
<path d="M42 44.7H58.6C58.6 44.7 60 43.8 60 42.7C60 41.7 60.3 40 59 39.7C59 38.5 59.5 34.2 56.6 33.5C56.4 33 55.3 30.7 54.4 28.7C53.6 26.9 51.7 25.7 49.7 25.7H42" stroke="#FFB800" stroke-width="2" stroke-miterlimit="10"/>
<path d="M52 33.5999L50.4 30.1C50.3 29.8 50 29.7 49.7 29.7H46V34.7H51.3C51.9 34.7 52.3 34.0999 52 33.5999Z" fill="white" stroke="#FFB800" stroke-width="2" stroke-miterlimit="10"/>
<path d="M42 16.7H9V44.7H42V16.7Z" fill="white" stroke="#FFB800" stroke-width="2" stroke-miterlimit="10"/>
<path d="M22 44.7C22 46.9 20.2 48.7 18 48.7C15.8 48.7 14 46.9 14 44.7C14 42.5 15.8 40.7 18 40.7C20.2 40.7 22 42.5 22 44.7Z" fill="#E9EAEB" stroke="#2A5082" stroke-width="2" stroke-miterlimit="10"/>
<path d="M53 44.7C53 46.9 51.2 48.7 49 48.7C46.8 48.7 45 46.9 45 44.7C45 42.5 46.8 40.7 49 40.7C51.2 40.7 53 42.5 53 44.7Z" fill="#E9EAEB" stroke="#FFB800" stroke-width="2" stroke-miterlimit="10"/>
<path d="M29 29.7H3V48.7H29V29.7Z" fill="white" stroke="#FFB800" stroke-width="2" stroke-miterlimit="10"/>
<path d="M20 29.7H12V34.7H20V29.7Z" fill="#FFE49F" stroke="#FFB800" stroke-width="2" stroke-miterlimit="10"/>
<path d="M6 44.7H8" stroke="#FFB800" stroke-width="2" stroke-miterlimit="10"/>
<path d="M10 44.7H12" stroke="#FFB800" stroke-width="2" stroke-miterlimit="10"/>
<path d="M14 44.7H16" stroke="#FFB800" stroke-width="2" stroke-miterlimit="10"/>
</svg>
