<svg width="54" height="57" viewBox="0 0 54 57" fill="none" xmlns="http://www.w3.org/2000/svg">
<path d="M54 27C54 12.1 41.9 0 27 0C12.1 0 0 12.1 0 27C0 41.9 12.1 54 27 54C41.9 54 54 41.9 54 27Z" fill="#E9EAEB"/>
<path d="M29 51V47C29 47 33 44.6 33 40C33 32 33 22 33 22L18.6 20L12.2 25.2C10.8 26.5 10 28.4 10 30.3V39.7V51H29Z" fill="white" stroke="#FFB800" stroke-width="2" stroke-miterlimit="10"/>
<path d="M15.1993 15.7999L13.7993 30.0999C13.6993 31.5999 14.7993 32.8999 16.3993 32.9999L19.0993 33.2999C19.6993 33.3999 20.0993 33.8999 20.0993 34.3999C19.9993 34.9999 20.4993 35.4999 21.0993 35.4999L44.9993 37.7999C46.5993 37.9999 47.8993 36.8999 48.0993 35.3999L49.6993 19.0999C49.7993 17.5999 48.6993 16.2999 47.0993 16.1999L18.2993 13.3999C16.6993 13.2999 15.2993 14.2999 15.1993 15.7999Z" fill="white" stroke="#FFB800" stroke-width="2" stroke-miterlimit="10"/>
<path d="M10.9004 16.6999L13.1004 30.9999C13.3004 32.4999 13.7004 35.4999 15.3004 35.1999L19.0004 32.6999C19.6004 32.5999 20.1004 32.9999 20.2004 33.4999C20.3004 34.0999 20.8004 34.3999 21.4004 34.2999L45.1004 30.5999C46.7004 30.3999 47.7004 28.9999 47.5004 27.4999L45.0004 11.2999C44.8004 9.79993 43.3004 8.89993 41.8004 9.09993L13.2004 13.5999C11.7004 13.8999 10.7004 15.2999 10.9004 16.6999Z" fill="white" stroke="#FFB800" stroke-width="2" stroke-miterlimit="10"/>
<path d="M46.4004 29.6001L15.3004 34.7001C14.9004 34.8001 14.4004 34.5001 14.4004 34.0001L13.8004 30.5001C13.7004 30.1001 14.0004 29.6001 14.5004 29.6001L45.6004 24.5001C46.0004 24.4001 46.5004 24.7001 46.5004 25.2001L47.1004 28.7001C47.2004 29.1001 46.9004 29.5001 46.4004 29.6001Z" fill="#FFCF9E"/>
<path d="M12.9004 29.4L47.0004 23.7" stroke="#FFB800" stroke-width="2" stroke-miterlimit="10"/>
<path d="M26.3008 23.2001C24.0008 25.6001 14.3008 35.5001 14.3008 35.5001L22.9008 44.8001C22.9008 44.8001 26.3008 40.7001 24.0008 35.7001C24.0008 35.7001 28.0008 31.2001 29.0008 29.8001C31.3008 26.6001 28.6008 20.9001 26.3008 23.2001Z" fill="white"/>
<path d="M13.9004 35.3001C13.9004 35.3001 24.0004 25.5001 26.3004 23.2001C28.6004 20.9001 31.3004 26.6001 29.1004 29.8001C28.1004 31.2001 24.1004 35.7001 24.1004 35.7001C26.3004 40.7001 23.0004 44.8001 23.0004 44.8001" stroke="#FFB800" stroke-width="2" stroke-miterlimit="10"/>
<path d="M32 50H8V57H32V50Z" fill="#E9EAEB"/>
<path d="M8 57V50H32V57" stroke="#FFB800" stroke-width="2" stroke-miterlimit="10"/>
<path d="M11 54H14" stroke="#FFB800" stroke-width="2" stroke-miterlimit="10"/>
<path d="M38.1992 19.3999C39.8561 19.3999 41.1992 18.0568 41.1992 16.3999C41.1992 14.743 39.8561 13.3999 38.1992 13.3999C36.5424 13.3999 35.1992 14.743 35.1992 16.3999C35.1992 18.0568 36.5424 19.3999 38.1992 19.3999Z" fill="white" stroke="#FFB800" stroke-width="2" stroke-miterlimit="10"/>
<path d="M14.6992 20.6001L17.8992 20.1001" stroke="#FFB800" stroke-width="2" stroke-miterlimit="10"/>
<path d="M19.4004 19.8999L22.6004 19.3999" stroke="#FFB800" stroke-width="2" stroke-miterlimit="10"/>
<path d="M24.0996 19.1001L27.2996 18.6001" stroke="#FFB800" stroke-width="2" stroke-miterlimit="10"/>
<path d="M28.5996 18.3L31.6996 17.8" stroke="#FFB800" stroke-width="2" stroke-miterlimit="10"/>
</svg>
