<svg width="80" height="80" viewBox="0 0 80 80" fill="none" xmlns="http://www.w3.org/2000/svg">
<path d="M66.9995 40C66.9995 25.0885 54.9113 13.0003 39.9997 13.0003C25.0882 13.0003 13 25.0885 13 40C13 54.9116 25.0882 66.9998 39.9997 66.9998C54.9113 66.9998 66.9995 54.9116 66.9995 40Z" fill="#E9EAEB"/>
<path d="M42 64V60C42 60 46 57.6 46 53C46 45 46 35 46 35L31.6 33L25.2 38.2C23.8 39.5 23 41.4 23 43.3V52.7V64H42Z" fill="white" stroke="#FFB800" stroke-width="2" stroke-miterlimit="10"/>
<path d="M31 8V47H36V51H57V8H31Z" fill="white" stroke="#FFB800" stroke-width="2" stroke-miterlimit="10"/>
<path d="M52 43V16C50.3 16 49 14.7 49 13H39C39 14.7 37.7 16 36 16V43C37.7 43 39 44.3 39 46H49C49 44.3 50.3 43 52 43Z" fill="#FFEFC6" stroke="#FFB800" stroke-width="2" stroke-miterlimit="10"/>
<path d="M44 19V21" stroke="#FFB800" stroke-width="2" stroke-miterlimit="10"/>
<path d="M44 25C46.8 25 49 26.8 49 29C49 31.2 46.8 33 44 33C41.2 33 39 31.2 39 29C39 26.8 41.2 25 44 25Z" fill="white" stroke="#FFB800" stroke-width="2" stroke-miterlimit="10"/>
<path d="M39.3004 36.2001C37.0004 38.6001 27.9004 47.4001 27.9004 47.4001L35.9004 57.8001C35.9004 57.8001 39.3004 53.7001 37.0004 48.7001C37.0004 48.7001 41.0004 44.2001 42.0004 42.8001C44.3004 39.6001 41.6004 33.9001 39.3004 36.2001Z" fill="white"/>
<path d="M27.9004 47.4001C27.9004 47.4001 37.0004 38.5001 39.3004 36.2001C41.6004 33.9001 44.3004 39.6001 42.1004 42.8001C41.1004 44.2001 37.1004 48.7001 37.1004 48.7001C39.3004 53.7001 36.0004 57.8001 36.0004 57.8001" stroke="#FFB800" stroke-width="2" stroke-miterlimit="10"/>
<path d="M45 63H21V70H45V63Z" fill="#E9EAEB"/>
<path d="M21 70V63H45V70" stroke="#FFB800" stroke-width="2" stroke-miterlimit="10"/>
<path d="M24 67H27" stroke="#FFB800" stroke-width="2" stroke-miterlimit="10"/>
</svg>
