<svg width="36" height="34" viewBox="0 0 36 34" fill="none" xmlns="http://www.w3.org/2000/svg">
<path fill-rule="evenodd" clip-rule="evenodd" d="M14.4015 0.700195H21.6015C23.5897 0.700195 25.2015 2.31197 25.2015 4.3002V6.10001H32.4C34.3882 6.10001 36 7.71179 36 9.70001V29.5C36 31.4882 34.3882 33.1 32.4 33.1H3.6C1.61178 33.1 0 31.4882 0 29.5V9.70001C0 7.71179 1.61178 6.10001 3.6 6.10001H10.8015V4.3002C10.8015 2.31197 12.4132 0.700195 14.4015 0.700195ZM3.60049 29.5002V22.3002H16.1985V24.0999H19.7985V22.3002H32.4005V29.5002H3.60049ZM19.7985 18.7002H32.4005V9.70022H3.60049V18.7002H16.1985V18.6999H19.7985V18.7002ZM21.5995 4.30029V6.10029H14.3995V4.30029H21.5995Z" fill="url(#paint0_linear)"/>
<defs>
<linearGradient id="paint0_linear" x1="35.7016" y1="6.84758" x2="-0.724782" y2="7.74192" gradientUnits="userSpaceOnUse">
<stop stop-color="#FFB800"/>
<stop offset="1" stop-color="#FF8A00"/>
</linearGradient>
</defs>
</svg>
