<svg xmlns="http://www.w3.org/2000/svg" viewBox="0 0 24 23"><defs><style>.cls-1{fill:#fff;}</style></defs><title>basket</title><g id="Слой_2" data-name="Слой 2"><g id="Слой_1-2" data-name="Слой 1"><circle class="cls-1" cx="9" cy="21" r="2"/><circle class="cls-1" cx="20" cy="21" r="2"/><path class="cls-1" d="M9.62,17a3,3,0,0,1-1.86-.66A3,3,0,0,1,6.7,14.59L5,6.24s0-.06,0-.08L4.18,2H1A1,1,0,0,1,1,0H5A1,1,0,0,1,6,.8L6.82,5H23a1,1,0,0,1,1,1.19l-1.6,8.39a3,3,0,0,1-3,2.42H9.62ZM7.22,7l1.44,7.19a1,1,0,0,0,.35.59.86.86,0,0,0,.65.22H19.4a1,1,0,0,0,.67-.22,1,1,0,0,0,.35-.58L21.79,7Z"/></g></g></svg>