<svg width="22" height="16" viewBox="0 0 22 16" fill="none" xmlns="http://www.w3.org/2000/svg">
<path fill-rule="evenodd" clip-rule="evenodd" d="M10.9995 8.8C9.2116 8.8 0 2.3128 0 2.3128V1.6C0 0.7168 0.820274 0 1.8328 0H20.1663C21.1797 0 22 0.7168 22 1.6L21.9854 2.4C21.9854 2.4 12.8735 8.8 10.9995 8.8ZM10.9995 11C12.9596 11 21.9854 4.8 21.9854 4.8L22 14.4C22 15.2832 21.1797 16 20.1663 16H1.8328C0.821189 16 0 15.2832 0 14.4L0.0146477 4.8C0.0137323 4.8 9.2116 11 10.9995 11Z" fill="#CECECE"/>
</svg>
