<svg xmlns="http://www.w3.org/2000/svg" viewBox="0 0 32.42 18.09"><defs><style>.cls-1{fill:#fff;}</style></defs><title>car</title><g id="Слой_2" data-name="Слой 2"><g id="Слой_1-2" data-name="Слой 1"><path class="cls-1" d="M31.44,6.49,29.11,4.37a3,3,0,0,0-2-.78H21.75V3a3,3,0,0,0-3-3H3A3,3,0,0,0,0,3v8.93a3,3,0,0,0,3,3h.09a4.33,4.33,0,0,0,4.23,3.16,4.33,4.33,0,0,0,4.23-3.16h8.14a4.4,4.4,0,0,0,8.45,0h1.28a3,3,0,0,0,3-3V8.71A3,3,0,0,0,31.44,6.49ZM7.32,16.09A2.29,2.29,0,0,1,5,13.93a2.28,2.28,0,0,1,2.37-2.15,2.28,2.28,0,0,1,2.37,2.15A2.29,2.29,0,0,1,7.32,16.09Zm0-6.31a4.34,4.34,0,0,0-4.23,3.15H3a1,1,0,0,1-1-1V3A1,1,0,0,1,3,2H18.75a1,1,0,0,1,1,1v9.72a1.66,1.66,0,0,0-.06.21H11.55A4.34,4.34,0,0,0,7.32,9.78Zm16.59,6.31a2.45,2.45,0,0,1-2.16-1.26V13a2.44,2.44,0,0,1,2.15-1.25,2.28,2.28,0,0,1,2.37,2.15A2.29,2.29,0,0,1,23.91,16.09Zm6.51-4.16a1,1,0,0,1-1,1H28.14a4.33,4.33,0,0,0-4.23-3.15,4.41,4.41,0,0,0-2.15.56V5.59h5.33a1,1,0,0,1,.68.26L30.1,8a1,1,0,0,1,.32.74Z"/></g></g></svg>