<svg width="32" height="32" viewBox="0 0 32 32" fill="none" xmlns="http://www.w3.org/2000/svg">
<path d="M2 8H19V23H13" stroke="#F68D23" stroke-width="2" stroke-miterlimit="10" stroke-linejoin="round"/>
<path d="M24 25C25.1046 25 26 24.1046 26 23C26 21.8954 25.1046 21 24 21C22.8954 21 22 21.8954 22 23C22 24.1046 22.8954 25 24 25Z" stroke="#F68D23" stroke-width="2" stroke-miterlimit="10" stroke-linejoin="round"/>
<path d="M8 25C9.10457 25 10 24.1046 10 23C10 21.8954 9.10457 21 8 21C6.89543 21 6 21.8954 6 23C6 24.1046 6.89543 25 8 25Z" stroke="#F68D23" stroke-width="2" stroke-miterlimit="10" stroke-linejoin="round"/>
<path d="M19 23V12H25L29 17V23H26" stroke="#F68D23" stroke-width="2" stroke-miterlimit="10" stroke-linejoin="round"/>
<path d="M4 12H13" stroke="#F68D23" stroke-width="2" stroke-miterlimit="10" stroke-linejoin="round"/>
<path d="M2 16H11" stroke="#F68D23" stroke-width="2" stroke-miterlimit="10" stroke-linejoin="round"/>
</svg>
