<svg width="60" height="72" viewBox="0 0 60 72" fill="none" xmlns="http://www.w3.org/2000/svg">
<path d="M11.1706 46.9727H9.45703V54.6623H11.1706C12.0058 54.6623 12.6826 54.3743 13.1722 53.8127C13.6618 53.2367 13.921 52.5167 13.921 51.6239V50.0111C13.921 49.1327 13.6762 48.3983 13.1722 47.8367C12.6826 47.2607 12.0202 46.9727 11.1706 46.9727Z" fill="#FFB800"/>
<path d="M21.9402 54.7777C22.7466 54.7777 23.3802 54.4897 23.841 53.9281C24.3018 53.3665 24.5322 52.6465 24.5322 51.7537V49.8529C24.5322 48.9745 24.3018 48.2545 23.8266 47.6929C23.3658 47.1313 22.7322 46.8433 21.9258 46.8433C21.1482 46.8433 20.5434 47.1313 20.097 47.6929C19.6506 48.2545 19.4346 48.9745 19.4346 49.8529V51.7537C19.4346 52.6321 19.665 53.3665 20.1114 53.9281C20.5578 54.5041 21.1626 54.7777 21.9402 54.7777Z" fill="#FFB800"/>
<path d="M59.1507 16.1568L43.0947 0.3456C42.8787 0.1296 42.5763 0 42.2595 0H12.6387C8.16034 0 4.53154 3.8304 4.53154 8.5536V40.1184H0.585938V61.5168H4.53154V63.4464C4.53154 68.1552 8.17474 72 12.6387 72H51.4323C55.9107 72 59.5395 68.1696 59.5395 63.4464V17.0928C59.5395 16.7472 59.4099 16.4016 59.1507 16.1568ZM41.8563 2.6496L55.8243 16.416H48.2211C44.7075 16.416 41.8563 13.608 41.8563 10.1664V2.6496ZM57.0915 63.4464C57.0915 66.744 54.5571 69.4224 51.4323 69.4224H12.6387C9.51394 69.4224 6.97954 66.744 6.97954 63.4464V61.5168H33.9075C39.1635 61.5168 43.4115 56.7216 43.4115 50.8176C43.4115 44.9136 39.1491 40.1184 33.9075 40.1184H6.97954V8.5536C6.97954 5.256 9.51394 2.5776 12.6387 2.5776H39.4083V10.1664C39.4083 15.0336 43.3539 18.9936 48.2211 18.9936H57.0915V63.4464ZM7.69954 56.0736V45.576H11.1699C12.4947 45.576 13.5891 45.9936 14.4243 46.8288C15.2595 47.664 15.6771 48.7296 15.6771 50.04V51.6384C15.6771 52.9488 15.2595 54.0144 14.4243 54.8496C13.5891 55.6704 12.5091 56.088 11.1699 56.088H7.69954V56.0736ZM17.6931 51.768V49.8816C17.6931 48.6 18.0819 47.5344 18.8739 46.6992C19.6659 45.8496 20.6883 45.432 21.9411 45.432C23.2227 45.432 24.2739 45.8496 25.0803 46.6992C25.8867 47.5488 26.2899 48.6144 26.2899 49.8816V51.768C26.2899 53.0496 25.8867 54.1152 25.0803 54.9648C24.2739 55.8144 23.2227 56.232 21.9411 56.232C20.6883 56.232 19.6659 55.8144 18.8739 54.9648C18.0819 54.1152 17.6931 53.0496 17.6931 51.768ZM30.6531 53.9712C31.0707 54.5328 31.6467 54.8208 32.3811 54.8208C33.1011 54.8208 33.6483 54.6336 34.0083 54.2592C34.3827 53.8848 34.5699 53.3376 34.5699 52.632H36.2547L36.2691 52.6752C36.2835 53.7264 35.9379 54.5904 35.2323 55.2384C34.5267 55.8864 33.5763 56.2176 32.3667 56.2176C31.1427 56.2176 30.1491 55.8 29.4003 54.9792C28.6371 54.1584 28.2627 53.1072 28.2627 51.8112V49.824C28.2627 48.5424 28.6371 47.4912 29.3859 46.656C30.1347 45.8208 31.1139 45.4176 32.3235 45.4176C33.5619 45.4176 34.5267 45.7344 35.2467 46.368C35.9523 47.0016 36.2979 47.8656 36.2835 48.96L36.2691 49.0032H34.5699C34.5699 48.2976 34.3827 47.7648 33.9939 47.3904C33.6195 47.016 33.0579 46.8288 32.3235 46.8288C31.6179 46.8288 31.0419 47.1168 30.6387 47.6784C30.2211 48.24 30.0195 48.96 30.0195 49.8096V51.8256C30.0195 52.6896 30.2355 53.4096 30.6531 53.9712Z" fill="#FFB800"/>
</svg>
