<svg width="16" height="14" viewBox="0 0 16 14" fill="none" xmlns="http://www.w3.org/2000/svg">
    <path d="M14.5938 0.949219H1.40625C0.631813 0.949219 0 1.58034 0 2.35547V11.7305C0 12.503 0.629 13.1367 1.40625 13.1367H14.5938C15.3663 13.1367 16 12.5077 16 11.7305V2.35547C16 1.58297 15.371 0.949219 14.5938 0.949219ZM14.3996 1.88672L8.02981 8.2565L1.60497 1.88672H14.3996ZM0.9375 11.5363V2.54513L5.45247 7.02138L0.9375 11.5363ZM1.60041 12.1992L6.11822 7.68141L7.70125 9.25084C7.8845 9.43253 8.18022 9.43194 8.36272 9.24941L9.90625 7.70588L14.3996 12.1992H1.60041ZM15.0625 11.5363L10.5692 7.04297L15.0625 2.54959V11.5363Z"
          fill="#F0AC0D"/>
</svg>
