<svg width="30" height="29" viewBox="0 0 30 29" fill="none" xmlns="http://www.w3.org/2000/svg">
<g clip-path="url(#clip0)">
<path fill-rule="evenodd" clip-rule="evenodd" d="M15.1874 29C23.1955 29 29.6874 22.5081 29.6874 14.5C29.6874 6.49187 23.1955 0 15.1874 0C7.17925 0 0.687378 6.49187 0.687378 14.5C0.687378 22.5081 7.17925 29 15.1874 29ZM15.1874 27.26C22.2345 27.26 27.9474 21.5472 27.9474 14.5C27.9474 7.45285 22.2345 1.74 15.1874 1.74C8.14022 1.74 2.42738 7.45285 2.42738 14.5C2.42738 21.5472 8.14022 27.26 15.1874 27.26ZM16.2398 20.88V14.4993H18.1272L18.3774 12.3004H16.2398L16.243 11.1999C16.243 10.6264 16.3014 10.3191 17.1841 10.3191H18.364V8.12H16.4763C14.2088 8.12 13.4108 9.18667 13.4108 10.9805V12.3007H11.9974V14.4995H13.4108V20.88H16.2398Z" fill="white" fill-opacity="0.8"/>
</g>
<defs>
<clipPath id="clip0">
<rect x="0.687378" width="29" height="29" fill="white"/>
</clipPath>
</defs>
</svg>
