<svg width="20" height="18" viewBox="0 0 20 18" fill="none" xmlns="http://www.w3.org/2000/svg">
<path d="M18.3845 1.67109C17.3373 0.598987 15.9508 0.0130215 14.4711 0.0130215C12.9913 0.0130215 11.6006 0.603328 10.5533 1.67543L10.0064 2.23535L9.45092 1.66675C8.40365 0.594647 7.0087 0 5.52895 0C4.05344 0 2.66273 0.590306 1.61969 1.65807C0.572419 2.73017 -0.00421676 4.15385 2.32169e-05 5.66868C2.32169e-05 7.18351 0.580899 8.60285 1.62817 9.67495L9.59084 17.8264C9.70108 17.9392 9.84948 18 9.99364 18C10.1378 18 10.2862 17.9436 10.3964 17.8307L18.3761 9.69231C19.4233 8.62021 20 7.19653 20 5.6817C20.0042 4.16687 19.4318 2.74319 18.3845 1.67109Z" fill="#CECECE"/>
</svg>
