<svg width="17" height="18" viewBox="0 0 17 18" fill="none" xmlns="http://www.w3.org/2000/svg">
<path d="M16.7641 8.31903L8.91844 0.591926C8.67613 0.353473 8.32401 0.353473 8.08139 0.591926L0.235747 8.31903C0.0240904 8.5273 -0.0547618 8.86989 0.0390947 9.17625C0.132632 9.48224 0.378766 9.68636 0.65427 9.68598H2.61568V16.6404C2.61568 17.0671 2.90842 17.4131 3.26948 17.4131H7.15974C7.51889 17.4131 7.81099 17.0705 7.81355 16.6457L7.84164 12.0041H9.15372V16.6404C9.15372 17.0671 9.44646 17.4131 9.80752 17.4131H13.7303C14.0914 17.4131 14.3841 17.0671 14.3841 16.6404V9.68598H16.3456C16.6211 9.68636 16.8672 9.48224 16.9611 9.17625C17.0546 8.86989 16.9761 8.5273 16.7641 8.31903ZM13.7303 8.14056C13.3693 8.14056 13.0765 8.48655 13.0765 8.91327V15.8677H10.4613V11.2314C10.4613 10.8047 10.1686 10.4587 9.80752 10.4587H7.19231C6.83316 10.4587 6.54106 10.8013 6.5385 11.2261L6.51105 15.8677H3.92329V8.91327C3.92329 8.48655 3.63055 8.14056 3.26948 8.14056H2.46021L8.49991 2.19055L14.5399 8.14056H13.7303Z" fill="#FFB800"/>
</svg>
