<svg width="74" height="74" viewBox="0 0 74 74" fill="none" xmlns="http://www.w3.org/2000/svg">
<path d="M37 0C16.5656 0 0 16.5656 0 37C0 57.4344 16.5656 74 37 74C57.4344 74 74 57.4353 74 37C74 16.5647 57.4344 0 37 0ZM36.8154 57.6913C36.8154 57.6913 35.0986 58.8326 33.9251 58.8274C33.8206 58.8753 33.7588 58.9031 33.7588 58.9031L33.7614 58.8274C33.515 58.8161 33.2669 58.7812 33.0171 58.7186L32.6462 58.6272C30.5968 58.1187 29.5121 56.0868 30.0222 54.0383L32.8752 42.5369L34.1628 37.3421C35.3607 32.5191 30.3644 38.3677 29.3397 36.146C28.6632 34.6773 33.226 31.5954 36.5595 29.2718C36.5595 29.2718 38.2745 28.1322 39.449 28.1365C39.5543 28.0878 39.6161 28.0608 39.6161 28.0608L39.6118 28.1365C39.8599 28.1479 40.108 28.1827 40.3579 28.2445L40.7287 28.3368C42.7781 28.8452 44.0265 30.9181 43.5181 32.9666L40.666 44.4688L39.3758 49.6636C38.1796 54.4866 43.0932 48.6154 44.1171 50.8397C44.7935 52.3067 40.148 55.3677 36.8154 57.6913ZM44.0465 21.7412C43.3344 24.6098 40.4319 26.3588 37.5641 25.6467C34.6947 24.9345 32.9457 22.0328 33.6578 19.1634C34.37 16.2939 37.2725 14.5458 40.1402 15.2579C43.0097 15.9692 44.7578 18.8717 44.0465 21.7412Z" fill="#FFB800"/>
</svg>
