<?xml version="1.0" encoding="utf-8"?>
<!-- Generator: Adobe Illustrator 23.0.1, SVG Export Plug-In . SVG Version: 6.00 Build 0)  -->
<svg version="1.1" id="Слой_1" xmlns="http://www.w3.org/2000/svg" xmlns:xlink="http://www.w3.org/1999/xlink" x="0px" y="0px"
	 viewBox="0 0 30 29" style="enable-background:new 0 0 30 29;" xml:space="preserve">
<style type="text/css">
	.st0{opacity:0.8;}
	.st1{fill:#FFFFFF;}
	.st2{clip-path:url(#SVGID_2_);}
	.st3{fill:#FFFFFF;fill-opacity:0.8;}
</style>
<g>
	<g class="st0">
		<path class="st1" d="M15,28.9c-7.9,0-14.4-6.4-14.4-14.4S7.1,0.1,15,0.1s14.4,6.4,14.4,14.4S22.9,28.9,15,28.9z M15,2.1
			C8.2,2.1,2.6,7.7,2.6,14.5S8.2,26.9,15,26.9s12.4-5.5,12.4-12.4S21.8,2.1,15,2.1z"/>
	</g>
	<g>
		<defs>
			<rect id="SVGID_1_" x="8.8" y="8.3" width="12.3" height="12.3"/>
		</defs>
		<clipPath id="SVGID_2_">
			<use xlink:href="#SVGID_1_"  style="overflow:visible;"/>
		</clipPath>
		<g class="st2">
			<path class="st3" d="M17.8,8.3h-5.6c-1.8,0-3.3,1.5-3.3,3.3v5.6c0,1.8,1.5,3.3,3.3,3.3h5.6c1.8,0,3.3-1.5,3.3-3.3v-5.6
				C21.2,9.8,19.7,8.3,17.8,8.3z M15,17.9c-1.9,0-3.4-1.5-3.4-3.4c0-1.9,1.5-3.4,3.4-3.4s3.4,1.5,3.4,3.4
				C18.4,16.4,16.9,17.9,15,17.9z M18.4,11.9c-0.5,0-1-0.4-1-1s0.4-1,1-1s1,0.4,1,1S19,11.9,18.4,11.9z"/>
			<path class="st3" d="M15,12.4c-1.1,0-2.1,0.9-2.1,2.1c0,1.1,0.9,2.1,2.1,2.1c1.1,0,2.1-0.9,2.1-2.1C17.1,13.4,16.1,12.4,15,12.4z
				"/>
			<path class="st3" d="M18.4,10.7c-0.2,0-0.3,0.1-0.3,0.3c0,0.2,0.1,0.3,0.3,0.3c0.2,0,0.3-0.1,0.3-0.3
				C18.7,10.8,18.6,10.7,18.4,10.7z"/>
		</g>
	</g>
</g>
</svg>
