<svg width="50" height="50" viewBox="0 0 50 50" fill="none" xmlns="http://www.w3.org/2000/svg">
    <path d="M32.8125 32.8125C32.2735 32.8125 31.8359 33.25 31.8359 33.7891C31.8359 34.3281 32.2735 34.7656 32.8125 34.7656C33.3515 34.7656 33.7891 34.3281 33.7891 33.7891C33.7891 33.25 33.3515 32.8125 32.8125 32.8125Z"
          fill="#F7C03F"/>
    <path d="M19.5313 31.8359C18.9927 31.8359 18.5548 31.398 18.5548 30.8594C18.5548 30.3207 18.9927 29.8828 19.5313 29.8828C19.8773 29.8828 20.2424 30.0594 20.5876 30.3932C20.9752 30.7682 21.5936 30.7583 21.9686 30.3703C22.3435 29.9828 22.3332 29.3648 21.9457 28.9898C21.4501 28.5099 20.9542 28.2387 20.5079 28.0907V26.9531C20.5079 26.4137 20.0707 25.9766 19.5313 25.9766C18.9919 25.9766 18.5548 26.4137 18.5548 26.9531V28.0975C17.418 28.5007 16.6017 29.5864 16.6017 30.8594C16.6017 32.4749 17.9158 33.7891 19.5313 33.7891C20.0696 33.7891 20.5079 34.227 20.5079 34.7656C20.5079 35.3043 20.0696 35.7422 19.5313 35.7422C19.114 35.7422 18.6635 35.4797 18.263 35.0033C17.9162 34.5905 17.3001 34.5371 16.8874 34.8843C16.4742 35.2314 16.4212 35.8475 16.768 36.2602C17.2902 36.8813 17.904 37.3138 18.5548 37.532V38.6719C18.5548 39.2113 18.9919 39.6484 19.5313 39.6484C20.0707 39.6484 20.5079 39.2113 20.5079 38.6719V37.5275C21.6443 37.1243 22.461 36.0386 22.461 34.7656C22.461 33.1501 21.1469 31.8359 19.5313 31.8359Z"
          fill="#F7C03F"/>
    <path d="M11.7188 16.2109C12.2581 16.2109 12.6953 15.7738 12.6953 15.2344V11.3281C12.6953 10.7887 12.2581 10.3516 11.7188 10.3516C11.1794 10.3516 10.7422 10.7887 10.7422 11.3281V15.2344C10.7422 15.7738 11.1794 16.2109 11.7188 16.2109Z"
          fill="#F7C03F"/>
    <path d="M46.0938 23.0469V15.2344C46.0938 12.542 43.9034 10.3516 41.2109 10.3516H35.7422V2.92969C35.7422 1.31416 34.428 0 32.8125 0H14.6484C13.0329 0 11.7188 1.31416 11.7188 2.92969V6.44531H8.78906C7.17354 6.44531 5.85938 7.75948 5.85938 9.375V10.3516H4.88281C2.1904 10.3516 0 12.542 0 15.2344V45.1172C0 47.8096 2.1904 50 4.88281 50H34.7656C37.1235 50 39.0965 48.32 39.55 46.0938H41.2109C43.9034 46.0938 46.0938 43.9034 46.0938 41.2109V38.6719H47.0703C48.6858 38.6719 50 37.3577 50 35.7422V26.9531C50 24.7993 48.2475 23.0469 46.0938 23.0469ZM48.0469 26.9531C48.0469 28.0319 47.1725 28.9062 46.0938 28.9062V25C47.1706 25 48.0469 25.8762 48.0469 26.9531ZM41.2109 12.3047C42.8265 12.3047 44.1406 13.6189 44.1406 15.2344V28.9062H39.6484V23.0469C39.6484 20.689 37.9684 18.716 35.7422 18.2625V12.3047H41.2109ZM13.6719 2.92969C13.6719 2.39105 14.1098 1.95312 14.6484 1.95312H32.8125C33.3511 1.95312 33.7891 2.39105 33.7891 2.92969V18.1641H29.2969V9.375C29.2969 7.75948 27.9827 6.44531 26.3672 6.44531H13.6719V2.92969ZM23.4375 18.1641V8.39844H26.3672C26.9058 8.39844 27.3438 8.83636 27.3438 9.375V18.1641H23.4375ZM17.5781 18.1641V8.39844H21.4844V18.1641H17.5781ZM7.8125 9.375C7.8125 8.83636 8.25043 8.39844 8.78906 8.39844H15.625V18.1641H7.8125V9.375ZM4.88281 12.3047H5.85938V18.1641H5.09186C3.47786 18.1641 1.95312 16.9952 1.95312 15.2344C1.95312 13.6189 3.26729 12.3047 4.88281 12.3047ZM34.7656 48.0469H4.88281C3.26729 48.0469 1.95312 46.7327 1.95312 45.1172V19.0804C2.82631 19.7308 3.92303 20.1172 5.09186 20.1172H34.7656C36.3811 20.1172 37.6953 21.4314 37.6953 23.0469V28.9062H30.8594C29.2439 28.9062 27.9297 30.2204 27.9297 31.8359V35.7422C27.9297 37.3577 29.2439 38.6719 30.8594 38.6719H37.6953V45.1172C37.6953 46.7327 36.3811 48.0469 34.7656 48.0469ZM44.1406 41.2109C44.1406 42.8265 42.8265 44.1406 41.2109 44.1406H39.6484V38.6719H44.1406V41.2109ZM47.0703 36.7188H30.8594C30.3207 36.7188 29.8828 36.2808 29.8828 35.7422V31.8359C29.8828 31.2973 30.3207 30.8594 30.8594 30.8594H46.0938C46.7907 30.8594 47.4594 30.677 48.0469 30.3364V35.7422C48.0469 36.2808 47.6089 36.7188 47.0703 36.7188Z"
          fill="#F7C03F"/>
    <path d="M41.2109 32.8125H36.7188C36.1794 32.8125 35.7422 33.2497 35.7422 33.7891C35.7422 34.3285 36.1794 34.7656 36.7188 34.7656H41.2109C41.7503 34.7656 42.1875 34.3285 42.1875 33.7891C42.1875 33.2497 41.7503 32.8125 41.2109 32.8125Z"
          fill="#F7C03F"/>
</svg>
