<svg width="57" height="54" viewBox="0 0 57 54" fill="none" xmlns="http://www.w3.org/2000/svg">
    <path d="M18.1514 31.442H51.1592L56.9996 10.5949H48.4047L45.3188 1.06287L32.4495 5.23459L34.2096 10.5949H33.6039L30.4265 1.06287L17.5571 5.23459L19.3172 10.5949H12.4368L11.0081 4.88027C10.2881 2.02293 7.79649 0 4.92773 0H0.996094V2.38869H4.92773C6.71067 2.38869 8.26505 3.57731 8.74513 5.37178L15.0655 30.1047C13.7626 31.0419 12.9054 32.5735 12.9054 34.3222C12.9054 37.1795 15.2941 39.5682 18.1514 39.5682H50.3249V37.1795H18.1514C16.5971 37.1795 15.2941 35.8651 15.2941 34.3222C15.2942 32.7564 16.6085 31.442 18.1514 31.442ZM43.776 4.03453L45.9247 10.4693H36.6327L35.3183 6.77762L43.776 4.03453ZM28.8836 4.03453L31.0322 10.4693H21.7403L20.4259 6.77762L28.8836 4.03453ZM53.9023 12.8579L49.3763 29.0647H17.2028L13.0311 12.858L53.9023 12.8579Z"
          fill="#F7C03F"/>
    <path d="M39.8498 43.123C37.1068 43.123 34.8438 45.3861 34.8438 48.129C34.8438 50.872 37.1068 53.135 39.8498 53.135C42.7071 53.135 44.8558 50.872 44.8558 48.129C44.8559 45.3861 42.5929 43.123 39.8498 43.123ZM39.8498 50.872C38.2954 50.872 37.1068 49.5576 37.1068 48.129C37.1068 46.5747 38.4212 45.386 39.8498 45.386C41.4042 45.386 42.5928 46.5747 42.5928 48.129C42.5929 49.6834 41.2785 50.872 39.8498 50.872Z"
          fill="#F7C03F"/>
    <path d="M21.4904 43.123C18.7474 43.123 16.4844 45.3861 16.4844 48.129C16.4844 50.872 18.7474 53.135 21.4904 53.135C24.2334 53.135 26.4964 50.872 26.4964 48.129C26.4964 45.3861 24.2334 43.123 21.4904 43.123ZM21.4904 50.872C19.936 50.872 18.7474 49.5576 18.7474 48.129C18.7474 46.5747 20.0618 45.386 21.4904 45.386C22.919 45.386 24.2334 46.5747 24.2334 48.129C24.2334 49.6834 22.919 50.872 21.4904 50.872Z"
          fill="#F7C03F"/>
</svg>
