<svg width="53" height="38" viewBox="0 0 53 38" fill="none" xmlns="http://www.w3.org/2000/svg">
    <path d="M16.1859 18.4641C19.3089 18.4641 21.8406 15.9933 21.8406 12.9463C21.8406 9.89887 19.3089 7.42847 16.1859 7.42847C13.0629 7.42847 10.5312 9.89887 10.5312 12.9463C10.5354 15.992 13.0646 18.4601 16.1859 18.4641ZM16.1859 9.57368C18.1007 9.57368 19.6531 11.0882 19.6531 12.9569C19.6531 14.8253 18.1007 16.3402 16.1859 16.3402C14.2708 16.3402 12.7187 14.8253 12.7187 12.9569C12.7194 11.0885 14.2712 9.57435 16.1859 9.57368Z"
          fill="#F7C03F"/>
    <path d="M16.1805 20.5021C13.8668 20.4854 11.6462 21.3916 10.0336 23.0101C8.39297 24.6431 7.49609 26.863 7.49609 29.275C7.4978 29.8637 7.98657 30.3406 8.58984 30.3423H23.7711C24.3744 30.3406 24.8631 29.8637 24.8648 29.275C24.8648 26.863 23.968 24.6431 22.3273 23.0101C20.7147 21.3916 18.4944 20.4854 16.1805 20.5021ZM9.76016 28.2078C9.94746 26.8123 10.5921 25.5136 11.5977 24.5043C12.808 23.3093 14.4585 22.6366 16.1805 22.6366C17.9024 22.6366 19.553 23.3093 20.7633 24.5043C21.7668 25.5146 22.4114 26.813 22.6008 28.2078H9.76016Z"
          fill="#F7C03F"/>
    <path d="M47.5312 0H5.96875C2.94897 0.00133409 0.501367 2.38969 0.5 5.33636V32.4451C0.501367 35.3918 2.94897 37.7801 5.96875 37.7814H47.5312C50.551 37.7801 52.9986 35.3918 53 32.4451V5.33636C52.9986 2.38969 50.551 0.00133409 47.5312 0ZM50.8125 32.4451C50.8074 34.2111 49.3411 35.6419 47.5312 35.6469H5.96875C4.15894 35.6419 2.69263 34.2111 2.6875 32.4451V5.33636C2.69263 3.57036 4.15894 2.13955 5.96875 2.13454H47.5312C49.3411 2.13955 50.8074 3.57036 50.8125 5.33636V32.4451Z"
          fill="#F7C03F"/>
    <path d="M44.8398 17.8235H32.0977C31.4937 17.8235 31.0039 18.3012 31.0039 18.8908C31.0039 19.4805 31.4937 19.9581 32.0977 19.9581H44.8398C45.4438 19.9581 45.9336 19.4805 45.9336 18.8908C45.9336 18.3012 45.4438 17.8235 44.8398 17.8235Z"
          fill="#F7C03F"/>
    <path d="M44.8398 24.6542H32.0977C31.4937 24.6542 31.0039 25.1318 31.0039 25.7214C31.0039 26.3111 31.4937 26.7887 32.0977 26.7887H44.8398C45.4438 26.7887 45.9336 26.3111 45.9336 25.7214C45.9336 25.1318 45.4438 24.6542 44.8398 24.6542Z"
          fill="#F7C03F"/>
    <path d="M44.8398 10.9929H32.0977C31.4937 10.9929 31.0039 11.4705 31.0039 12.0601C31.0039 12.6498 31.4937 13.1274 32.0977 13.1274H44.8398C45.4438 13.1274 45.9336 12.6498 45.9336 12.0601C45.9336 11.4705 45.4438 10.9929 44.8398 10.9929Z"
          fill="#F7C03F"/>
</svg>
