<?xml version="1.0" encoding="utf-8"?>
<!-- Generator: Adobe Illustrator 24.0.1, SVG Export Plug-In . SVG Version: 6.00 Build 0)  -->
<svg version="1.1" id="Слой_1" xmlns="http://www.w3.org/2000/svg" xmlns:xlink="http://www.w3.org/1999/xlink" x="0px"
     y="0px"
     viewBox="0 0 43 49" style="enable-background:new 0 0 43 49;" xml:space="preserve">
<style type="text/css">
	.st0{fill:#F5BF23;}
</style>
    <g>
	<path class="st0" d="M31.1,28.5c-1.5-1.5-3.2-2.6-5.2-3.3c2.1-1.4,3.4-3.8,3.4-6.5c0-4.4-3.5-7.9-7.8-7.9s-7.8,3.5-7.8,7.9
		c0,2.7,1.3,5.1,3.4,6.5c-1.9,0.7-3.7,1.8-5.2,3.3c-2.6,2.6-4,6-4,9.7h2.1c0-6.4,5.1-11.5,11.4-11.5S33,31.9,33,38.2h2.1
		C35.1,34.6,33.7,31.1,31.1,28.5z M21.6,24.5c-3.2,0-5.7-2.6-5.7-5.8s2.6-5.8,5.7-5.8s5.7,2.6,5.7,5.8S24.7,24.5,21.6,24.5z"/>
        <path class="st0" d="M36.2,49H6.8c-3.3,0-6-2.7-6-6V6c0-3.3,2.7-6,6-6h29.3c3.3,0,6,2.7,6,6v37C42.2,46.3,39.5,49,36.2,49z M6.8,2
		c-2.2,0-4,1.8-4,4v37c0,2.2,1.8,4,4,4h29.3c2.2,0,4-1.8,4-4V6c0-2.2-1.8-4-4-4H6.8z"/>
</g>
</svg>
