<?xml version="1.0" encoding="utf-8"?>
<!-- Generator: Adobe Illustrator 24.0.1, SVG Export Plug-In . SVG Version: 6.00 Build 0)  -->
<svg version="1.1" id="Слой_1" xmlns="http://www.w3.org/2000/svg" xmlns:xlink="http://www.w3.org/1999/xlink" x="0px"
     y="0px"
     viewBox="0 0 51 44" style="enable-background:new 0 0 51 44;" xml:space="preserve">
<style type="text/css">
	.st0{fill:#F7C03F;}
</style>
    <g>
	<path class="st0" d="M45.7,12h-1.8c-0.1,0.6-0.2,1.2-0.4,1.8h2.2c1.8,0,3.2,1.2,3.2,2.7v23c0,1.5-1.4,2.7-3.2,2.7H5.3
		c-1.8,0-3.2-1.2-3.2-2.7v-23c0-1.5,1.4-2.7,3.2-2.7h3.2c-0.2-0.6-0.3-1.2-0.4-1.8H5.3C2.4,12,0,14,0,16.5v23C0,42,2.4,44,5.3,44
		h40.4c2.9,0,5.3-2,5.3-4.5v-23C51,14,48.6,12,45.7,12z"/>
        <path class="st0" d="M26,34l-0.4-0.1c-0.2-0.1-0.3-0.2-0.4-0.3L10.1,18.3c-2-2-3.1-4.7-3.1-7.6c0-2.9,1.1-5.5,3.1-7.6
		c2-2,4.6-3.1,7.4-3.1C20.3,0,23,1.1,25,3.1L26,4.2l0,0l1-1.1c2-2,4.6-3.1,7.4-3.1s5.5,1.1,7.4,3.1c2,2,3.1,4.7,3.1,7.6
		c0,2.9-1.1,5.5-3.1,7.6L26.4,33.9L26.2,34L26,34z M17.5,2c-2.3,0-4.4,0.9-6,2.5C9.9,6.2,9,8.4,9,10.7c0,2.3,0.9,4.5,2.5,6.2
		L26,31.6l14.5-14.7c1.6-1.6,2.5-3.8,2.5-6.2c0-2.3-0.9-4.5-2.5-6.2c-1.6-1.6-3.7-2.5-6-2.5s-4.4,0.9-6,2.5L26,7.1l-2.5-2.5
		C21.9,2.9,19.8,2,17.5,2z"/>
</g>
</svg>
