<svg width="43" height="52" viewBox="0 0 43 52" fill="none" xmlns="http://www.w3.org/2000/svg">
    <path d="M35.5287 15.1689H21.1581C20.6069 15.1689 20.1602 15.6157 20.1602 16.1669C20.1602 16.7181 20.6069 17.1648 21.1581 17.1648H35.5287C36.0799 17.1648 36.5266 16.7181 36.5266 16.1669C36.5266 15.6157 36.0799 15.1689 35.5287 15.1689Z"
          fill="#F7C03F"/>
    <path d="M32.0355 20.2514C31.8499 20.0658 31.5924 19.959 31.33 19.959C31.0675 19.959 30.81 20.0658 30.6244 20.2514C30.4388 20.437 30.332 20.6945 30.332 20.9569C30.332 21.2194 30.4388 21.4769 30.6244 21.6625C30.81 21.8481 31.0675 21.9549 31.33 21.9549C31.5924 21.9549 31.8499 21.8481 32.0355 21.6625C32.2211 21.4769 32.3279 21.2194 32.3279 20.9569C32.3279 20.6945 32.2211 20.437 32.0355 20.2514Z"
          fill="#F7C03F"/>
    <path d="M21.8597 4.58341C21.6741 4.3978 21.4167 4.29102 21.1542 4.29102C20.8917 4.29102 20.6343 4.3978 20.4486 4.58341C20.263 4.76903 20.1562 5.0265 20.1562 5.28896C20.1562 5.55142 20.263 5.80889 20.4486 5.99451C20.6343 6.18012 20.8917 6.2869 21.1542 6.2869C21.4167 6.2869 21.6741 6.18012 21.8597 5.99451C22.0454 5.80889 22.1521 5.55142 22.1521 5.28896C22.1521 5.0265 22.0454 4.76903 21.8597 4.58341Z"
          fill="#F7C03F"/>
    <path d="M27.1335 19.959H21.1581C20.6069 19.959 20.1602 20.4058 20.1602 20.9569C20.1602 21.5081 20.6069 21.9549 21.1581 21.9549H27.1335C27.6846 21.9549 28.1314 21.5081 28.1314 20.9569C28.1314 20.4058 27.6846 19.959 27.1335 19.959Z"
          fill="#F7C03F"/>
    <path d="M35.5287 25.9468H21.1581C20.6069 25.9468 20.1602 26.3936 20.1602 26.9447C20.1602 27.4959 20.6069 27.9427 21.1581 27.9427H35.5287C36.0799 27.9427 36.5266 27.4959 36.5266 26.9447C36.5266 26.3936 36.0799 25.9468 35.5287 25.9468Z"
          fill="#F7C03F"/>
    <path d="M32.0355 31.0292C31.8499 30.8436 31.5924 30.7368 31.33 30.7368C31.0675 30.7368 30.81 30.8436 30.6244 31.0292C30.4388 31.2148 30.332 31.4723 30.332 31.7348C30.332 31.9972 30.4388 32.2547 30.6244 32.4403C30.81 32.6259 31.0675 32.7327 31.33 32.7327C31.5924 32.7327 31.8499 32.6259 32.0355 32.4403C32.2211 32.2547 32.3279 31.9972 32.3279 31.7348C32.3279 31.4723 32.2211 31.2148 32.0355 31.0292Z"
          fill="#F7C03F"/>
    <path d="M27.1335 30.7368H21.1581C20.6069 30.7368 20.1602 31.1836 20.1602 31.7348C20.1602 32.2859 20.6069 32.7327 21.1581 32.7327H27.1335C27.6846 32.7327 28.1314 32.2859 28.1314 31.7348C28.1314 31.1836 27.6846 30.7368 27.1335 30.7368Z"
          fill="#F7C03F"/>
    <path d="M35.5287 36.7246H21.1581C20.6069 36.7246 20.1602 37.1714 20.1602 37.7226C20.1602 38.2737 20.6069 38.7205 21.1581 38.7205H35.5287C36.0799 38.7205 36.5266 38.2737 36.5266 37.7226C36.5266 37.1714 36.0799 36.7246 35.5287 36.7246Z"
          fill="#F7C03F"/>
    <path d="M32.0355 41.807C31.8499 41.6214 31.5924 41.5146 31.33 41.5146C31.0675 41.5146 30.81 41.6214 30.6244 41.807C30.4388 41.9927 30.332 42.2501 30.332 42.5126C30.332 42.7751 30.4388 43.0325 30.6244 43.2181C30.81 43.4038 31.0675 43.5105 31.33 43.5105C31.5924 43.5105 31.8499 43.4038 32.0355 43.2181C32.2211 43.0325 32.3279 42.7751 32.3279 42.5126C32.3279 42.2501 32.2211 41.9927 32.0355 41.807Z"
          fill="#F7C03F"/>
    <path d="M27.1335 41.5146H21.1581C20.6069 41.5146 20.1602 41.9614 20.1602 42.5126C20.1602 43.0638 20.6069 43.5105 21.1581 43.5105H27.1335C27.6846 43.5105 28.1314 43.0638 28.1314 42.5126C28.1314 41.9614 27.6846 41.5146 27.1335 41.5146Z"
          fill="#F7C03F"/>
    <path d="M37.447 3.89208H29.8248C28.723 2.84214 27.2336 2.19548 25.5951 2.19548H24.7209C24.0525 0.872402 22.6795 0 21.1563 0C19.6331 0 18.2602 0.872402 17.5918 2.19548H16.7155C15.0769 2.19548 13.5876 2.84214 12.4858 3.89208H4.86577C2.1828 3.89208 0 6.07488 0 8.75785V46.229C0 48.912 2.1828 51.0948 4.86577 51.0948H37.4469C40.1299 51.0948 42.3127 48.912 42.3127 46.229V8.75785C42.3128 6.07488 40.13 3.89208 37.447 3.89208ZM16.7156 4.19136H18.271C18.7198 4.19136 19.1134 3.89168 19.2329 3.45907C19.4709 2.59755 20.2618 1.99589 21.1564 1.99589C22.051 1.99589 22.8419 2.59755 23.0798 3.45907C23.1993 3.89168 23.593 4.19136 24.0418 4.19136H25.5951C27.7611 4.19136 29.544 5.86292 29.722 7.98365H12.5887C12.7666 5.86292 14.5496 4.19136 16.7156 4.19136ZM40.3169 46.2291C40.3169 47.8116 39.0295 49.099 37.447 49.099H4.86577C3.28333 49.099 1.99589 47.8116 1.99589 46.2291V8.75785C1.99589 7.17541 3.28333 5.88797 4.86577 5.88797H11.0877C10.7607 6.63762 10.5782 7.46412 10.5782 8.33293V8.98159C10.5782 9.53276 11.025 9.97954 11.5761 9.97954H30.7346C31.2857 9.97954 31.7325 9.53276 31.7325 8.98159V8.33293C31.7325 7.46422 31.55 6.63762 31.2231 5.88797H37.447C39.0295 5.88797 40.3169 7.17541 40.3169 8.75785V46.2291Z"
          fill="#F7C03F"/>
    <path d="M14.8102 14.9288C14.4205 14.5391 13.7886 14.5391 13.3989 14.9287L9.13154 19.1962L7.81695 17.8815C7.42725 17.4919 6.79535 17.4919 6.40555 17.8815C6.01586 18.2712 6.01586 18.9031 6.40555 19.2929L8.42589 21.3133C8.62079 21.5082 8.87616 21.6056 9.13154 21.6056C9.38691 21.6056 9.64238 21.5082 9.83718 21.3133L14.8102 16.3402C15.1999 15.9505 15.1999 15.3186 14.8102 14.9288Z"
          fill="#F7C03F"/>
    <path d="M12.374 36.7244H7.58388C7.03272 36.7244 6.58594 37.1712 6.58594 37.7223V42.5125C6.58594 43.0636 7.03272 43.5104 7.58388 43.5104H12.374C12.9252 43.5104 13.372 43.0636 13.372 42.5125V37.7223C13.372 37.1712 12.9252 36.7244 12.374 36.7244ZM11.3761 41.5145H8.58183V38.7203H11.3761V41.5145Z"
          fill="#F7C03F"/>
    <path d="M12.374 25.9466H7.58388C7.03272 25.9466 6.58594 26.3934 6.58594 26.9445V31.7347C6.58594 32.2858 7.03272 32.7326 7.58388 32.7326H12.374C12.9252 32.7326 13.372 32.2858 13.372 31.7347V26.9445C13.372 26.3934 12.9252 25.9466 12.374 25.9466ZM11.3761 30.7367H8.58183V27.9425H11.3761V30.7367Z"
          fill="#F7C03F"/>
</svg>
