<?xml version="1.0" encoding="utf-8"?>
<!-- Generator: Adobe Illustrator 24.0.1, SVG Export Plug-In . SVG Version: 6.00 Build 0)  -->
<svg version="1.1" id="Слой_1" xmlns="http://www.w3.org/2000/svg" xmlns:xlink="http://www.w3.org/1999/xlink" x="0px"
     y="0px"
     viewBox="0 0 47 47" style="enable-background:new 0 0 47 47;" xml:space="preserve">
<style type="text/css">
	.st0{fill:#F7C03F;}
</style>
    <g>
	<path class="st0" d="M44,47H3c-1.7,0-3-1.3-3-3V3c0-1.7,1.3-3,3-3h11.7c1.7,0,3,1.3,3,3v9.1c0,0.6,0.4,1,1,1H44c1.7,0,3,1.3,3,3V44
		C47,45.7,45.7,47,44,47z M3,2C2.4,2,2,2.4,2,3v41c0,0.6,0.4,1,1,1h41c0.6,0,1-0.4,1-1V16.1c0-0.6-0.4-1-1-1H18.7c-1.7,0-3-1.3-3-3
		V3c0-0.6-0.4-1-1-1H3z"/>
</g>
    <g>
	<path class="st0" d="M13.6,34.5c-4,0-7.3-3.3-7.3-7.3c0-4,3.3-7.3,7.3-7.3s7.3,3.3,7.3,7.3C20.9,31.2,17.6,34.5,13.6,34.5z
		 M13.6,21.8c-2.9,0-5.3,2.4-5.3,5.3c0,2.9,2.4,5.3,5.3,5.3s5.3-2.4,5.3-5.3C18.9,24.2,16.5,21.8,13.6,21.8z"/>
</g>
    <g>
	<rect x="24" y="20.4" class="st0" width="14.7" height="2"/>
</g>
    <g>
	<rect x="24" y="25.6" class="st0" width="14.7" height="2"/>
</g>
    <g>
	<rect x="24" y="31.4" class="st0" width="14.7" height="2"/>
</g>
    <g>
	<rect x="24" y="37.7" class="st0" width="9.4" height="2"/>
</g>
    <g>
	<path class="st0" d="M42,15H18c-1.1,0-2-0.9-2-2V6c0-1.1,0.9-2,2-2h24c1.1,0,2,0.9,2,2v7C44,14.1,43.1,15,42,15z M18,6L18,6v7h24V6
		H18z"/>
</g>
    <g>
	<rect x="29" y="5" class="st0" width="2" height="9"/>
</g>
</svg>
