<svg width="45" height="44" viewBox="0 0 45 44" fill="none" xmlns="http://www.w3.org/2000/svg">
    <path d="M44.5073 0.30938C44.2027 0.135552 43.8281 0.138482 43.5263 0.316997L25.6305 10.8994C25.1662 11.1739 25.0124 11.7727 25.2869 12.237C25.5613 12.7011 26.1601 12.855 26.6245 12.5805L39.4645 4.98788L15.548 29.8035L3.65268 26.1643L19.1766 16.9846C19.6408 16.71 19.7946 16.1112 19.5201 15.6469C19.2457 15.1828 18.6468 15.0288 18.1825 15.3034L0.752979 25.6099C0.419973 25.8069 0.234524 26.1818 0.280324 26.566C0.326125 26.9503 0.594386 27.2712 0.964307 27.3844L15.1702 31.7305L21.4375 43.138C21.444 43.1498 21.4508 43.1598 21.4577 43.1686C21.5623 43.3431 21.719 43.4855 21.9145 43.5678C22.0369 43.6192 22.1655 43.6443 22.2933 43.6443C22.5435 43.6443 22.7899 43.548 22.976 43.3661L30.1824 36.3232L43.7376 40.4702C43.8314 40.4988 43.9276 40.513 44.0233 40.513C44.2299 40.513 44.434 40.4474 44.6041 40.3215C44.8531 40.1373 44.9999 39.846 44.9999 39.5364V1.15762C44.9999 0.806937 44.8119 0.48311 44.5073 0.30938ZM21.4907 32.3323C21.3776 32.4957 21.317 32.6897 21.317 32.8884V38.8621L17.0374 31.0726L35.975 11.4232L21.4907 32.3323ZM23.2701 40.3478V34.2085L28.0543 35.6722L23.2701 40.3478ZM43.0468 38.2164L23.8575 32.3457L43.0468 4.64433V38.2164Z"
          fill="#F7C03F"/>
    <path d="M22.6865 13.4926C22.5049 13.311 22.2529 13.2065 21.9961 13.2065C21.7393 13.2065 21.4873 13.311 21.3057 13.4926C21.1241 13.6743 21.0195 13.9262 21.0195 14.184C21.0195 14.4409 21.124 14.6918 21.3057 14.8735C21.4873 15.0561 21.7393 15.1596 21.9961 15.1596C22.2529 15.1596 22.5049 15.0561 22.6865 14.8735C22.8681 14.6918 22.9727 14.4409 22.9727 14.184C22.9727 13.9262 22.8682 13.6743 22.6865 13.4926Z"
          fill="#F7C03F"/>
</svg>
