<?xml version="1.0" encoding="utf-8"?>
<!-- Generator: Adobe Illustrator 23.0.1, SVG Export Plug-In . SVG Version: 6.00 Build 0)  -->
<svg version="1.1" id="Слой_1" xmlns="http://www.w3.org/2000/svg" xmlns:xlink="http://www.w3.org/1999/xlink" x="0px" y="0px"
	 viewBox="0 0 20 19" style="enable-background:new 0 0 20 19;" xml:space="preserve">
<g>
	<path d="M8.4,15.2c-4.2,0-7.6-3.4-7.6-7.6C0.8,3.4,4.2,0,8.4,0C12.6,0,16,3.4,16,7.6C16,11.8,12.6,15.2,8.4,15.2z M8.4,1.5
		c-3.4,0-6.1,2.7-6.1,6.1c0,3.4,2.7,6.1,6.1,6.1c3.3,0,6.1-2.7,6.1-6.1C14.5,4.2,11.8,1.5,8.4,1.5z"/>
</g>
<g>
	<rect x="15.8" y="13.3" transform="matrix(0.7086 -0.7056 0.7056 0.7086 -6.6269 16.3713)" width="1.5" height="5.7"/>
</g>
</svg>
