<svg width="13" height="13" viewBox="0 0 13 13" fill="none" xmlns="http://www.w3.org/2000/svg">
<path fill-rule="evenodd" clip-rule="evenodd" d="M4.42371 4.01949L12.8193 7.78022C13.0889 7.95302 13.0448 8.25401 12.7669 8.34773L9.33012 9.1711L8.34751 12.7777C8.27087 13.0457 7.90227 13.0846 7.78597 12.8217L4.02897 4.41759C3.91184 4.17498 4.17129 3.92802 4.42371 4.01949Z" fill="#9A9A9A"/>
<path fill-rule="evenodd" clip-rule="evenodd" d="M5.00288 0C7.76236 0 9.99994 2.24258 9.99994 5.00307C10.0008 5.04324 9.9936 5.08317 9.97887 5.12052C9.96413 5.15788 9.94212 5.1919 9.91413 5.2206C9.88614 5.2493 9.85272 5.2721 9.81584 5.28767C9.77896 5.30324 9.73936 5.31126 9.69935 5.31126C9.65935 5.31126 9.61974 5.30324 9.58286 5.28767C9.54598 5.2721 9.51257 5.2493 9.48457 5.2206C9.45658 5.1919 9.43457 5.15788 9.41984 5.12052C9.4051 5.08317 9.39794 5.04324 9.39877 5.00307C9.39877 2.56925 7.43914 0.603933 5.00288 0.603933C2.56661 0.603933 0.601165 2.56971 0.601165 5.00307C0.601165 7.43011 2.56661 9.39618 5.00288 9.39618C5.04289 9.39533 5.08267 9.40251 5.11988 9.4173C5.15709 9.43209 5.19099 9.45419 5.21958 9.4823C5.24818 9.51042 5.2709 9.54399 5.28641 9.58104C5.30192 9.61809 5.30991 9.65787 5.30991 9.69806C5.30991 9.73825 5.30192 9.77804 5.28641 9.81509C5.2709 9.85214 5.24818 9.8857 5.21958 9.91382C5.19099 9.94194 5.15709 9.96404 5.11988 9.97883C5.08267 9.99362 5.04289 10.0008 5.00288 9.99993C2.2434 9.99993 0 7.75844 0 5.00307C0 2.24211 2.2434 0 5.00288 0Z" fill="#9A9A9A"/>
</svg>
