<svg width="60" height="73" viewBox="0 0 60 73" fill="none" xmlns="http://www.w3.org/2000/svg">
<path d="M59.1949 16.2164L43.0797 0.346875C42.8629 0.130078 42.5594 0 42.2414 0H12.5113C8.01641 0 4.37422 3.84453 4.37422 8.58516V40.2664H0.414062V61.7438H4.37422V63.6805C4.37422 68.4066 8.03086 72.2656 12.5113 72.2656H51.4481C55.943 72.2656 59.5852 68.4211 59.5852 63.6805V17.1559C59.5852 16.809 59.4551 16.4621 59.1949 16.2164ZM41.8367 2.65937L55.8563 16.4766H48.225C44.6984 16.4766 41.8367 13.6582 41.8367 10.2039V2.65937ZM57.1281 63.6805C57.1281 66.9902 54.5844 69.6785 51.4481 69.6785H12.5113C9.375 69.6785 6.83125 66.9902 6.83125 63.6805V61.7438H33.8586C39.134 61.7438 43.3977 56.9309 43.3977 51.0051C43.3977 45.0793 39.1195 40.2664 33.8586 40.2664H6.83125V8.58516C6.83125 5.27539 9.375 2.58711 12.5113 2.58711H39.3797V10.2039C39.3797 15.0891 43.3399 19.0637 48.225 19.0637H57.1281V63.6805ZM8.01641 56.425V45.5852H12.1645C13.3641 45.5852 14.3035 45.8887 14.9684 46.5102C15.6332 47.1316 15.9801 47.941 15.9801 48.9527C15.9801 49.9645 15.6477 50.7883 14.9684 51.3953C14.2891 52.0023 13.3496 52.3203 12.1645 52.3203H9.82305V56.425H8.01641ZM18.177 56.425V45.5852H21.7613C23.1344 45.5852 24.2473 46.0187 25.1145 46.8715C25.9816 47.7242 26.4008 48.8371 26.4008 50.1813V51.8289C26.4008 53.1875 25.9672 54.2859 25.1145 55.1387C24.2473 55.9914 23.1344 56.425 21.7613 56.425H18.177ZM35.0293 50.3547V51.8H30.6645V56.425H28.8434V45.5852H35.7809V47.0305H30.65V50.3402H35.0293V50.3547Z" fill="#FFB800"/>
<path d="M13.6822 50.3258C14.0146 49.9645 14.1881 49.5164 14.1881 48.9672C14.1881 48.418 14.0146 47.9555 13.6822 47.5941C13.3498 47.2328 12.8439 47.0449 12.1646 47.0449H9.82324V50.875H12.1646C12.8439 50.8605 13.3353 50.6871 13.6822 50.3258Z" fill="#FFB800"/>
<path d="M21.7611 47.0449H19.9834V54.9941H21.7611C22.6283 54.9941 23.3221 54.7051 23.8279 54.1125C24.3338 53.5199 24.5939 52.7684 24.5939 51.8434V50.1813C24.5939 49.2707 24.3338 48.5191 23.8279 47.9266C23.3221 47.334 22.6283 47.0449 21.7611 47.0449Z" fill="#FFB800"/>
</svg>
