<?xml version="1.0" encoding="utf-8"?>
<!-- Generator: Adobe Illustrator 23.0.1, SVG Export Plug-In . SVG Version: 6.00 Build 0)  -->
<svg version="1.1" id="Слой_1" xmlns="http://www.w3.org/2000/svg" xmlns:xlink="http://www.w3.org/1999/xlink" x="0px" y="0px"
	 viewBox="0 0 14 19" style="enable-background:new 0 0 14 19;" xml:space="preserve">
<style type="text/css">
	.st0{fill:#F0AC0D;}
</style>
<path class="st0" d="M7,0C3.5,0,0.7,2.9,0.7,6.4c0,1.2,0.3,2.3,0.9,3.3l5,8.1C6.7,17.9,6.9,18,7.1,18c0,0,0,0,0,0
	c0.2,0,0.4-0.1,0.4-0.3l4.9-8.2c0.6-1,0.9-2.1,0.9-3.2C13.3,2.9,10.5,0,7,0z M11.5,9.1l-4.5,7.4L2.5,9.1C2,8.3,1.7,7.4,1.7,6.4
	c0-2.9,2.4-5.3,5.3-5.3s5.3,2.4,5.3,5.3C12.3,7.3,12,8.3,11.5,9.1z"/>
<g>
	<path class="st0" d="M7,10c-1.9,0-3.4-1.5-3.4-3.4S5.1,3.1,7,3.1c1.9,0,3.4,1.5,3.4,3.4S8.9,10,7,10z M7,4.1
		c-1.3,0-2.4,1.1-2.4,2.4C4.6,7.9,5.7,9,7,9c1.3,0,2.4-1.1,2.4-2.4C9.4,5.2,8.3,4.1,7,4.1z"/>
</g>
</svg>
