<svg width="28" height="28" viewBox="0 0 28 28" fill="none" xmlns="http://www.w3.org/2000/svg">
<path d="M10.0413 13.1575C9.49943 13.0046 8.95758 12.9271 8.43049 12.9271C7.61656 12.9271 6.93739 13.1093 6.41076 13.3325C6.91847 11.5116 8.1381 8.36962 10.5677 8.01579C10.7927 7.98301 10.9771 7.82361 11.0385 7.60906L11.5695 5.74835C11.6142 5.59099 11.5877 5.42256 11.4961 5.286C11.4045 5.14944 11.2572 5.05833 11.0922 5.03617C10.9129 5.01221 10.7301 5 10.549 5C7.63271 5 4.74458 7.9821 3.52587 12.252C2.81047 14.7571 2.6007 18.5232 4.36288 20.8938C5.34898 22.2202 6.78762 22.9286 8.63888 22.9993C8.6465 22.9995 8.65388 22.9998 8.6615 22.9998C10.9457 22.9998 12.9712 21.4927 13.5874 19.3351C13.9554 18.0453 13.7891 16.6926 13.1184 15.5253C12.4549 14.3711 11.3622 13.5299 10.0413 13.1575Z" fill="#CECECE"/>
<path d="M24.3394 15.5255C23.6759 14.3711 22.5832 13.5299 21.2623 13.1575C20.7204 13.0046 20.1786 12.9271 19.6517 12.9271C18.8378 12.9271 18.1584 13.1093 17.6317 13.3325C18.1394 11.5116 19.3591 8.36962 21.7889 8.01579C22.0139 7.98301 22.1981 7.82361 22.2597 7.60906L22.7907 5.74835C22.8355 5.59099 22.8089 5.42256 22.7173 5.286C22.6259 5.14944 22.4787 5.05833 22.3134 5.03617C22.1344 5.01221 21.9516 5 21.7702 5C18.8539 5 15.9658 7.9821 14.7469 12.252C14.0317 14.7571 13.8219 18.5232 15.5843 20.8942C16.5702 22.2204 18.0091 22.929 19.8601 22.9995C19.8677 22.9998 19.8751 23 19.8829 23C22.1669 23 24.1926 21.4929 24.8088 19.3353C25.1764 18.0455 25.0098 16.6926 24.3394 15.5255Z" fill="#CECECE"/>
</svg>
