<svg width="25" height="25" viewBox="0 0 25 25" fill="none" xmlns="http://www.w3.org/2000/svg">
<path d="M18.1172 8.5C19.774 8.5 21.1172 7.15685 21.1172 5.5C21.1172 3.84315 19.774 2.5 18.1172 2.5C16.4603 2.5 15.1172 3.84315 15.1172 5.5C15.1172 7.15685 16.4603 8.5 18.1172 8.5Z" stroke="#E8BB6C" stroke-width="1.5" stroke-linecap="round" stroke-linejoin="round"/>
<path d="M6.11719 15.5C7.77404 15.5 9.11719 14.1569 9.11719 12.5C9.11719 10.8431 7.77404 9.5 6.11719 9.5C4.46033 9.5 3.11719 10.8431 3.11719 12.5C3.11719 14.1569 4.46033 15.5 6.11719 15.5Z" stroke="#E8BB6C" stroke-width="1.5" stroke-linecap="round" stroke-linejoin="round"/>
<path d="M18.1172 22.5C19.774 22.5 21.1172 21.1569 21.1172 19.5C21.1172 17.8431 19.774 16.5 18.1172 16.5C16.4603 16.5 15.1172 17.8431 15.1172 19.5C15.1172 21.1569 16.4603 22.5 18.1172 22.5Z" stroke="#E8BB6C" stroke-width="1.5" stroke-linecap="round" stroke-linejoin="round"/>
<path d="M8.70703 14.01L15.537 17.99" stroke="#E8BB6C" stroke-width="1.5" stroke-linecap="round" stroke-linejoin="round"/>
<path d="M15.527 7.01001L8.70703 10.99" stroke="#E8BB6C" stroke-width="1.5" stroke-linecap="round" stroke-linejoin="round"/>
</svg>
