<?xml version="1.0" encoding="utf-8"?><svg xmlns="http://www.w3.org/2000/svg" xmlns:xlink="http://www.w3.org/1999/xlink"><symbol viewBox="0 0 11 19" id="arr-l" xmlns="http://www.w3.org/2000/svg"><path d="M9.3 18.4c-.3 0-.6-.1-.9-.4L.6 10.3C.2 9.7.2 9 .6 8.5L8.4.7c.5-.5 1.3-.5 1.8 0s.5 1.3 0 1.8L3.3 9.4l6.9 6.9c.5.5.5 1.3 0 1.8-.3.1-.6.3-.9.3z"/></symbol><symbol viewBox="0 0 11 19" id="arr-r" xmlns="http://www.w3.org/2000/svg"><path d="M1.7 18.4c-.3 0-.6-.1-.9-.4-.5-.5-.5-1.3 0-1.8l6.9-6.9L.8 2.5C.3 2 .3 1.2.8.7S2.1.2 2.6.7l7.8 7.8c.2.2.4.6.4.9s-.1.6-.4.9L2.6 18c-.2.2-.6.4-.9.4z"/></symbol><symbol viewBox="0 0 56 8" id="arrow" xmlns="http://www.w3.org/2000/svg"><path d="M55.354 4.354a.5.5 0 000-.708L52.172.464a.5.5 0 10-.707.708L54.293 4l-2.828 2.828a.5.5 0 10.707.708l3.182-3.182zM0 4.5h55v-1H0v1z"/></symbol><symbol viewBox="0 0 19 19" id="cabinet" xmlns="http://www.w3.org/2000/svg"><path d="M15.64 11.712a8.965 8.965 0 00-3.42-2.145 5.201 5.201 0 002.26-4.288A5.209 5.209 0 009.277.076a5.209 5.209 0 00-5.203 5.203c0 1.777.895 3.348 2.259 4.288a8.966 8.966 0 00-3.42 2.145 8.941 8.941 0 00-2.636 6.364h1.406c0-4.188 3.407-7.594 7.594-7.594s7.594 3.407 7.594 7.594h1.406a8.941 8.941 0 00-2.636-6.364zM9.278 9.076A3.801 3.801 0 015.48 5.279a3.801 3.801 0 013.797-3.797 3.801 3.801 0 013.797 3.797 3.801 3.801 0 01-3.797 3.797z"/></symbol><symbol viewBox="0 0 22 16" id="callback" xmlns="http://www.w3.org/2000/svg"><path fill-rule="evenodd" clip-rule="evenodd" d="M11 8.8C9.211 8.8 0 2.313 0 2.313V1.6C0 .717.82 0 1.833 0h18.333C21.18 0 22 .717 22 1.6l-.015.8S12.874 8.8 11 8.8zm0 2.2c1.96 0 10.985-6.2 10.985-6.2L22 14.4c0 .883-.82 1.6-1.834 1.6H1.833C.82 16 0 15.283 0 14.4l.015-9.6C.014 4.8 9.212 11 11 11z"/></symbol><symbol viewBox="0 0 22 22" id="cart" xmlns="http://www.w3.org/2000/svg"><path fill-rule="evenodd" clip-rule="evenodd" d="M6.6 17.6c-1.21 0-2.2.99-2.2 2.2 0 1.21.99 2.2 2.2 2.2 1.21 0 2.2-.99 2.2-2.2 0-1.21-.99-2.2-2.2-2.2zM0 0v2.2h2.2l3.96 8.36-1.54 2.64c-.11.33-.22.77-.22 1.1 0 1.21.99 2.2 2.2 2.2h13.2v-2.2H7.04c-.11 0-.22-.11-.22-.22v-.11l.99-1.87h8.14c.88 0 1.54-.44 1.87-1.1l3.96-7.15c.22-.22.22-.33.22-.55 0-.66-.44-1.1-1.1-1.1H4.62L3.63 0H0zm17.6 17.6c-1.21 0-2.2.99-2.2 2.2 0 1.21.99 2.2 2.2 2.2 1.21 0 2.2-.99 2.2-2.2 0-1.21-.99-2.2-2.2-2.2z"/></symbol><symbol viewBox="0 0 28 28" id="compare" xmlns="http://www.w3.org/2000/svg"><path d="M18.818 3.818h5v20h-5zm-7.5 5h5v15h-5zm-7.5 3.749h5v11.25h-5z"/></symbol><symbol viewBox="0 0 16 14" id="email" xmlns="http://www.w3.org/2000/svg"><path d="M14.594.95H1.406C.632.95 0 1.58 0 2.354v9.375c0 .773.629 1.407 1.406 1.407h13.188A1.41 1.41 0 0016 11.729V2.355C16 1.583 15.371.95 14.594.95zm-.194.937l-6.37 6.37-6.425-6.37H14.4zM.937 11.537V2.544L5.452 7.02.938 11.535zm.663.662l4.518-4.518 1.583 1.57a.469.469 0 00.662-.002l1.543-1.543 4.494 4.493H1.6zm13.463-.663l-4.494-4.493 4.493-4.493v8.986z"/></symbol><symbol viewBox="0 0 30 29" id="fb" xmlns="http://www.w3.org/2000/svg"><g clip-path="url(#iclip0)"><path fill-rule="evenodd" clip-rule="evenodd" d="M15.187 29c8.008 0 14.5-6.492 14.5-14.5S23.195 0 15.187 0 .687 6.492.687 14.5 7.18 29 15.187 29zm0-1.74c7.048 0 12.76-5.713 12.76-12.76S22.235 1.74 15.187 1.74c-7.047 0-12.76 5.713-12.76 12.76s5.713 12.76 12.76 12.76zm1.053-6.38V14.5h1.887l.25-2.2H16.24l.003-1.1c0-.574.058-.88.941-.88h1.18v-2.2h-1.888c-2.267 0-3.065 1.067-3.065 2.86v1.32h-1.414v2.2h1.414v6.38h2.829z" fill-opacity=".8"/></g><defs><clipPath id="iclip0"><path d="M.687 0h29v29h-29z"/></clipPath></defs></symbol><symbol viewBox="0 0 20 18" id="heart" xmlns="http://www.w3.org/2000/svg"><path d="M18.384 1.671A5.426 5.426 0 0014.471.013c-1.48 0-2.87.59-3.918 1.662l-.547.56-.555-.568A5.454 5.454 0 005.529 0c-1.476 0-2.866.59-3.91 1.658A5.68 5.68 0 000 5.668c0 1.516.58 2.935 1.628 4.007l7.963 8.151a.57.57 0 00.403.174.564.564 0 00.402-.17l7.98-8.138A5.703 5.703 0 0020 5.682a5.677 5.677 0 00-1.616-4.01z"/></symbol><symbol id="inst" viewBox="0 0 30 29" xml:space="preserve" xmlns="http://www.w3.org/2000/svg"><style>.kst3{fill:#fff;fill-opacity:.8}</style><path d="M15 28.9C7.1 28.9.6 22.5.6 14.5S7.1.1 15 .1s14.4 6.4 14.4 14.4S22.9 28.9 15 28.9zm0-26.8C8.2 2.1 2.6 7.7 2.6 14.5S8.2 26.9 15 26.9s12.4-5.5 12.4-12.4S21.8 2.1 15 2.1z" opacity=".8"/><defs><path id="kSVGID_1_" d="M8.8 8.3h12.3v12.3H8.8z"/></defs><clipPath id="kSVGID_2_"><use xlink:href="#kSVGID_1_" overflow="visible"/></clipPath><g clip-path="url(#kSVGID_2_)"><path class="kst3" d="M17.8 8.3h-5.6c-1.8 0-3.3 1.5-3.3 3.3v5.6c0 1.8 1.5 3.3 3.3 3.3h5.6c1.8 0 3.3-1.5 3.3-3.3v-5.6c.1-1.8-1.4-3.3-3.3-3.3zM15 17.9c-1.9 0-3.4-1.5-3.4-3.4s1.5-3.4 3.4-3.4 3.4 1.5 3.4 3.4-1.5 3.4-3.4 3.4zm3.4-6c-.5 0-1-.4-1-1s.4-1 1-1 1 .4 1 1-.4 1-1 1z"/><path class="kst3" d="M15 12.4c-1.1 0-2.1.9-2.1 2.1 0 1.1.9 2.1 2.1 2.1 1.1 0 2.1-.9 2.1-2.1 0-1.1-1-2.1-2.1-2.1zm3.4-1.7c-.2 0-.3.1-.3.3 0 .2.1.3.3.3.2 0 .3-.1.3-.3 0-.2-.1-.3-.3-.3z"/></g></symbol><symbol viewBox="0 0 42 35" id="logo" xmlns="http://www.w3.org/2000/svg"><path d="M33.19 1.154L16.484 17.638 8.242 9.396 16.706.71l16.484.445z"/><path d="M24.948 25.88L8.242 9.396 0 17.638l16.707 16.484 8.241-8.242zM33.19 17.638L16.707 34.122H33.19l8.242-8.242-8.242-8.242zM33.413 17.638l-8.19-8.628 7.967-7.856 8.465 8.02-8.242 8.464z"/></symbol><symbol viewBox="0 0 20 19" id="magnifier" xmlns="http://www.w3.org/2000/svg"><path d="M8.4 15.2C4.2 15.2.8 11.8.8 7.6.8 3.4 4.2 0 8.4 0 12.6 0 16 3.4 16 7.6c0 4.2-3.4 7.6-7.6 7.6zm0-13.7C5 1.5 2.3 4.2 2.3 7.6c0 3.4 2.7 6.1 6.1 6.1 3.3 0 6.1-2.7 6.1-6.1 0-3.4-2.7-6.1-6.1-6.1zm5.553 13.147l1.063-1.058 4.022 4.039-1.063 1.058z"/></symbol><symbol id="pin" viewBox="0 0 14 19" xml:space="preserve" xmlns="http://www.w3.org/2000/svg"><style>.nst0{fill:#f0ac0d}</style><path class="nst0" d="M7 0C3.5 0 .7 2.9.7 6.4c0 1.2.3 2.3.9 3.3l5 8.1c.1.1.3.2.5.2s.4-.1.4-.3l4.9-8.2c.6-1 .9-2.1.9-3.2C13.3 2.9 10.5 0 7 0zm4.5 9.1L7 16.5 2.5 9.1c-.5-.8-.8-1.7-.8-2.7 0-2.9 2.4-5.3 5.3-5.3s5.3 2.4 5.3 5.3c0 .9-.3 1.9-.8 2.7z"/><path class="nst0" d="M7 10c-1.9 0-3.4-1.5-3.4-3.4S5.1 3.1 7 3.1s3.4 1.5 3.4 3.4S8.9 10 7 10zm0-5.9c-1.3 0-2.4 1.1-2.4 2.4C4.6 7.9 5.7 9 7 9c1.3 0 2.4-1.1 2.4-2.4 0-1.4-1.1-2.5-2.4-2.5z"/></symbol><symbol viewBox="0 0 28 28" id="review" xmlns="http://www.w3.org/2000/svg"><path d="M10.041 13.158a5.94 5.94 0 00-1.61-.23 5.15 5.15 0 00-2.02.404c.507-1.82 1.727-4.962 4.157-5.316a.574.574 0 00.47-.407l.531-1.86a.556.556 0 00-.073-.463.579.579 0 00-.404-.25A4.116 4.116 0 0010.55 5c-2.916 0-5.804 2.982-7.023 7.252-.716 2.505-.925 6.271.837 8.642.986 1.326 2.425 2.035 4.276 2.105h.023c2.284 0 4.31-1.506 4.925-3.664a4.892 4.892 0 00-.469-3.81c-.663-1.154-1.756-1.995-3.077-2.367zm14.299 2.367c-.664-1.154-1.757-1.995-3.078-2.367a5.939 5.939 0 00-1.61-.23c-.814 0-1.494.181-2.02.404.507-1.82 1.727-4.962 4.157-5.316a.574.574 0 00.47-.407l.532-1.86a.555.555 0 00-.074-.463.578.578 0 00-.404-.25A4.11 4.11 0 0021.77 5c-2.916 0-5.804 2.982-7.023 7.252-.715 2.505-.925 6.271.837 8.642C16.57 22.22 18.01 22.93 19.86 23a.57.57 0 00.023 0c2.284 0 4.31-1.507 4.926-3.665a4.895 4.895 0 00-.47-3.81z"/></symbol><symbol viewBox="0 0 0 0" id="sprite" xmlns="http://www.w3.org/2000/svg"><symbol viewBox="0 0 11 19" id="parr-l" xmlns="http://www.w3.org/2000/svg"><path d="M9.3 18.4c-.3 0-.6-.1-.9-.4L.6 10.3C.2 9.7.2 9 .6 8.5L8.4.7c.5-.5 1.3-.5 1.8 0s.5 1.3 0 1.8L3.3 9.4l6.9 6.9c.5.5.5 1.3 0 1.8-.3.1-.6.3-.9.3z"/></symbol><symbol viewBox="0 0 11 19" id="parr-r" xmlns="http://www.w3.org/2000/svg"><path d="M1.7 18.4c-.3 0-.6-.1-.9-.4-.5-.5-.5-1.3 0-1.8l6.9-6.9L.8 2.5C.3 2 .3 1.2.8.7S2.1.2 2.6.7l7.8 7.8c.2.2.4.6.4.9s-.1.6-.4.9L2.6 18c-.2.2-.6.4-.9.4z"/></symbol><symbol viewBox="0 0 19 19" id="pcabinet" xmlns="http://www.w3.org/2000/svg"><path d="M15.64 11.712a8.965 8.965 0 00-3.42-2.145 5.201 5.201 0 002.26-4.288A5.209 5.209 0 009.277.076a5.209 5.209 0 00-5.203 5.203c0 1.777.895 3.348 2.259 4.288a8.966 8.966 0 00-3.42 2.145 8.941 8.941 0 00-2.636 6.364h1.406c0-4.188 3.407-7.594 7.594-7.594s7.594 3.407 7.594 7.594h1.406a8.941 8.941 0 00-2.636-6.364zM9.278 9.076A3.801 3.801 0 015.48 5.279a3.801 3.801 0 013.797-3.797 3.801 3.801 0 013.797 3.797 3.801 3.801 0 01-3.797 3.797z"/></symbol><symbol viewBox="0 0 22 16" id="pcallback" xmlns="http://www.w3.org/2000/svg"><path fill-rule="evenodd" clip-rule="evenodd" d="M11 8.8C9.211 8.8 0 2.313 0 2.313V1.6C0 .717.82 0 1.833 0h18.333C21.18 0 22 .717 22 1.6l-.015.8S12.874 8.8 11 8.8zm0 2.2c1.96 0 10.985-6.2 10.985-6.2L22 14.4c0 .883-.82 1.6-1.834 1.6H1.833C.82 16 0 15.283 0 14.4l.015-9.6C.014 4.8 9.212 11 11 11z"/></symbol><symbol viewBox="0 0 22 22" id="pcart" xmlns="http://www.w3.org/2000/svg"><path fill-rule="evenodd" clip-rule="evenodd" d="M6.6 17.6c-1.21 0-2.2.99-2.2 2.2 0 1.21.99 2.2 2.2 2.2 1.21 0 2.2-.99 2.2-2.2 0-1.21-.99-2.2-2.2-2.2zM0 0v2.2h2.2l3.96 8.36-1.54 2.64c-.11.33-.22.77-.22 1.1 0 1.21.99 2.2 2.2 2.2h13.2v-2.2H7.04c-.11 0-.22-.11-.22-.22v-.11l.99-1.87h8.14c.88 0 1.54-.44 1.87-1.1l3.96-7.15c.22-.22.22-.33.22-.55 0-.66-.44-1.1-1.1-1.1H4.62L3.63 0H0zm17.6 17.6c-1.21 0-2.2.99-2.2 2.2 0 1.21.99 2.2 2.2 2.2 1.21 0 2.2-.99 2.2-2.2 0-1.21-.99-2.2-2.2-2.2z"/></symbol><symbol viewBox="0 0 28 28" id="pcompare" xmlns="http://www.w3.org/2000/svg"><path d="M18.818 3.818h5v20h-5zm-7.5 5h5v15h-5zm-7.5 3.749h5v11.25h-5z"/></symbol><symbol viewBox="0 0 16 14" id="pemail" xmlns="http://www.w3.org/2000/svg"><path d="M14.594.95H1.406C.632.95 0 1.58 0 2.354v9.375c0 .773.629 1.407 1.406 1.407h13.188A1.41 1.41 0 0016 11.729V2.355C16 1.583 15.371.95 14.594.95zm-.194.937l-6.37 6.37-6.425-6.37H14.4zM.937 11.537V2.544L5.452 7.02.938 11.535zm.663.662l4.518-4.518 1.583 1.57a.469.469 0 00.662-.002l1.543-1.543 4.494 4.493H1.6zm13.463-.663l-4.494-4.493 4.493-4.493v8.986z"/></symbol><symbol viewBox="0 0 30 29" id="pfb" xmlns="http://www.w3.org/2000/svg"><g clip-path="url(#phclip0)"><path fill-rule="evenodd" clip-rule="evenodd" d="M15.187 29c8.008 0 14.5-6.492 14.5-14.5S23.195 0 15.187 0 .687 6.492.687 14.5 7.18 29 15.187 29zm0-1.74c7.048 0 12.76-5.713 12.76-12.76S22.235 1.74 15.187 1.74c-7.047 0-12.76 5.713-12.76 12.76s5.713 12.76 12.76 12.76zm1.053-6.38V14.5h1.887l.25-2.2H16.24l.003-1.1c0-.574.058-.88.941-.88h1.18v-2.2h-1.888c-2.267 0-3.065 1.067-3.065 2.86v1.32h-1.414v2.2h1.414v6.38h2.829z" fill-opacity=".8"/></g><defs><clipPath id="phclip0"><path d="M.687 0h29v29h-29z"/></clipPath></defs></symbol><symbol viewBox="0 0 20 18" id="pheart" xmlns="http://www.w3.org/2000/svg"><path d="M18.384 1.671A5.426 5.426 0 0014.471.013c-1.48 0-2.87.59-3.918 1.662l-.547.56-.555-.568A5.454 5.454 0 005.529 0c-1.476 0-2.866.59-3.91 1.658A5.68 5.68 0 000 5.668c0 1.516.58 2.935 1.628 4.007l7.963 8.151a.57.57 0 00.403.174.564.564 0 00.402-.17l7.98-8.138A5.703 5.703 0 0020 5.682a5.677 5.677 0 00-1.616-4.01z"/></symbol><symbol id="pinst" viewBox="0 0 30 29" xml:space="preserve" xmlns="http://www.w3.org/2000/svg"><style>.pjst3{fill:#fff;fill-opacity:.8}</style><path d="M15 28.9C7.1 28.9.6 22.5.6 14.5S7.1.1 15 .1s14.4 6.4 14.4 14.4S22.9 28.9 15 28.9zm0-26.8C8.2 2.1 2.6 7.7 2.6 14.5S8.2 26.9 15 26.9s12.4-5.5 12.4-12.4S21.8 2.1 15 2.1z" opacity=".8"/><defs><path id="pjSVGID_1_" d="M8.8 8.3h12.3v12.3H8.8z"/></defs><clipPath id="pjSVGID_2_"><use xlink:href="#pjSVGID_1_" overflow="visible"/></clipPath><g clip-path="url(#pjSVGID_2_)"><path class="pjst3" d="M17.8 8.3h-5.6c-1.8 0-3.3 1.5-3.3 3.3v5.6c0 1.8 1.5 3.3 3.3 3.3h5.6c1.8 0 3.3-1.5 3.3-3.3v-5.6c.1-1.8-1.4-3.3-3.3-3.3zM15 17.9c-1.9 0-3.4-1.5-3.4-3.4s1.5-3.4 3.4-3.4 3.4 1.5 3.4 3.4-1.5 3.4-3.4 3.4zm3.4-6c-.5 0-1-.4-1-1s.4-1 1-1 1 .4 1 1-.4 1-1 1z"/><path class="pjst3" d="M15 12.4c-1.1 0-2.1.9-2.1 2.1 0 1.1.9 2.1 2.1 2.1 1.1 0 2.1-.9 2.1-2.1 0-1.1-1-2.1-2.1-2.1zm3.4-1.7c-.2 0-.3.1-.3.3 0 .2.1.3.3.3.2 0 .3-.1.3-.3 0-.2-.1-.3-.3-.3z"/></g></symbol><symbol viewBox="0 0 42 35" id="plogo" xmlns="http://www.w3.org/2000/svg"><path d="M33.19 1.154L16.484 17.638 8.242 9.396 16.706.71l16.484.445z"/><path d="M24.948 25.88L8.242 9.396 0 17.638l16.707 16.484 8.241-8.242zm8.242-8.242L16.707 34.122H33.19l8.242-8.242-8.242-8.242zm.223 0l-8.19-8.628 7.967-7.856 8.465 8.02-8.242 8.464z"/></symbol><symbol viewBox="0 0 20 19" id="pmagnifier" xmlns="http://www.w3.org/2000/svg"><path d="M8.4 15.2C4.2 15.2.8 11.8.8 7.6.8 3.4 4.2 0 8.4 0 12.6 0 16 3.4 16 7.6c0 4.2-3.4 7.6-7.6 7.6zm0-13.7C5 1.5 2.3 4.2 2.3 7.6c0 3.4 2.7 6.1 6.1 6.1 3.3 0 6.1-2.7 6.1-6.1 0-3.4-2.7-6.1-6.1-6.1zm5.553 13.147l1.063-1.058 4.022 4.039-1.063 1.058z"/></symbol><symbol id="ppin" viewBox="0 0 14 19" xml:space="preserve" xmlns="http://www.w3.org/2000/svg"><style>.pmst0{fill:#f0ac0d}</style><path class="pmst0" d="M7 0C3.5 0 .7 2.9.7 6.4c0 1.2.3 2.3.9 3.3l5 8.1c.1.1.3.2.5.2s.4-.1.4-.3l4.9-8.2c.6-1 .9-2.1.9-3.2C13.3 2.9 10.5 0 7 0zm4.5 9.1L7 16.5 2.5 9.1c-.5-.8-.8-1.7-.8-2.7 0-2.9 2.4-5.3 5.3-5.3s5.3 2.4 5.3 5.3c0 .9-.3 1.9-.8 2.7z"/><path class="pmst0" d="M7 10c-1.9 0-3.4-1.5-3.4-3.4S5.1 3.1 7 3.1s3.4 1.5 3.4 3.4S8.9 10 7 10zm0-5.9c-1.3 0-2.4 1.1-2.4 2.4C4.6 7.9 5.7 9 7 9c1.3 0 2.4-1.1 2.4-2.4 0-1.4-1.1-2.5-2.4-2.5z"/></symbol><symbol viewBox="0 0 28 28" id="preview" xmlns="http://www.w3.org/2000/svg"><path d="M10.041 13.158a5.94 5.94 0 00-1.61-.23 5.15 5.15 0 00-2.02.404c.507-1.82 1.727-4.962 4.157-5.316a.574.574 0 00.47-.407l.531-1.86a.556.556 0 00-.073-.463.579.579 0 00-.404-.25A4.116 4.116 0 0010.55 5c-2.916 0-5.804 2.982-7.023 7.252-.716 2.505-.925 6.271.837 8.642.986 1.326 2.425 2.035 4.276 2.105h.023c2.284 0 4.31-1.506 4.925-3.664a4.892 4.892 0 00-.469-3.81c-.663-1.154-1.756-1.995-3.077-2.367zm14.299 2.367c-.664-1.154-1.757-1.995-3.078-2.367a5.939 5.939 0 00-1.61-.23c-.814 0-1.494.181-2.02.404.507-1.82 1.727-4.962 4.157-5.316a.574.574 0 00.47-.407l.532-1.86a.555.555 0 00-.074-.463.578.578 0 00-.404-.25A4.11 4.11 0 0021.77 5c-2.916 0-5.804 2.982-7.023 7.252-.715 2.505-.925 6.271.837 8.642C16.57 22.22 18.01 22.93 19.86 23a.57.57 0 00.023 0c2.284 0 4.31-1.507 4.926-3.665a4.895 4.895 0 00-.47-3.81z"/></symbol><symbol viewBox="0 0 0 0" id="psprite" xmlns="http://www.w3.org/2000/svg"><symbol viewBox="0 0 11 19" id="poarr-l"><path d="M9.3 18.4c-.3 0-.6-.1-.9-.4L.6 10.3C.2 9.7.2 9 .6 8.5L8.4.7c.5-.5 1.3-.5 1.8 0s.5 1.3 0 1.8L3.3 9.4l6.9 6.9c.5.5.5 1.3 0 1.8-.3.1-.6.3-.9.3z"/></symbol><symbol viewBox="0 0 11 19" id="poarr-r"><path d="M1.7 18.4c-.3 0-.6-.1-.9-.4-.5-.5-.5-1.3 0-1.8l6.9-6.9L.8 2.5C.3 2 .3 1.2.8.7S2.1.2 2.6.7l7.8 7.8c.2.2.4.6.4.9s-.1.6-.4.9L2.6 18c-.2.2-.6.4-.9.4z"/></symbol><symbol viewBox="0 0 19 19" id="pocabinet"><path d="M15.64 11.712a8.965 8.965 0 00-3.42-2.145 5.201 5.201 0 002.26-4.288A5.209 5.209 0 009.277.076a5.209 5.209 0 00-5.203 5.203c0 1.777.895 3.348 2.259 4.288a8.966 8.966 0 00-3.42 2.145 8.941 8.941 0 00-2.636 6.364h1.406c0-4.188 3.407-7.594 7.594-7.594s7.594 3.407 7.594 7.594h1.406a8.941 8.941 0 00-2.636-6.364zM9.278 9.076A3.801 3.801 0 015.48 5.279a3.801 3.801 0 013.797-3.797 3.801 3.801 0 013.797 3.797 3.801 3.801 0 01-3.797 3.797z"/></symbol><symbol viewBox="0 0 22 16" id="pocallback"><path fill-rule="evenodd" clip-rule="evenodd" d="M11 8.8C9.211 8.8 0 2.313 0 2.313V1.6C0 .717.82 0 1.833 0h18.333C21.18 0 22 .717 22 1.6l-.015.8S12.874 8.8 11 8.8zm0 2.2c1.96 0 10.985-6.2 10.985-6.2L22 14.4c0 .883-.82 1.6-1.834 1.6H1.833C.82 16 0 15.283 0 14.4l.015-9.6C.014 4.8 9.212 11 11 11z"/></symbol><symbol viewBox="0 0 22 22" id="pocart"><path fill-rule="evenodd" clip-rule="evenodd" d="M6.6 17.6c-1.21 0-2.2.99-2.2 2.2 0 1.21.99 2.2 2.2 2.2 1.21 0 2.2-.99 2.2-2.2 0-1.21-.99-2.2-2.2-2.2zM0 0v2.2h2.2l3.96 8.36-1.54 2.64c-.11.33-.22.77-.22 1.1 0 1.21.99 2.2 2.2 2.2h13.2v-2.2H7.04c-.11 0-.22-.11-.22-.22v-.11l.99-1.87h8.14c.88 0 1.54-.44 1.87-1.1l3.96-7.15c.22-.22.22-.33.22-.55 0-.66-.44-1.1-1.1-1.1H4.62L3.63 0H0zm17.6 17.6c-1.21 0-2.2.99-2.2 2.2 0 1.21.99 2.2 2.2 2.2 1.21 0 2.2-.99 2.2-2.2 0-1.21-.99-2.2-2.2-2.2z"/></symbol><symbol viewBox="0 0 28 28" id="pocompare"><path d="M18.818 3.818h5v20h-5zm-7.5 5h5v15h-5zm-7.5 3.749h5v11.25h-5z"/></symbol><symbol viewBox="0 0 16 14" id="poemail"><path d="M14.594.95H1.406C.632.95 0 1.58 0 2.354v9.375c0 .773.629 1.407 1.406 1.407h13.188A1.41 1.41 0 0016 11.729V2.355C16 1.583 15.371.95 14.594.95zm-.194.937l-6.37 6.37-6.425-6.37H14.4zM.937 11.537V2.544L5.452 7.02.938 11.535zm.663.662l4.518-4.518 1.583 1.57a.469.469 0 00.662-.002l1.543-1.543 4.494 4.493H1.6zm13.463-.663l-4.494-4.493 4.493-4.493v8.986z"/></symbol><symbol viewBox="0 0 30 29" id="pofb"><g clip-path="url(#pohclip0)"><path fill-rule="evenodd" clip-rule="evenodd" d="M15.187 29c8.008 0 14.5-6.492 14.5-14.5S23.195 0 15.187 0 .687 6.492.687 14.5 7.18 29 15.187 29zm0-1.74c7.048 0 12.76-5.713 12.76-12.76S22.235 1.74 15.187 1.74c-7.047 0-12.76 5.713-12.76 12.76s5.713 12.76 12.76 12.76zm1.053-6.38V14.5h1.887l.25-2.2H16.24l.003-1.1c0-.574.058-.88.941-.88h1.18v-2.2h-1.888c-2.267 0-3.065 1.067-3.065 2.86v1.32h-1.414v2.2h1.414v6.38h2.829z" fill-opacity=".8"/></g><defs><clipPath id="pohclip0"><path d="M.687 0h29v29h-29z"/></clipPath></defs></symbol><symbol viewBox="0 0 20 18" id="poheart"><path d="M18.384 1.671A5.426 5.426 0 0014.471.013c-1.48 0-2.87.59-3.918 1.662l-.547.56-.555-.568A5.454 5.454 0 005.529 0c-1.476 0-2.866.59-3.91 1.658A5.68 5.68 0 000 5.668c0 1.516.58 2.935 1.628 4.007l7.963 8.151a.57.57 0 00.403.174.564.564 0 00.402-.17l7.98-8.138A5.703 5.703 0 0020 5.682a5.677 5.677 0 00-1.616-4.01z"/></symbol><symbol id="poinst" viewBox="0 0 30 29" xml:space="preserve"><style>.pojst3{fill:#fff;fill-opacity:.8}</style><path d="M15 28.9C7.1 28.9.6 22.5.6 14.5S7.1.1 15 .1s14.4 6.4 14.4 14.4S22.9 28.9 15 28.9zm0-26.8C8.2 2.1 2.6 7.7 2.6 14.5S8.2 26.9 15 26.9s12.4-5.5 12.4-12.4S21.8 2.1 15 2.1z" opacity=".8"/><defs><path id="pojSVGID_1_" d="M8.8 8.3h12.3v12.3H8.8z"/></defs><clipPath id="pojSVGID_2_"><use xlink:href="#pojSVGID_1_" overflow="visible"/></clipPath><g clip-path="url(#pojSVGID_2_)"><path class="pojst3" d="M17.8 8.3h-5.6c-1.8 0-3.3 1.5-3.3 3.3v5.6c0 1.8 1.5 3.3 3.3 3.3h5.6c1.8 0 3.3-1.5 3.3-3.3v-5.6c.1-1.8-1.4-3.3-3.3-3.3zM15 17.9c-1.9 0-3.4-1.5-3.4-3.4s1.5-3.4 3.4-3.4 3.4 1.5 3.4 3.4-1.5 3.4-3.4 3.4zm3.4-6c-.5 0-1-.4-1-1s.4-1 1-1 1 .4 1 1-.4 1-1 1z"/><path class="pojst3" d="M15 12.4c-1.1 0-2.1.9-2.1 2.1 0 1.1.9 2.1 2.1 2.1 1.1 0 2.1-.9 2.1-2.1 0-1.1-1-2.1-2.1-2.1zm3.4-1.7c-.2 0-.3.1-.3.3 0 .2.1.3.3.3.2 0 .3-.1.3-.3 0-.2-.1-.3-.3-.3z"/></g></symbol><symbol viewBox="0 0 42 35" id="pologo"><path d="M33.19 1.154L16.484 17.638 8.242 9.396 16.706.71l16.484.445z"/><path d="M24.948 25.88L8.242 9.396 0 17.638l16.707 16.484 8.241-8.242zm8.242-8.242L16.707 34.122H33.19l8.242-8.242-8.242-8.242zm.223 0l-8.19-8.628 7.967-7.856 8.465 8.02-8.242 8.464z"/></symbol><symbol viewBox="0 0 20 19" id="pomagnifier"><path d="M8.4 15.2C4.2 15.2.8 11.8.8 7.6.8 3.4 4.2 0 8.4 0 12.6 0 16 3.4 16 7.6c0 4.2-3.4 7.6-7.6 7.6zm0-13.7C5 1.5 2.3 4.2 2.3 7.6c0 3.4 2.7 6.1 6.1 6.1 3.3 0 6.1-2.7 6.1-6.1 0-3.4-2.7-6.1-6.1-6.1zm5.553 13.147l1.063-1.058 4.022 4.039-1.063 1.058z"/></symbol><symbol id="popin" viewBox="0 0 14 19" xml:space="preserve"><style>.pomst0{fill:#f0ac0d}</style><path class="pomst0" d="M7 0C3.5 0 .7 2.9.7 6.4c0 1.2.3 2.3.9 3.3l5 8.1c.1.1.3.2.5.2s.4-.1.4-.3l4.9-8.2c.6-1 .9-2.1.9-3.2C13.3 2.9 10.5 0 7 0zm4.5 9.1L7 16.5 2.5 9.1c-.5-.8-.8-1.7-.8-2.7 0-2.9 2.4-5.3 5.3-5.3s5.3 2.4 5.3 5.3c0 .9-.3 1.9-.8 2.7z"/><path class="pomst0" d="M7 10c-1.9 0-3.4-1.5-3.4-3.4S5.1 3.1 7 3.1s3.4 1.5 3.4 3.4S8.9 10 7 10zm0-5.9c-1.3 0-2.4 1.1-2.4 2.4C4.6 7.9 5.7 9 7 9c1.3 0 2.4-1.1 2.4-2.4 0-1.4-1.1-2.5-2.4-2.5z"/></symbol><symbol viewBox="0 0 28 28" id="poreview"><path d="M10.041 13.158a5.94 5.94 0 00-1.61-.23 5.15 5.15 0 00-2.02.404c.507-1.82 1.727-4.962 4.157-5.316a.574.574 0 00.47-.407l.531-1.86a.556.556 0 00-.073-.463.579.579 0 00-.404-.25A4.116 4.116 0 0010.55 5c-2.916 0-5.804 2.982-7.023 7.252-.716 2.505-.925 6.271.837 8.642.986 1.326 2.425 2.035 4.276 2.105h.023c2.284 0 4.31-1.506 4.925-3.664a4.892 4.892 0 00-.469-3.81c-.663-1.154-1.756-1.995-3.077-2.367zm14.299 2.367c-.664-1.154-1.757-1.995-3.078-2.367a5.939 5.939 0 00-1.61-.23c-.814 0-1.494.181-2.02.404.507-1.82 1.727-4.962 4.157-5.316a.574.574 0 00.47-.407l.532-1.86a.555.555 0 00-.074-.463.578.578 0 00-.404-.25A4.11 4.11 0 0021.77 5c-2.916 0-5.804 2.982-7.023 7.252-.715 2.505-.925 6.271.837 8.642C16.57 22.22 18.01 22.93 19.86 23a.57.57 0 00.023 0c2.284 0 4.31-1.507 4.926-3.665a4.895 4.895 0 00-.47-3.81z"/></symbol><symbol viewBox="0 0 13 20" id="potel"><path d="M12.464 17.035a.932.932 0 01-.459 1.23l-.798.373a4.388 4.388 0 01-.936.308 4.695 4.695 0 01-2.47-.16 5.79 5.79 0 01-1.438-.733A7.309 7.309 0 015.074 16.9a8.936 8.936 0 01-1.077-1.51 18.536 18.536 0 01-.638-1.054 40.398 40.398 0 01-.647-1.208 25.02 25.02 0 01-.735-1.561A19.995 19.995 0 011.032 9a6.912 6.912 0 01-.196-.85 9.034 9.034 0 01-.379-2.594c0-.555.056-1.09.167-1.603a5.69 5.69 0 01.513-1.433c.23-.442.522-.837.876-1.185A4.307 4.307 0 013.27.485l.788-.363A.943.943 0 014.43.043c.175 0 .339.048.49.146a.896.896 0 01.34.403l1.515 3.44a.947.947 0 01-.062.883.878.878 0 01-.4.35l-1.557.716a1.043 1.043 0 00-.473.416 1.13 1.13 0 00-.165.592c0 .16.03.312.09.453l2.558 5.84c.1.225.238.39.415.496a1.081 1.081 0 001.01.062l1.558-.716a.891.891 0 01.858.066.92.92 0 01.345.4l1.512 3.445z"/></symbol><symbol viewBox="0 0 15 15" id="potime"><path d="M7.5 0C3.365 0 0 3.365 0 7.5S3.365 15 7.5 15 15 11.635 15 7.5 11.635 0 7.5 0zm0 14.063A6.57 6.57 0 01.938 7.5 6.57 6.57 0 017.5.938 6.57 6.57 0 0114.063 7.5 6.57 6.57 0 017.5 14.063z"/><path d="M7.969 2.813H7.03v4.881l2.95 2.95.663-.663-2.675-2.675V2.812z"/></symbol><symbol viewBox="0 0 30 29" id="povk"><defs><path id="poqa" d="M.5 0h29v29H.5z"/></defs><clipPath id="poqb"><use xlink:href="#poqa" overflow="visible"/></clipPath><path d="M5.9 11.7c.2.5.4 1 .7 1.5.6 1.1 1.2 2.3 2 3.3s1.8 2 2.9 2.7c.3.2.6.3 1 .5 1.3.5 2.8.4 3.2.1.5-.3-.1-2.3.3-2.5.4-.2 1.1.3 1.7.8l1.2 1.2c.2.2.3.4.6.6.4.2.9.2 1.4.2h1.3c.3 0 .6-.1.6-.5 0-.1 0-.2-.1-.3-.1-.2-.2-.3-.3-.5-.6-.7-.9-1.1-1.2-1.4-.3-.3-1.4-1.4-1.5-1.6-.1-.2-.1-.3.1-.6s.7-1 1-1.5c.2-.3.4-.7.6-1 .2-.4.5-.8.7-1.3.1-.2.2-.4.1-.6 0-.1-.1-.3-.3-.3h-2.3c-.2 0-.4.2-.5.4-.1.2-.3.4-.4.6-.1.1-.2.3-.3.4-.1.2-.3.5-.4.7-.1.1-.1.2-.2.3-.2.3-1.6 2.1-1.8 2.2 0-.1-.1-.1-.1-.7v-3.8s0-.2-.3-.2H12s-.5 0-.3.5.7.6.7 1.4v3.1s-.1.7-.7.1c-.5-.5-.9-1-1.2-1.6-.4-.6-.7-1.2-.9-1.8-.1-.2-.1-.4-.2-.5-.1-.2-.2-.4-.2-.6-.1-.2-.2-.5-.4-.6-.1-.1-.3 0-.4 0H6.6c-.3 0-.7 0-.8.4 0 .2 0 .5.1.7v.2z" clip-path="url(#poqb)" fill-opacity=".8"/><g opacity=".8" clip-path="url(#poqb)"><path d="M15 29C7 29 .5 22.5.5 14.5S7 0 15 0s14.5 6.5 14.5 14.5S23 29 15 29zm0-27C8.1 2 2.5 7.6 2.5 14.5S8.1 27 15 27s12.5-5.6 12.5-12.5S21.9 2 15 2z"/></g></symbol><symbol viewBox="0 0 30 29" id="poyt"><g clip-path="url(#porclip0)"><path fill-rule="evenodd" clip-rule="evenodd" d="M29.687 14.5c0-8.008-6.492-14.5-14.5-14.5S.687 6.492.687 14.5 7.18 29 15.187 29s14.5-6.492 14.5-14.5zm-1.74 0c0-7.047-5.712-12.76-12.76-12.76-7.047 0-12.76 5.713-12.76 12.76s5.713 12.76 12.76 12.76c7.048 0 12.76-5.713 12.76-12.76zm-5.934 3.344a1.787 1.787 0 01-1.53 1.39c-1.753.196-3.529.197-5.296.196-1.768 0-3.544 0-5.298-.196a1.786 1.786 0 01-1.529-1.39c-.246-1.072-.246-2.24-.246-3.344 0-1.103.003-2.272.25-3.344a1.786 1.786 0 011.528-1.39c1.754-.196 3.53-.197 5.297-.196 1.768 0 3.544 0 5.298.196.74.083 1.356.638 1.529 1.39.246 1.072.245 2.241.245 3.344 0 1.103-.002 2.272-.248 3.344zm-8.099-5.954l3.915 2.26-3.915 2.26v-4.52z" fill-opacity=".8"/></g><defs><clipPath id="porclip0"><path d="M.687 0h29v29h-29z"/></clipPath></defs></symbol></symbol><symbol viewBox="0 0 13 20" id="ptel" xmlns="http://www.w3.org/2000/svg"><path d="M12.464 17.035a.932.932 0 01-.459 1.23l-.798.373a4.388 4.388 0 01-.936.308 4.695 4.695 0 01-2.47-.16 5.79 5.79 0 01-1.438-.733A7.309 7.309 0 015.074 16.9a8.936 8.936 0 01-1.077-1.51 18.536 18.536 0 01-.638-1.054 40.398 40.398 0 01-.647-1.208 25.02 25.02 0 01-.735-1.561A19.995 19.995 0 011.032 9a6.912 6.912 0 01-.196-.85 9.034 9.034 0 01-.379-2.594c0-.555.056-1.09.167-1.603a5.69 5.69 0 01.513-1.433c.23-.442.522-.837.876-1.185A4.307 4.307 0 013.27.485l.788-.363A.943.943 0 014.43.043c.175 0 .339.048.49.146a.896.896 0 01.34.403l1.515 3.44a.947.947 0 01-.062.883.878.878 0 01-.4.35l-1.557.716a1.043 1.043 0 00-.473.416 1.13 1.13 0 00-.165.592c0 .16.03.312.09.453l2.558 5.84c.1.225.238.39.415.496a1.081 1.081 0 001.01.062l1.558-.716a.891.891 0 01.858.066.92.92 0 01.345.4l1.512 3.445z"/></symbol><symbol viewBox="0 0 15 15" id="ptime" xmlns="http://www.w3.org/2000/svg"><path d="M7.5 0C3.365 0 0 3.365 0 7.5S3.365 15 7.5 15 15 11.635 15 7.5 11.635 0 7.5 0zm0 14.063A6.57 6.57 0 01.938 7.5 6.57 6.57 0 017.5.938 6.57 6.57 0 0114.063 7.5 6.57 6.57 0 017.5 14.063z"/><path d="M7.969 2.813H7.03v4.881l2.95 2.95.663-.663-2.675-2.675V2.812z"/></symbol><symbol viewBox="0 0 30 29" id="pvk" xmlns="http://www.w3.org/2000/svg"><defs><path id="pra" d="M.5 0h29v29H.5z"/></defs><clipPath id="prb"><use xlink:href="#pra" overflow="visible"/></clipPath><path d="M5.9 11.7c.2.5.4 1 .7 1.5.6 1.1 1.2 2.3 2 3.3s1.8 2 2.9 2.7c.3.2.6.3 1 .5 1.3.5 2.8.4 3.2.1.5-.3-.1-2.3.3-2.5.4-.2 1.1.3 1.7.8l1.2 1.2c.2.2.3.4.6.6.4.2.9.2 1.4.2h1.3c.3 0 .6-.1.6-.5 0-.1 0-.2-.1-.3-.1-.2-.2-.3-.3-.5-.6-.7-.9-1.1-1.2-1.4-.3-.3-1.4-1.4-1.5-1.6-.1-.2-.1-.3.1-.6s.7-1 1-1.5c.2-.3.4-.7.6-1 .2-.4.5-.8.7-1.3.1-.2.2-.4.1-.6 0-.1-.1-.3-.3-.3h-2.3c-.2 0-.4.2-.5.4-.1.2-.3.4-.4.6-.1.1-.2.3-.3.4-.1.2-.3.5-.4.7-.1.1-.1.2-.2.3-.2.3-1.6 2.1-1.8 2.2 0-.1-.1-.1-.1-.7v-3.8s0-.2-.3-.2H12s-.5 0-.3.5.7.6.7 1.4v3.1s-.1.7-.7.1c-.5-.5-.9-1-1.2-1.6-.4-.6-.7-1.2-.9-1.8-.1-.2-.1-.4-.2-.5-.1-.2-.2-.4-.2-.6-.1-.2-.2-.5-.4-.6-.1-.1-.3 0-.4 0H6.6c-.3 0-.7 0-.8.4 0 .2 0 .5.1.7v.2z" clip-path="url(#prb)" fill-opacity=".8"/><g opacity=".8" clip-path="url(#prb)"><path d="M15 29C7 29 .5 22.5.5 14.5S7 0 15 0s14.5 6.5 14.5 14.5S23 29 15 29zm0-27C8.1 2 2.5 7.6 2.5 14.5S8.1 27 15 27s12.5-5.6 12.5-12.5S21.9 2 15 2z"/></g></symbol><symbol viewBox="0 0 30 29" id="pyt" xmlns="http://www.w3.org/2000/svg"><g clip-path="url(#psclip0)"><path fill-rule="evenodd" clip-rule="evenodd" d="M29.687 14.5c0-8.008-6.492-14.5-14.5-14.5S.687 6.492.687 14.5 7.18 29 15.187 29s14.5-6.492 14.5-14.5zm-1.74 0c0-7.047-5.712-12.76-12.76-12.76-7.047 0-12.76 5.713-12.76 12.76s5.713 12.76 12.76 12.76c7.048 0 12.76-5.713 12.76-12.76zm-5.934 3.344a1.787 1.787 0 01-1.53 1.39c-1.753.196-3.529.197-5.296.196-1.768 0-3.544 0-5.298-.196a1.786 1.786 0 01-1.529-1.39c-.246-1.072-.246-2.24-.246-3.344 0-1.103.003-2.272.25-3.344a1.786 1.786 0 011.528-1.39c1.754-.196 3.53-.197 5.297-.196 1.768 0 3.544 0 5.298.196.74.083 1.356.638 1.529 1.39.246 1.072.245 2.241.245 3.344 0 1.103-.002 2.272-.248 3.344zm-8.099-5.954l3.915 2.26-3.915 2.26v-4.52z" fill-opacity=".8"/></g><defs><clipPath id="psclip0"><path d="M.687 0h29v29h-29z"/></clipPath></defs></symbol></symbol><symbol viewBox="0 0 13 20" id="tel" xmlns="http://www.w3.org/2000/svg"><path d="M12.464 17.035a.932.932 0 01-.459 1.23l-.798.373a4.388 4.388 0 01-.936.308 4.695 4.695 0 01-2.47-.16 5.79 5.79 0 01-1.438-.733A7.309 7.309 0 015.074 16.9a8.936 8.936 0 01-1.077-1.51 18.536 18.536 0 01-.638-1.054 40.398 40.398 0 01-.647-1.208 25.02 25.02 0 01-.735-1.561A19.995 19.995 0 011.032 9a6.912 6.912 0 01-.196-.85 9.034 9.034 0 01-.379-2.594c0-.555.056-1.09.167-1.603a5.69 5.69 0 01.513-1.433c.23-.442.522-.837.876-1.185A4.307 4.307 0 013.27.485l.788-.363A.943.943 0 014.43.043c.175 0 .339.048.49.146a.896.896 0 01.34.403l1.515 3.44a.947.947 0 01-.062.883.878.878 0 01-.4.35l-1.557.716a1.043 1.043 0 00-.473.416 1.13 1.13 0 00-.165.592c0 .16.03.312.09.453l2.558 5.84c.1.225.238.39.415.496a1.081 1.081 0 001.01.062l1.558-.716a.891.891 0 01.858.066.92.92 0 01.345.4l1.512 3.445z"/></symbol><symbol viewBox="0 0 15 15" id="time" xmlns="http://www.w3.org/2000/svg"><path d="M7.5 0C3.365 0 0 3.365 0 7.5S3.365 15 7.5 15 15 11.635 15 7.5 11.635 0 7.5 0zm0 14.063A6.57 6.57 0 01.938 7.5 6.57 6.57 0 017.5.938 6.57 6.57 0 0114.063 7.5 6.57 6.57 0 017.5 14.063z"/><path d="M7.969 2.813H7.03v4.881l2.95 2.95.663-.663-2.675-2.675V2.812z"/></symbol><symbol viewBox="0 0 30 29" id="vk" xmlns="http://www.w3.org/2000/svg"><defs><path id="sa" d="M.5 0h29v29H.5z"/></defs><clipPath id="sb"><use xlink:href="#sa" overflow="visible"/></clipPath><path d="M5.9 11.7c.2.5.4 1 .7 1.5.6 1.1 1.2 2.3 2 3.3s1.8 2 2.9 2.7c.3.2.6.3 1 .5 1.3.5 2.8.4 3.2.1.5-.3-.1-2.3.3-2.5.4-.2 1.1.3 1.7.8l1.2 1.2c.2.2.3.4.6.6.4.2.9.2 1.4.2h1.3c.3 0 .6-.1.6-.5 0-.1 0-.2-.1-.3-.1-.2-.2-.3-.3-.5-.6-.7-.9-1.1-1.2-1.4-.3-.3-1.4-1.4-1.5-1.6-.1-.2-.1-.3.1-.6s.7-1 1-1.5c.2-.3.4-.7.6-1 .2-.4.5-.8.7-1.3.1-.2.2-.4.1-.6 0-.1-.1-.3-.3-.3h-2.3c-.2 0-.4.2-.5.4-.1.2-.3.4-.4.6-.1.1-.2.3-.3.4-.1.2-.3.5-.4.7-.1.1-.1.2-.2.3-.2.3-1.6 2.1-1.8 2.2 0-.1-.1-.1-.1-.7v-3.8s0-.2-.3-.2H12s-.5 0-.3.5.7.6.7 1.4v3.1s-.1.7-.7.1c-.5-.5-.9-1-1.2-1.6-.4-.6-.7-1.2-.9-1.8-.1-.2-.1-.4-.2-.5-.1-.2-.2-.4-.2-.6-.1-.2-.2-.5-.4-.6-.1-.1-.3 0-.4 0H6.6c-.3 0-.7 0-.8.4 0 .2 0 .5.1.7v.2z" clip-path="url(#sb)" fill-opacity=".8"/><g opacity=".8" clip-path="url(#sb)"><path d="M15 29C7 29 .5 22.5.5 14.5S7 0 15 0s14.5 6.5 14.5 14.5S23 29 15 29zm0-27C8.1 2 2.5 7.6 2.5 14.5S8.1 27 15 27s12.5-5.6 12.5-12.5S21.9 2 15 2z"/></g></symbol><symbol viewBox="0 0 30 29" id="yt" xmlns="http://www.w3.org/2000/svg"><g clip-path="url(#tclip0)"><path fill-rule="evenodd" clip-rule="evenodd" d="M29.687 14.5c0-8.008-6.492-14.5-14.5-14.5S.687 6.492.687 14.5 7.18 29 15.187 29s14.5-6.492 14.5-14.5zm-1.74 0c0-7.047-5.712-12.76-12.76-12.76-7.047 0-12.76 5.713-12.76 12.76s5.713 12.76 12.76 12.76c7.048 0 12.76-5.713 12.76-12.76zm-5.934 3.344a1.787 1.787 0 01-1.53 1.39c-1.753.196-3.529.197-5.296.196-1.768 0-3.544 0-5.298-.196a1.786 1.786 0 01-1.529-1.39c-.246-1.072-.246-2.24-.246-3.344 0-1.103.003-2.272.25-3.344a1.786 1.786 0 011.528-1.39c1.754-.196 3.53-.197 5.297-.196 1.768 0 3.544 0 5.298.196.74.083 1.356.638 1.529 1.39.246 1.072.245 2.241.245 3.344 0 1.103-.002 2.272-.248 3.344zm-8.099-5.954l3.915 2.26-3.915 2.26v-4.52z" fill-opacity=".8"/></g><defs><clipPath id="tclip0"><path d="M.687 0h29v29h-29z"/></clipPath></defs></symbol></svg>