<?xml version="1.0" encoding="utf-8"?><svg xmlns="http://www.w3.org/2000/svg" xmlns:xlink="http://www.w3.org/1999/xlink"><symbol viewBox="0 0 8 5" id="angle-down" xmlns="http://www.w3.org/2000/svg"><path d="M7 1L4 4 1 1"/></symbol><symbol viewBox="0 0 8 5" id="angle-up" xmlns="http://www.w3.org/2000/svg"><path d="M1 4l3-3 3 3"/></symbol><symbol viewBox="0 0 11 19" id="arr-l" xmlns="http://www.w3.org/2000/svg"><path d="M9.3 18.4c-.3 0-.6-.1-.9-.4L.6 10.3C.2 9.7.2 9 .6 8.5L8.4.7c.5-.5 1.3-.5 1.8 0s.5 1.3 0 1.8L3.3 9.4l6.9 6.9c.5.5.5 1.3 0 1.8-.3.1-.6.3-.9.3z"/></symbol><symbol viewBox="0 0 11 19" id="arr-r" xmlns="http://www.w3.org/2000/svg"><path d="M1.7 18.4c-.3 0-.6-.1-.9-.4-.5-.5-.5-1.3 0-1.8l6.9-6.9L.8 2.5C.3 2 .3 1.2.8.7S2.1.2 2.6.7l7.8 7.8c.2.2.4.6.4.9s-.1.6-.4.9L2.6 18c-.2.2-.6.4-.9.4z"/></symbol><symbol viewBox="0 0 62 62" id="arr-top" xmlns="http://www.w3.org/2000/svg"><circle cx="31" cy="31" r="31"/><path d="M31.53 17.47a.75.75 0 00-1.06 0l-4.773 4.773a.75.75 0 001.06 1.06L31 19.061l4.243 4.242a.75.75 0 001.06-1.06L31.53 17.47zM31.75 42V18h-1.5v24h1.5z"/></symbol><symbol viewBox="0 0 56 8" id="arrow" xmlns="http://www.w3.org/2000/svg"><path d="M55.354 4.354a.5.5 0 000-.708L52.172.464a.5.5 0 10-.707.708L54.293 4l-2.828 2.828a.5.5 0 10.707.708l3.182-3.182zM0 4.5h55v-1H0v1z"/></symbol><symbol viewBox="0 0 29 8" id="arrow-s" xmlns="http://www.w3.org/2000/svg"><path d="M28.354 4.354a.5.5 0 000-.708L25.172.464a.5.5 0 10-.707.708L27.293 4l-2.828 2.828a.5.5 0 10.707.708l3.182-3.182zM0 4.5h28v-1H0v1z"/></symbol><symbol viewBox="0 0 20 8" id="arrow-s-left" xmlns="http://www.w3.org/2000/svg"><path d="M.646 3.646a.5.5 0 000 .708l3.182 3.182a.5.5 0 00.708-.708L1.707 4l2.829-2.828a.5.5 0 10-.708-.708L.646 3.646zM20 3.5H1v1h19v-1z"/></symbol><symbol viewBox="0 0 24 23" id="basket" xmlns="http://www.w3.org/2000/svg"><defs><style>.aicls-1{fill:#fff}</style></defs><g id="aiСлой_2" data-name="Слой 2"><g id="aiСлой_1-2" data-name="Слой 1"><circle class="aicls-1" cx="9" cy="21" r="2"/><circle class="aicls-1" cx="20" cy="21" r="2"/><path class="aicls-1" d="M9.62 17a3 3 0 01-1.86-.66 3 3 0 01-1.06-1.75L5 6.24v-.08L4.18 2H1a1 1 0 010-2h4a1 1 0 011 .8L6.82 5H23a1 1 0 011 1.19l-1.6 8.39a3 3 0 01-3 2.42H9.62zM7.22 7l1.44 7.19a1 1 0 00.35.59.86.86 0 00.65.22h9.74a1 1 0 00.67-.22 1 1 0 00.35-.58L21.79 7z"/></g></g></symbol><symbol viewBox="0 0 19 19" id="cabinet" xmlns="http://www.w3.org/2000/svg"><path d="M15.64 11.712a8.965 8.965 0 00-3.42-2.145 5.201 5.201 0 002.26-4.288A5.209 5.209 0 009.277.076a5.209 5.209 0 00-5.203 5.203c0 1.777.895 3.348 2.259 4.288a8.966 8.966 0 00-3.42 2.145 8.941 8.941 0 00-2.636 6.364h1.406c0-4.188 3.407-7.594 7.594-7.594s7.594 3.407 7.594 7.594h1.406a8.941 8.941 0 00-2.636-6.364zM9.278 9.076A3.801 3.801 0 015.48 5.279a3.801 3.801 0 013.797-3.797 3.801 3.801 0 013.797 3.797 3.801 3.801 0 01-3.797 3.797z"/></symbol><symbol viewBox="0 0 22 16" id="callback" xmlns="http://www.w3.org/2000/svg"><path fill-rule="evenodd" clip-rule="evenodd" d="M11 8.8C9.211 8.8 0 2.313 0 2.313V1.6C0 .717.82 0 1.833 0h18.333C21.18 0 22 .717 22 1.6l-.015.8S12.874 8.8 11 8.8zm0 2.2c1.96 0 10.985-6.2 10.985-6.2L22 14.4c0 .883-.82 1.6-1.834 1.6H1.833C.82 16 0 15.283 0 14.4l.015-9.6C.014 4.8 9.212 11 11 11z"/></symbol><symbol viewBox="0 0 32.42 18.09" id="car" xmlns="http://www.w3.org/2000/svg"><g data-name="Слой 2"><path d="M31.44 6.49l-2.33-2.12a3 3 0 00-2-.78h-5.36V3a3 3 0 00-3-3H3a3 3 0 00-3 3v8.93a3 3 0 003 3h.09a4.33 4.33 0 004.23 3.16 4.33 4.33 0 004.23-3.16h8.14a4.4 4.4 0 008.45 0h1.28a3 3 0 003-3V8.71a3 3 0 00-.98-2.22zm-24.12 9.6A2.29 2.29 0 015 13.93a2.28 2.28 0 012.37-2.15 2.28 2.28 0 012.37 2.15 2.29 2.29 0 01-2.42 2.16zm0-6.31a4.34 4.34 0 00-4.23 3.15H3a1 1 0 01-1-1V3a1 1 0 011-1h15.75a1 1 0 011 1v9.72a1.66 1.66 0 00-.06.21h-8.14a4.34 4.34 0 00-4.23-3.15zm16.59 6.31a2.45 2.45 0 01-2.16-1.26V13a2.44 2.44 0 012.15-1.25 2.28 2.28 0 012.37 2.15 2.29 2.29 0 01-2.36 2.19zm6.51-4.16a1 1 0 01-1 1h-1.28a4.33 4.33 0 00-4.23-3.15 4.41 4.41 0 00-2.15.56V5.59h5.33a1 1 0 01.68.26L30.1 8a1 1 0 01.32.74z" data-name="Слой 1"/></g></symbol><symbol viewBox="0 0 32 32" id="car2" xmlns="http://www.w3.org/2000/svg"><path d="M2 8h17v15h-6m11 2a2 2 0 100-4 2 2 0 000 4zM8 25a2 2 0 100-4 2 2 0 000 4z"/><path d="M19 23V12h6l4 5v6h-3M4 12h9M2 16h9"/></symbol><symbol viewBox="0 0 22 22" id="cart" xmlns="http://www.w3.org/2000/svg"><path fill-rule="evenodd" clip-rule="evenodd" d="M6.6 17.6c-1.21 0-2.2.99-2.2 2.2 0 1.21.99 2.2 2.2 2.2 1.21 0 2.2-.99 2.2-2.2 0-1.21-.99-2.2-2.2-2.2zM0 0v2.2h2.2l3.96 8.36-1.54 2.64c-.11.33-.22.77-.22 1.1 0 1.21.99 2.2 2.2 2.2h13.2v-2.2H7.04c-.11 0-.22-.11-.22-.22v-.11l.99-1.87h8.14c.88 0 1.54-.44 1.87-1.1l3.96-7.15c.22-.22.22-.33.22-.55 0-.66-.44-1.1-1.1-1.1H4.62L3.63 0H0zm17.6 17.6c-1.21 0-2.2.99-2.2 2.2 0 1.21.99 2.2 2.2 2.2 1.21 0 2.2-.99 2.2-2.2 0-1.21-.99-2.2-2.2-2.2z"/></symbol><symbol viewBox="0 0 22 22" id="cat-block" xmlns="http://www.w3.org/2000/svg"><path d="M0 0h6v6H0zm8 0h6v6H8zm8 0h6v6h-6zM0 8h6v6H0zm8 0h6v6H8zm8 0h6v6h-6zM0 16h6v6H0zm8 0h6v6H8zm8 0h6v6h-6z"/></symbol><symbol viewBox="0 0 22 22" id="cat-list" xmlns="http://www.w3.org/2000/svg"><path d="M0 0h22v6H0zm0 8h22v6H0zm0 8h22v6H0z"/></symbol><symbol viewBox="0 0 84 84" id="chech-round" xmlns="http://www.w3.org/2000/svg"><path fill-rule="evenodd" clip-rule="evenodd" d="M42 0C18.9 0 0 18.9 0 42s18.9 42 42 42 42-18.9 42-42S65.1 0 42 0zm-8.4 63l-21-21 5.88-5.88L33.6 51.24l31.92-31.92 5.88 5.88L33.6 63z"/></symbol><symbol viewBox="0 0 11 11" id="check" xmlns="http://www.w3.org/2000/svg"><path d="M4.39 10.218a.499.499 0 01-.379.181.499.499 0 01-.378-.181L.614 6.715a1.038 1.038 0 010-1.316l.378-.439a.726.726 0 011.135 0L4.01 7.147l5.094-5.909a.726.726 0 011.134 0l.378.439a1.04 1.04 0 010 1.316l-6.228 7.225z"/></symbol><symbol viewBox="0 0 14 10" id="check2" xmlns="http://www.w3.org/2000/svg"><path fill-rule="evenodd" clip-rule="evenodd" d="M5 10L0 5.192l1.4-1.346L5 7.308 12.6 0 14 1.346 5 10z"/></symbol><symbol viewBox="0 0 14 14" id="close" xmlns="http://www.w3.org/2000/svg"><path fill-rule="evenodd" clip-rule="evenodd" d="M14 1.4L12.6 0 7 5.6 1.4 0 0 1.4 5.6 7 0 12.6 1.4 14 7 8.4l5.6 5.6 1.4-1.4L8.4 7 14 1.4z"/></symbol><symbol viewBox="0 0 28 28" id="compare" xmlns="http://www.w3.org/2000/svg"><path d="M18.818 3.818h5v20h-5zm-7.5 5h5v15h-5zm-7.5 3.749h5v11.25h-5z"/></symbol><symbol viewBox="0 0 60 72" id="doc" xmlns="http://www.w3.org/2000/svg"><path d="M11.17 46.973H9.458v7.69h1.714c.835 0 1.512-.289 2.001-.85.49-.576.749-1.296.749-2.19v-1.612c0-.878-.245-1.613-.749-2.174-.49-.576-1.152-.864-2.001-.864zm10.77 7.805c.807 0 1.44-.288 1.901-.85.46-.561.691-1.281.691-2.174v-1.901c0-.879-.23-1.599-.705-2.16-.461-.562-1.095-.85-1.901-.85-.778 0-1.383.288-1.829.85-.446.562-.662 1.282-.662 2.16v1.9c0 .88.23 1.614.676 2.175.447.576 1.052.85 1.83.85z"/><path d="M59.15 16.157L43.096.346A1.188 1.188 0 0042.26 0H12.639C8.16 0 4.532 3.83 4.532 8.554v31.564H.586v21.399h3.946v1.93c0 4.708 3.643 8.553 8.107 8.553h38.793c4.479 0 8.107-3.83 8.107-8.554V17.093c0-.346-.13-.691-.388-.936zM41.857 2.65l13.968 13.766h-7.603c-3.513 0-6.365-2.808-6.365-6.25V2.65zm15.236 60.796c0 3.298-2.535 5.976-5.66 5.976H12.64c-3.125 0-5.66-2.678-5.66-5.976v-1.93h26.928c5.257 0 9.505-4.794 9.505-10.698 0-5.904-4.263-10.7-9.505-10.7H6.98V8.554c0-3.298 2.534-5.976 5.659-5.976h26.77v7.588c0 4.868 3.945 8.828 8.812 8.828h8.87v44.452zM7.7 56.074V45.576h3.47c1.325 0 2.42.418 3.254 1.253.835.835 1.253 1.9 1.253 3.211v1.598c0 1.31-.418 2.376-1.253 3.212-.835.82-1.915 1.238-3.254 1.238H7.7v-.014zm9.993-4.306v-1.886c0-1.282.389-2.348 1.18-3.183.793-.85 1.815-1.267 3.068-1.267 1.282 0 2.333.418 3.14 1.267.806.85 1.209 1.915 1.209 3.183v1.886c0 1.282-.403 2.347-1.21 3.197-.806.85-1.857 1.267-3.139 1.267-1.253 0-2.275-.418-3.067-1.267-.792-.85-1.18-1.915-1.18-3.197zm12.96 2.203c.418.562.994.85 1.728.85.72 0 1.267-.187 1.627-.562.375-.374.562-.921.562-1.627h1.685l.014.043c.014 1.051-.331 1.915-1.037 2.563-.705.648-1.656.98-2.865.98-1.224 0-2.218-.418-2.967-1.239-.763-.82-1.137-1.872-1.137-3.168v-1.987c0-1.282.374-2.333 1.123-3.168s1.728-1.238 2.938-1.238c1.238 0 2.203.316 2.923.95.705.634 1.05 1.498 1.036 2.592l-.014.043h-1.7c0-.705-.186-1.238-.575-1.613-.374-.374-.936-.561-1.67-.561-.706 0-1.282.288-1.685.85-.418.561-.62 1.281-.62 2.13v2.017c0 .864.216 1.584.634 2.145z"/></symbol><symbol viewBox="0 0 16 14" id="email" xmlns="http://www.w3.org/2000/svg"><path d="M14.594.95H1.406C.632.95 0 1.58 0 2.354v9.375c0 .773.629 1.407 1.406 1.407h13.188A1.41 1.41 0 0016 11.729V2.355C16 1.583 15.371.95 14.594.95zm-.194.937l-6.37 6.37-6.425-6.37H14.4zM.937 11.537V2.544L5.452 7.02.938 11.535zm.663.662l4.518-4.518 1.583 1.57a.469.469 0 00.662-.002l1.543-1.543 4.494 4.493H1.6zm13.463-.663l-4.494-4.493 4.493-4.493v8.986z"/></symbol><symbol viewBox="0 0 30 29" id="fb" xmlns="http://www.w3.org/2000/svg"><g clip-path="url(#axclip0)"><path fill-rule="evenodd" clip-rule="evenodd" d="M15.187 29c8.008 0 14.5-6.492 14.5-14.5S23.195 0 15.187 0 .687 6.492.687 14.5 7.18 29 15.187 29zm0-1.74c7.048 0 12.76-5.713 12.76-12.76S22.235 1.74 15.187 1.74c-7.047 0-12.76 5.713-12.76 12.76s5.713 12.76 12.76 12.76zm1.053-6.38V14.5h1.887l.25-2.2H16.24l.003-1.1c0-.574.058-.88.941-.88h1.18v-2.2h-1.888c-2.267 0-3.065 1.067-3.065 2.86v1.32h-1.414v2.2h1.414v6.38h2.829z" fill-opacity=".8"/></g><defs><clipPath id="axclip0"><path d="M.687 0h29v29h-29z"/></clipPath></defs></symbol><symbol viewBox="0 0 11 8" id="filter" xmlns="http://www.w3.org/2000/svg"><path d="M5.196 6L0 0h10.393L5.196 6z"/><path d="M4.196 4h2v4h-2z"/></symbol><symbol viewBox="0 0 20 18" id="heart" xmlns="http://www.w3.org/2000/svg"><path d="M18.384 1.671A5.426 5.426 0 0014.471.013c-1.48 0-2.87.59-3.918 1.662l-.547.56-.555-.568A5.454 5.454 0 005.529 0c-1.476 0-2.866.59-3.91 1.658A5.68 5.68 0 000 5.668c0 1.516.58 2.935 1.628 4.007l7.963 8.151a.57.57 0 00.403.174.564.564 0 00.402-.17l7.98-8.138A5.703 5.703 0 0020 5.682a5.677 5.677 0 00-1.616-4.01z"/></symbol><symbol viewBox="0 0 17 18" id="home" xmlns="http://www.w3.org/2000/svg"><path d="M16.764 8.319L8.918.592a.58.58 0 00-.837 0L.236 8.319c-.212.208-.29.55-.197.857.094.306.34.51.615.51h1.962v6.954c0 .427.292.773.653.773h3.89c.36 0 .652-.343.655-.767l.028-4.642h1.312v4.636c0 .427.292.773.654.773h3.922c.361 0 .654-.346.654-.773V9.686h1.962c.275 0 .521-.204.615-.51.094-.306.015-.649-.197-.857zm-3.034-.178c-.36 0-.654.346-.654.772v6.955h-2.615V11.23c0-.426-.292-.772-.653-.772H7.192c-.359 0-.65.342-.654.767l-.027 4.642H3.923V8.913c0-.426-.292-.772-.654-.772H2.46L8.5 2.19l6.04 5.95h-.81z"/></symbol><symbol viewBox="0 0 74 74" id="info" xmlns="http://www.w3.org/2000/svg"><path d="M37 0C16.566 0 0 16.566 0 37s16.566 37 37 37 37-16.565 37-37S57.434 0 37 0zm-.185 57.691s-1.716 1.142-2.89 1.136l-.166.076.002-.076a3.761 3.761 0 01-.744-.108l-.37-.092c-2.05-.508-3.135-2.54-2.625-4.589l2.853-11.501 1.288-5.195c1.198-4.823-3.799 1.026-4.823-1.196-.677-1.469 3.886-4.55 7.22-6.874 0 0 1.715-1.14 2.889-1.135.105-.05.167-.076.167-.076l-.004.076c.248.01.496.046.746.107l.37.093a3.822 3.822 0 012.79 4.63l-2.852 11.502-1.29 5.195c-1.196 4.823 3.717-1.049 4.741 1.176.677 1.467-3.969 4.528-7.302 6.851zm7.232-35.95a5.352 5.352 0 11-10.389-2.577 5.352 5.352 0 0110.389 2.577z"/></symbol><symbol id="inst" viewBox="0 0 30 29" xml:space="preserve" xmlns="http://www.w3.org/2000/svg"><style>.bcst3{fill:#fff;fill-opacity:.8}</style><path d="M15 28.9C7.1 28.9.6 22.5.6 14.5S7.1.1 15 .1s14.4 6.4 14.4 14.4S22.9 28.9 15 28.9zm0-26.8C8.2 2.1 2.6 7.7 2.6 14.5S8.2 26.9 15 26.9s12.4-5.5 12.4-12.4S21.8 2.1 15 2.1z" opacity=".8"/><defs><path id="bcSVGID_1_" d="M8.8 8.3h12.3v12.3H8.8z"/></defs><clipPath id="bcSVGID_2_"><use xlink:href="#bcSVGID_1_" overflow="visible"/></clipPath><g clip-path="url(#bcSVGID_2_)"><path class="bcst3" d="M17.8 8.3h-5.6c-1.8 0-3.3 1.5-3.3 3.3v5.6c0 1.8 1.5 3.3 3.3 3.3h5.6c1.8 0 3.3-1.5 3.3-3.3v-5.6c.1-1.8-1.4-3.3-3.3-3.3zM15 17.9c-1.9 0-3.4-1.5-3.4-3.4s1.5-3.4 3.4-3.4 3.4 1.5 3.4 3.4-1.5 3.4-3.4 3.4zm3.4-6c-.5 0-1-.4-1-1s.4-1 1-1 1 .4 1 1-.4 1-1 1z"/><path class="bcst3" d="M15 12.4c-1.1 0-2.1.9-2.1 2.1 0 1.1.9 2.1 2.1 2.1 1.1 0 2.1-.9 2.1-2.1 0-1.1-1-2.1-2.1-2.1zm3.4-1.7c-.2 0-.3.1-.3.3 0 .2.1.3.3.3.2 0 .3-.1.3-.3 0-.2-.1-.3-.3-.3z"/></g></symbol><symbol viewBox="0 0 42 35" id="logo" xmlns="http://www.w3.org/2000/svg"><path d="M33.19 1.154L16.484 17.638 8.242 9.396 16.706.71l16.484.445z"/><path d="M24.948 25.88L8.242 9.396 0 17.638l16.707 16.484 8.241-8.242zM33.19 17.638L16.707 34.122H33.19l8.242-8.242-8.242-8.242zM33.413 17.638l-8.19-8.628 7.967-7.856 8.465 8.02-8.242 8.464z"/></symbol><symbol viewBox="0 0 20 19" id="magnifier" xmlns="http://www.w3.org/2000/svg"><path d="M8.4 15.2C4.2 15.2.8 11.8.8 7.6.8 3.4 4.2 0 8.4 0 12.6 0 16 3.4 16 7.6c0 4.2-3.4 7.6-7.6 7.6zm0-13.7C5 1.5 2.3 4.2 2.3 7.6c0 3.4 2.7 6.1 6.1 6.1 3.3 0 6.1-2.7 6.1-6.1 0-3.4-2.7-6.1-6.1-6.1zm5.553 13.147l1.063-1.058 4.022 4.039-1.063 1.058z"/></symbol><symbol viewBox="0 0 20 12" id="menu" xmlns="http://www.w3.org/2000/svg"><path d="M0 0h20v2H0zm0 5h20v2H0zm0 5h20v2H0z"/></symbol><symbol viewBox="0 0 30 60" id="next" xmlns="http://www.w3.org/2000/svg"><path d="M30 30C30 13.431 16.569 0 0 0v60c16.569 0 30-13.431 30-30z"/><path d="M11.47 24.706L16.765 30l-5.295 5.294"/></symbol><symbol viewBox="0 0 13 13" id="one" xmlns="http://www.w3.org/2000/svg"><path fill-rule="evenodd" clip-rule="evenodd" d="M4.424 4.02l8.395 3.76c.27.173.226.474-.052.568L9.33 9.17l-.982 3.607c-.077.268-.446.307-.562.044L4.029 4.418c-.117-.243.142-.49.395-.399z"/><path fill-rule="evenodd" clip-rule="evenodd" d="M5.003 0A5.002 5.002 0 0110 5.003a.303.303 0 01-.3.308.3.3 0 01-.301-.308 4.39 4.39 0 00-4.396-4.4A4.395 4.395 0 00.6 5.004a4.394 4.394 0 004.402 4.393.3.3 0 01.307.302.303.303 0 01-.307.302A5.005 5.005 0 010 5.003 5.007 5.007 0 015.003 0z"/></symbol><symbol viewBox="0 0 60 73" id="pdf" xmlns="http://www.w3.org/2000/svg"><path d="M59.195 16.216L43.08.346A1.193 1.193 0 0042.24 0H12.51C8.016 0 4.374 3.845 4.374 8.585v31.681H.414v21.478h3.96v1.937c0 4.726 3.657 8.585 8.137 8.585h38.937c4.495 0 8.137-3.845 8.137-8.586V17.157c0-.347-.13-.694-.39-.94zM41.837 2.66l14.02 13.818h-7.632c-3.527 0-6.388-2.819-6.388-6.273V2.659zm15.291 61.02c0 3.31-2.544 5.998-5.68 5.998H12.511c-3.136 0-5.68-2.688-5.68-5.997v-1.937H33.86c5.275 0 9.539-4.813 9.539-10.739 0-5.926-4.279-10.739-9.54-10.739H6.832V8.586c0-3.31 2.544-5.999 5.68-5.999H39.38v7.617c0 4.885 3.96 8.86 8.845 8.86h8.903V63.68zM8.016 56.425v-10.84h4.149c1.2 0 2.139.304 2.803.925.665.622 1.012 1.431 1.012 2.443 0 1.011-.332 1.835-1.012 2.442-.679.607-1.618.925-2.803.925H9.822v4.105H8.016zm10.161 0v-10.84h3.584c1.373 0 2.486.434 3.354 1.286.867.853 1.286 1.966 1.286 3.31v1.648c0 1.358-.434 2.457-1.287 3.31-.867.852-1.98 1.286-3.353 1.286h-3.584zm16.852-6.07V51.8h-4.365v4.625h-1.82v-10.84h6.937v1.446H30.65v3.31h4.38v.014z"/><path d="M13.682 50.326c.333-.361.506-.81.506-1.359 0-.549-.173-1.011-.506-1.373-.332-.361-.838-.55-1.517-.55H9.823v3.831h2.342c.679-.014 1.17-.188 1.517-.55zm8.079-3.281h-1.778v7.95h1.778c.867 0 1.561-.29 2.067-.883.506-.592.766-1.344.766-2.269v-1.662c0-.91-.26-1.662-.766-2.254-.506-.593-1.2-.882-2.067-.882z"/></symbol><symbol viewBox="0 0 20 26" id="phone" xmlns="http://www.w3.org/2000/svg"><path d="M19.953 9.963C19.953 4.469 15.488 0 10 0 4.512 0 .047 4.47.047 9.963v5.49c0 2.326 2.89 4.218 5.215 4.218.42 0 .761-.341.761-.761v-6.914a.762.762 0 00-.761-.762 4.196 4.196 0 00-2.692.975V9.963C2.57 5.309 5.352 3 10 3s7.43 2.31 7.43 6.963v2.246a4.193 4.193 0 00-2.692-.975.762.762 0 00-.761.762v6.914c0 .42.34.761.761.761a4.19 4.19 0 002.633-.928c-.398 2.988-1.8 4.351-4.805 4.691.032-.142.05-.29.05-.442 0-1.107-.9-1.006-2.007-1.006H9.391a2.008 2.008 0 000 4.014h2.427c4.486 0 8.135-3.65 8.135-8.135V9.963z"/></symbol><symbol id="pin" viewBox="0 0 14 19" xml:space="preserve" xmlns="http://www.w3.org/2000/svg"><style>.bkst0{fill:#f0ac0d}</style><path class="bkst0" d="M7 0C3.5 0 .7 2.9.7 6.4c0 1.2.3 2.3.9 3.3l5 8.1c.1.1.3.2.5.2s.4-.1.4-.3l4.9-8.2c.6-1 .9-2.1.9-3.2C13.3 2.9 10.5 0 7 0zm4.5 9.1L7 16.5 2.5 9.1c-.5-.8-.8-1.7-.8-2.7 0-2.9 2.4-5.3 5.3-5.3s5.3 2.4 5.3 5.3c0 .9-.3 1.9-.8 2.7z"/><path class="bkst0" d="M7 10c-1.9 0-3.4-1.5-3.4-3.4S5.1 3.1 7 3.1s3.4 1.5 3.4 3.4S8.9 10 7 10zm0-5.9c-1.3 0-2.4 1.1-2.4 2.4C4.6 7.9 5.7 9 7 9c1.3 0 2.4-1.1 2.4-2.4 0-1.4-1.1-2.5-2.4-2.5z"/></symbol><symbol viewBox="0 0 30 60" id="prev" xmlns="http://www.w3.org/2000/svg"><path d="M0 30c0 16.569 13.431 30 30 30V0C13.431 0 0 13.431 0 30z"/><path d="M18.53 35.294L13.234 30l5.294-5.294"/></symbol><symbol viewBox="0 0 28 28" id="review" xmlns="http://www.w3.org/2000/svg"><path d="M10.041 13.158a5.94 5.94 0 00-1.61-.23 5.15 5.15 0 00-2.02.404c.507-1.82 1.727-4.962 4.157-5.316a.574.574 0 00.47-.407l.531-1.86a.556.556 0 00-.073-.463.579.579 0 00-.404-.25A4.116 4.116 0 0010.55 5c-2.916 0-5.804 2.982-7.023 7.252-.716 2.505-.925 6.271.837 8.642.986 1.326 2.425 2.035 4.276 2.105h.023c2.284 0 4.31-1.506 4.925-3.664a4.892 4.892 0 00-.469-3.81c-.663-1.154-1.756-1.995-3.077-2.367zm14.299 2.367c-.664-1.154-1.757-1.995-3.078-2.367a5.939 5.939 0 00-1.61-.23c-.814 0-1.494.181-2.02.404.507-1.82 1.727-4.962 4.157-5.316a.574.574 0 00.47-.407l.532-1.86a.555.555 0 00-.074-.463.578.578 0 00-.404-.25A4.11 4.11 0 0021.77 5c-2.916 0-5.804 2.982-7.023 7.252-.715 2.505-.925 6.271.837 8.642C16.57 22.22 18.01 22.93 19.86 23a.57.57 0 00.023 0c2.284 0 4.31-1.507 4.926-3.665a4.895 4.895 0 00-.47-3.81z"/></symbol><symbol viewBox="0 0 25 25" id="share" xmlns="http://www.w3.org/2000/svg"><path d="M18.117 8.5a3 3 0 100-6 3 3 0 000 6zm-12 7a3 3 0 100-6 3 3 0 000 6zm12 7a3 3 0 100-6 3 3 0 000 6zm-9.41-8.49l6.83 3.98m-.01-10.98l-6.82 3.98"/></symbol><symbol viewBox="0 0 10 19" id="staple" xmlns="http://www.w3.org/2000/svg"><path d="M4.737 0C2.277 0 .274 1.953.274 4.354v11.083C.274 17.402 1.913 19 3.926 19s3.652-1.598 3.652-3.563v-9.5c0-1.527-1.274-2.77-2.84-2.77-1.567 0-2.84 1.243-2.84 2.77v7.125a.4.4 0 00.405.396.401.401 0 00.406-.396V5.939c0-1.091.91-1.98 2.028-1.98 1.12 0 2.029.889 2.029 1.98v9.5c0 1.527-1.274 2.77-2.84 2.77-1.566 0-2.84-1.243-2.84-2.77V4.354C1.086 2.39 2.724.792 4.737.792 6.751.792 8.39 2.39 8.39 4.354v8.708c0 .219.182.396.406.396a.401.401 0 00.405-.396V4.354C9.2 1.953 7.198 0 4.737 0z"/></symbol><symbol viewBox="0 0 24 24" id="star" xmlns="http://www.w3.org/2000/svg"><path d="M12 .587l3.708 7.514L24 9.306l-6 5.848 1.416 8.259-7.416-3.9-7.416 3.9L6 15.154 0 9.306l8.292-1.205L12 .587z"/></symbol><symbol viewBox="0 0 13 20" id="tel" xmlns="http://www.w3.org/2000/svg"><path d="M12.464 17.035a.932.932 0 01-.459 1.23l-.798.373a4.388 4.388 0 01-.936.308 4.695 4.695 0 01-2.47-.16 5.79 5.79 0 01-1.438-.733A7.309 7.309 0 015.074 16.9a8.936 8.936 0 01-1.077-1.51 18.536 18.536 0 01-.638-1.054 40.398 40.398 0 01-.647-1.208 25.02 25.02 0 01-.735-1.561A19.995 19.995 0 011.032 9a6.912 6.912 0 01-.196-.85 9.034 9.034 0 01-.379-2.594c0-.555.056-1.09.167-1.603a5.69 5.69 0 01.513-1.433c.23-.442.522-.837.876-1.185A4.307 4.307 0 013.27.485l.788-.363A.943.943 0 014.43.043c.175 0 .339.048.49.146a.896.896 0 01.34.403l1.515 3.44a.947.947 0 01-.062.883.878.878 0 01-.4.35l-1.557.716a1.043 1.043 0 00-.473.416 1.13 1.13 0 00-.165.592c0 .16.03.312.09.453l2.558 5.84c.1.225.238.39.415.496a1.081 1.081 0 001.01.062l1.558-.716a.891.891 0 01.858.066.92.92 0 01.345.4l1.512 3.445z"/></symbol><symbol viewBox="0 0 15 15" id="time" xmlns="http://www.w3.org/2000/svg"><path d="M7.5 0C3.365 0 0 3.365 0 7.5S3.365 15 7.5 15 15 11.635 15 7.5 11.635 0 7.5 0zm0 14.063A6.57 6.57 0 01.938 7.5 6.57 6.57 0 017.5.938 6.57 6.57 0 0114.063 7.5 6.57 6.57 0 017.5 14.063z"/><path d="M7.969 2.813H7.03v4.881l2.95 2.95.663-.663-2.675-2.675V2.812z"/></symbol><symbol viewBox="0 0 30 29" id="vk" xmlns="http://www.w3.org/2000/svg"><defs><path id="bsa" d="M.5 0h29v29H.5z"/></defs><clipPath id="bsb"><use xlink:href="#bsa" overflow="visible"/></clipPath><path d="M5.9 11.7c.2.5.4 1 .7 1.5.6 1.1 1.2 2.3 2 3.3s1.8 2 2.9 2.7c.3.2.6.3 1 .5 1.3.5 2.8.4 3.2.1.5-.3-.1-2.3.3-2.5.4-.2 1.1.3 1.7.8l1.2 1.2c.2.2.3.4.6.6.4.2.9.2 1.4.2h1.3c.3 0 .6-.1.6-.5 0-.1 0-.2-.1-.3-.1-.2-.2-.3-.3-.5-.6-.7-.9-1.1-1.2-1.4-.3-.3-1.4-1.4-1.5-1.6-.1-.2-.1-.3.1-.6s.7-1 1-1.5c.2-.3.4-.7.6-1 .2-.4.5-.8.7-1.3.1-.2.2-.4.1-.6 0-.1-.1-.3-.3-.3h-2.3c-.2 0-.4.2-.5.4-.1.2-.3.4-.4.6-.1.1-.2.3-.3.4-.1.2-.3.5-.4.7-.1.1-.1.2-.2.3-.2.3-1.6 2.1-1.8 2.2 0-.1-.1-.1-.1-.7v-3.8s0-.2-.3-.2H12s-.5 0-.3.5.7.6.7 1.4v3.1s-.1.7-.7.1c-.5-.5-.9-1-1.2-1.6-.4-.6-.7-1.2-.9-1.8-.1-.2-.1-.4-.2-.5-.1-.2-.2-.4-.2-.6-.1-.2-.2-.5-.4-.6-.1-.1-.3 0-.4 0H6.6c-.3 0-.7 0-.8.4 0 .2 0 .5.1.7v.2z" clip-path="url(#bsb)" fill-opacity=".8"/><g opacity=".8" clip-path="url(#bsb)"><path d="M15 29C7 29 .5 22.5.5 14.5S7 0 15 0s14.5 6.5 14.5 14.5S23 29 15 29zm0-27C8.1 2 2.5 7.6 2.5 14.5S8.1 27 15 27s12.5-5.6 12.5-12.5S21.9 2 15 2z"/></g></symbol><symbol viewBox="0 0 23 19" id="wallet" xmlns="http://www.w3.org/2000/svg"><path d="M19.375.5H3.625A3.375 3.375 0 00.25 3.875v11.25A3.375 3.375 0 003.625 18.5h15.75a3.375 3.375 0 003.375-3.375V3.875A3.375 3.375 0 0019.375.5zM20.5 12.088h-3.375a2.587 2.587 0 110-5.175H20.5v5.175zM20.5 5h-3.375a4.5 4.5 0 100 9H20.5v1.125a1.125 1.125 0 01-1.125 1.125H3.625A1.125 1.125 0 012.5 15.125V3.875A1.125 1.125 0 013.625 2.75h15.75A1.125 1.125 0 0120.5 3.875V5zM16 9.5a1.125 1.125 0 102.25 0 1.125 1.125 0 00-2.25 0z"/></symbol><symbol viewBox="0 0 60 72" id="xlsx" xmlns="http://www.w3.org/2000/svg"><path d="M59.15 16.157L43.081.346A1.19 1.19 0 0042.245 0H12.602C8.12 0 4.488 3.83 4.488 8.554v31.564H.539v21.399h3.949v1.93C4.488 68.154 8.134 72 12.6 72h38.825c4.481 0 8.113-3.83 8.113-8.554V17.093c0-.346-.13-.691-.389-.936zM41.842 2.65L55.82 16.416h-7.61c-3.516 0-6.37-2.808-6.37-6.25V2.65zM6.116 46.267h1.787l1.903 3.355 1.916-3.355h1.802l-2.796 4.507 2.911 4.58h-1.83L9.834 51.94 7.86 55.354H6.059l2.867-4.58-2.81-4.507zm50.973 17.18c0 3.297-2.536 5.975-5.663 5.975H12.6c-3.127 0-5.663-2.678-5.663-5.976v-1.93h26.949c5.26 0 9.511-4.794 9.511-10.698 0-5.904-4.265-10.7-9.511-10.7H6.937V8.554c0-3.298 2.537-5.976 5.664-5.976h26.791v7.588c0 4.868 3.949 8.828 8.82 8.828h8.877v44.452zm-36.086-9.289v1.21h-5.779v-9.1h1.513v7.89h4.266zM27.07 52.1c-.273-.245-.75-.46-1.426-.648-.98-.273-1.73-.619-2.263-1.065-.533-.447-.793-1.008-.793-1.728 0-.735.289-1.34.88-1.815.576-.475 1.34-.705 2.248-.705.98 0 1.772.259 2.363.792.591.532.88 1.18.85 1.958l-.014.043h-1.47c0-.475-.159-.864-.476-1.137-.317-.288-.749-.432-1.268-.432s-.908.115-1.181.36a1.192 1.192 0 00-.418.936c0 .345.158.633.46.864.303.23.808.446 1.514.648.951.273 1.686.633 2.176 1.094.505.46.75 1.051.75 1.771 0 .749-.303 1.354-.894 1.8-.59.447-1.37.677-2.335.677-.922 0-1.73-.245-2.42-.734-.693-.49-1.024-1.181-.995-2.074l.014-.043h1.47c0 .547.188.95.562 1.238.375.274.836.418 1.384.418.533 0 .95-.115 1.253-.346.303-.23.447-.533.447-.921a1.3 1.3 0 00-.418-.95zm3.286-5.832h1.787l1.902 3.355 1.917-3.355h1.801l-2.795 4.507 2.91 4.58h-1.83l-1.974-3.413-1.974 3.413h-1.802l2.868-4.58-2.81-4.507z"/></symbol><symbol viewBox="0 0 30 29" id="yt" xmlns="http://www.w3.org/2000/svg"><g clip-path="url(#bvclip0)"><path fill-rule="evenodd" clip-rule="evenodd" d="M29.687 14.5c0-8.008-6.492-14.5-14.5-14.5S.687 6.492.687 14.5 7.18 29 15.187 29s14.5-6.492 14.5-14.5zm-1.74 0c0-7.047-5.712-12.76-12.76-12.76-7.047 0-12.76 5.713-12.76 12.76s5.713 12.76 12.76 12.76c7.048 0 12.76-5.713 12.76-12.76zm-5.934 3.344a1.787 1.787 0 01-1.53 1.39c-1.753.196-3.529.197-5.296.196-1.768 0-3.544 0-5.298-.196a1.786 1.786 0 01-1.529-1.39c-.246-1.072-.246-2.24-.246-3.344 0-1.103.003-2.272.25-3.344a1.786 1.786 0 011.528-1.39c1.754-.196 3.53-.197 5.297-.196 1.768 0 3.544 0 5.298.196.74.083 1.356.638 1.529 1.39.246 1.072.245 2.241.245 3.344 0 1.103-.002 2.272-.248 3.344zm-8.099-5.954l3.915 2.26-3.915 2.26v-4.52z" fill-opacity=".8"/></g><defs><clipPath id="bvclip0"><path d="M.687 0h29v29h-29z"/></clipPath></defs></symbol></svg>