<svg width="10" height="19" viewBox="0 0 10 19" fill="none" xmlns="http://www.w3.org/2000/svg">
<path d="M4.73742 0C2.27707 0 0.274414 1.95303 0.274414 4.35415V15.4375C0.274414 17.4016 1.91275 19 3.92598 19C5.9392 19 7.57754 17.4016 7.57754 15.4375V5.9375C7.57754 4.4096 6.30356 3.16665 4.73742 3.16665C3.17128 3.16665 1.8973 4.4096 1.8973 5.9375V13.0625C1.8973 13.281 2.07908 13.4583 2.30305 13.4583C2.52701 13.4583 2.70879 13.281 2.70879 13.0625V5.9375C2.70879 4.8466 3.61844 3.95835 4.73742 3.95835C5.85643 3.95835 6.76605 4.8466 6.76605 5.9375V15.4375C6.76605 16.9654 5.49208 18.2083 3.92594 18.2083C2.3598 18.2083 1.08586 16.9654 1.08586 15.4375V4.35415C1.08586 2.39003 2.72419 0.791654 4.73742 0.791654C6.75065 0.791654 8.38898 2.39003 8.38898 4.35415V13.0625C8.38898 13.281 8.57076 13.4583 8.79472 13.4583C9.01868 13.4583 9.20047 13.281 9.20047 13.0625V4.35415C9.20043 1.95303 7.19777 0 4.73742 0Z" fill="#9A9A9A"/>
</svg>
