<svg width="13" height="20" viewBox="0 0 13 20" fill="none" xmlns="http://www.w3.org/2000/svg">
<path d="M12.4643 17.0348C12.5169 17.1594 12.5437 17.2859 12.5437 17.4142C12.5437 17.5919 12.4966 17.7571 12.402 17.9113C12.3079 18.065 12.1754 18.1827 12.0056 18.2639L11.2071 18.6377C10.8956 18.7794 10.5836 18.8824 10.2711 18.9465C9.95864 19.0107 9.64296 19.043 9.32357 19.043C8.80989 19.043 8.30266 18.9576 7.80143 18.7868C7.30021 18.616 6.82067 18.3714 6.36283 18.0534C5.90499 17.7354 5.4753 17.3505 5.07422 16.8996C4.67315 16.4482 4.31362 15.9451 3.99654 15.3899C3.79439 15.0821 3.58208 14.7309 3.35916 14.3362C3.17039 14.0002 2.95486 13.5978 2.71209 13.1284C2.46932 12.6595 2.22471 12.1384 1.97733 11.5666C1.72441 10.9943 1.52364 10.4944 1.37549 10.067C1.22733 9.6392 1.11241 9.28382 1.03164 9.0009C0.937027 8.67044 0.871951 8.38706 0.836413 8.15121C0.70626 7.71321 0.610261 7.27753 0.548877 6.84414C0.487493 6.41076 0.457031 5.98154 0.457031 5.55692C0.457031 5.0017 0.512877 4.4677 0.624107 3.95401C0.735337 3.44033 0.906566 2.96264 1.13687 2.52095C1.36718 2.07926 1.65933 1.68419 2.01333 1.33573C2.36732 0.987269 2.78594 0.703887 3.26916 0.484657L4.05654 0.122353C4.18069 0.0692762 4.30531 0.0429688 4.42992 0.0429688C4.6053 0.0429688 4.76869 0.0914299 4.92007 0.188814C5.07099 0.286198 5.18453 0.420504 5.25976 0.592195L6.77498 4.03294C6.82806 4.15755 6.85436 4.28217 6.85436 4.40678C6.85436 4.59001 6.80729 4.75939 6.71267 4.91493C6.61806 5.07047 6.48514 5.18723 6.31345 5.26477L4.75577 5.98107C4.54992 6.07569 4.39254 6.21415 4.28269 6.39738C4.17331 6.58061 4.11839 6.77768 4.11839 6.98907C4.11839 7.14968 4.14839 7.3006 4.20885 7.44229L6.76621 13.2821C6.86636 13.5069 7.00436 13.6721 7.18113 13.7778C7.35744 13.8835 7.5499 13.9365 7.75759 13.9365C7.89928 13.9365 8.04374 13.9042 8.19097 13.8401L9.74865 13.1238C9.87142 13.0712 9.99511 13.0444 10.1197 13.0444C10.2914 13.0444 10.4539 13.0929 10.6066 13.1902C10.7594 13.2876 10.8748 13.421 10.9523 13.5909L12.4643 17.0348Z" fill="#F0AC0D"/>
</svg>
