<?xml version="1.0" encoding="utf-8"?>
<!-- Generator: Adobe Illustrator 23.0.1, SVG Export Plug-In . SVG Version: 6.00 Build 0)  -->
<svg version="1.1" id="Слой_1" xmlns="http://www.w3.org/2000/svg" xmlns:xlink="http://www.w3.org/1999/xlink" x="0px" y="0px"
	 viewBox="0 0 30 29" style="enable-background:new 0 0 30 29;" xml:space="preserve">
<style type="text/css">
	.st0{clip-path:url(#SVGID_2_);fill:#FFFFFF;fill-opacity:0.8;}
	.st1{opacity:0.8;clip-path:url(#SVGID_2_);}
	.st2{fill:#FFFFFF;}
</style>
<g>
	<defs>
		<rect id="SVGID_1_" x="0.5" width="29" height="29"/>
	</defs>
	<clipPath id="SVGID_2_">
		<use xlink:href="#SVGID_1_"  style="overflow:visible;"/>
	</clipPath>
	<path class="st0" d="M5.9,11.7c0.2,0.5,0.4,1,0.7,1.5c0.6,1.1,1.2,2.3,2,3.3c0.8,1,1.8,2,2.9,2.7c0.3,0.2,0.6,0.3,1,0.5
		c1.3,0.5,2.8,0.4,3.2,0.1c0.5-0.3-0.1-2.3,0.3-2.5c0.4-0.2,1.1,0.3,1.7,0.8c0.5,0.5,0.9,0.9,1.2,1.2c0.2,0.2,0.3,0.4,0.6,0.6
		c0.4,0.2,0.9,0.2,1.4,0.2c0.3,0,0.5,0,0.8,0c0.2,0,0.3,0,0.5,0c0.3,0,0.6-0.1,0.6-0.5c0-0.1,0-0.2-0.1-0.3
		c-0.1-0.2-0.2-0.3-0.3-0.5c-0.6-0.7-0.9-1.1-1.2-1.4c-0.3-0.3-1.4-1.4-1.5-1.6c-0.1-0.2-0.1-0.3,0.1-0.6c0.2-0.3,0.7-1,1-1.5
		c0.2-0.3,0.4-0.7,0.6-1c0.2-0.4,0.5-0.8,0.7-1.3c0.1-0.2,0.2-0.4,0.1-0.6c0-0.1-0.1-0.3-0.3-0.3c-0.1,0-0.2,0-0.3,0
		c-0.3,0-1.1,0-1.1,0c-0.1,0-0.3,0-0.4,0c-0.2,0-0.3,0-0.5,0c-0.2,0-0.4,0.2-0.5,0.4c-0.1,0.2-0.3,0.4-0.4,0.6
		c-0.1,0.1-0.2,0.3-0.3,0.4c-0.1,0.2-0.3,0.5-0.4,0.7c-0.1,0.1-0.1,0.2-0.2,0.3c-0.2,0.3-1.6,2.1-1.8,2.2C16,15,15.9,15,15.9,14.4
		c0-0.6,0-3.8,0-3.8s0-0.2-0.3-0.2c-0.2,0-1.3,0-1.3,0h-2.3c0,0-0.5,0-0.3,0.5c0.2,0.5,0.7,0.6,0.7,1.4s0,3.1,0,3.1
		s-0.1,0.7-0.7,0.1c-0.5-0.5-0.9-1-1.2-1.6c-0.4-0.6-0.7-1.2-0.9-1.8c-0.1-0.2-0.1-0.4-0.2-0.5c-0.1-0.2-0.2-0.4-0.2-0.6
		c-0.1-0.2-0.2-0.5-0.4-0.6c-0.1-0.1-0.3,0-0.4,0c-0.5,0-1,0-1.4,0c-0.1,0-0.3,0-0.4,0c-0.3,0-0.7,0-0.8,0.4c0,0.2,0,0.5,0.1,0.7
		C5.9,11.5,5.9,11.6,5.9,11.7z"/>
	<g class="st1">
		<path class="st2" d="M15,29C7,29,0.5,22.5,0.5,14.5S7,0,15,0s14.5,6.5,14.5,14.5S23,29,15,29z M15,2C8.1,2,2.5,7.6,2.5,14.5
			S8.1,27,15,27s12.5-5.6,12.5-12.5S21.9,2,15,2z"/>
	</g>
</g>
</svg>
