<svg width="23" height="19" viewBox="0 0 23 19" fill="none" xmlns="http://www.w3.org/2000/svg">
<path d="M19.375 0.5H3.625C2.72989 0.5 1.87145 0.855579 1.23851 1.48851C0.605579 2.12145 0.25 2.97989 0.25 3.875V15.125C0.25 16.0201 0.605579 16.8786 1.23851 17.5115C1.87145 18.1444 2.72989 18.5 3.625 18.5H19.375C20.2701 18.5 21.1286 18.1444 21.7615 17.5115C22.3944 16.8786 22.75 16.0201 22.75 15.125V3.875C22.75 2.97989 22.3944 2.12145 21.7615 1.48851C21.1286 0.855579 20.2701 0.5 19.375 0.5ZM20.5 12.0875H17.125C16.4388 12.0875 15.7806 11.8149 15.2954 11.3296C14.8101 10.8444 14.5375 10.1862 14.5375 9.5C14.5375 8.81375 14.8101 8.15561 15.2954 7.67036C15.7806 7.18511 16.4388 6.9125 17.125 6.9125H20.5V12.0875ZM20.5 5H17.125C15.9315 5 14.7869 5.47411 13.943 6.31802C13.0991 7.16193 12.625 8.30653 12.625 9.5C12.625 10.6935 13.0991 11.8381 13.943 12.682C14.7869 13.5259 15.9315 14 17.125 14H20.5V15.125C20.5 15.4234 20.3815 15.7095 20.1705 15.9205C19.9595 16.1315 19.6734 16.25 19.375 16.25H3.625C3.32663 16.25 3.04048 16.1315 2.8295 15.9205C2.61853 15.7095 2.5 15.4234 2.5 15.125V3.875C2.5 3.57663 2.61853 3.29048 2.8295 3.0795C3.04048 2.86853 3.32663 2.75 3.625 2.75H19.375C19.6734 2.75 19.9595 2.86853 20.1705 3.0795C20.3815 3.29048 20.5 3.57663 20.5 3.875V5ZM16 9.5C16 9.7225 16.066 9.94001 16.1896 10.125C16.3132 10.31 16.4889 10.4542 16.6945 10.5394C16.9 10.6245 17.1262 10.6468 17.3445 10.6034C17.5627 10.56 17.7632 10.4528 17.9205 10.2955C18.0778 10.1382 18.185 9.93771 18.2284 9.71948C18.2718 9.50125 18.2495 9.27505 18.1644 9.06948C18.0792 8.86391 17.935 8.68821 17.75 8.5646C17.565 8.44098 17.3475 8.375 17.125 8.375C16.8266 8.375 16.5405 8.49353 16.3295 8.7045C16.1185 8.91548 16 9.20163 16 9.5Z" fill="#F68D23"/>
</svg>
