<svg width="60" height="72" viewBox="0 0 60 72" fill="none" xmlns="http://www.w3.org/2000/svg">
<path d="M59.15 16.1568L43.0813 0.3456C42.8652 0.1296 42.5625 0 42.2455 0H12.6013C8.11942 0 4.48777 3.8304 4.48777 8.5536V40.1184H0.539062V61.5168H4.48777V63.4464C4.48777 68.1552 8.13383 72 12.6013 72H51.4255C55.9074 72 59.5391 68.1696 59.5391 63.4464V17.0928C59.5391 16.7472 59.4094 16.4016 59.15 16.1568ZM41.8419 2.6496L55.8209 16.416H48.2118C44.6954 16.416 41.8419 13.608 41.8419 10.1664V2.6496ZM6.11625 46.2672H7.90325L9.80555 49.6224L11.7223 46.2672H13.5237L10.7279 50.7744L13.639 55.3536H11.8087L9.83437 51.9408L7.86002 55.3536H6.0586L8.92646 50.7744L6.11625 46.2672ZM57.0891 63.4464C57.0891 66.744 54.5527 69.4224 51.4255 69.4224H12.6013C9.47409 69.4224 6.93769 66.744 6.93769 63.4464V61.5168H33.8869C39.147 61.5168 43.3984 56.7216 43.3984 50.8176C43.3984 44.9136 39.1326 40.1184 33.8869 40.1184H6.93769V8.5536C6.93769 5.256 9.47409 2.5776 12.6013 2.5776H39.392V10.1664C39.392 15.0336 43.3407 18.9936 48.2118 18.9936H57.0891V63.4464ZM21.0032 54.1584V55.368H15.2242V46.2672H16.7374V54.1584H21.0032ZM27.0703 52.0992C26.7965 51.8544 26.3209 51.6384 25.6436 51.4512C24.6636 51.1776 23.9142 50.832 23.381 50.3856C22.8478 49.9392 22.5884 49.3776 22.5884 48.6576C22.5884 47.9232 22.8766 47.3184 23.4675 46.8432C24.0439 46.368 24.8077 46.1376 25.7157 46.1376C26.6956 46.1376 27.4883 46.3968 28.0791 46.9296C28.67 47.4624 28.9582 48.1104 28.9294 48.888L28.915 48.9312H27.445C27.445 48.456 27.2865 48.0672 26.9694 47.7936C26.6524 47.5056 26.2201 47.3616 25.7012 47.3616C25.1824 47.3616 24.7933 47.4768 24.5195 47.7216C24.2457 47.9664 24.1016 48.2688 24.1016 48.6576C24.1016 49.0032 24.2601 49.2912 24.5628 49.5216C24.8654 49.752 25.3698 49.968 26.0759 50.1696C27.0271 50.4432 27.7621 50.8032 28.2521 51.264C28.7565 51.7248 29.0014 52.3152 29.0014 53.0352C29.0014 53.784 28.6988 54.3888 28.1079 54.8352C27.5171 55.2816 26.7389 55.512 25.7733 55.512C24.851 55.512 24.0439 55.2672 23.3522 54.7776C22.6605 54.288 22.329 53.5968 22.3578 52.704L22.3722 52.6608H23.8422C23.8422 53.208 24.0295 53.6112 24.4042 53.8992C24.7789 54.1728 25.2401 54.3168 25.7877 54.3168C26.3209 54.3168 26.7389 54.2016 27.0415 53.9712C27.3441 53.7408 27.4883 53.4384 27.4883 53.0496C27.4738 52.6464 27.3297 52.344 27.0703 52.0992ZM30.3561 46.2672H32.1431L34.0454 49.6224L35.9621 46.2672H37.7635L34.9677 50.7744L37.8788 55.3536H36.0486L34.0742 51.9408L32.0999 55.3536H30.2985L33.1663 50.7744L30.3561 46.2672Z" fill="#FFB800"/>
</svg>
