<svg width="30" height="29" viewBox="0 0 30 29" fill="none" xmlns="http://www.w3.org/2000/svg">
<g clip-path="url(#clip0)">
<path fill-rule="evenodd" clip-rule="evenodd" d="M29.6874 14.5C29.6874 6.49187 23.1955 0 15.1874 0C7.17925 0 0.687378 6.49187 0.687378 14.5C0.687378 22.5081 7.17925 29 15.1874 29C23.1955 29 29.6874 22.5081 29.6874 14.5ZM27.9474 14.5C27.9474 7.45285 22.2345 1.74 15.1874 1.74C8.14022 1.74 2.42738 7.45285 2.42738 14.5C2.42738 21.5472 8.14022 27.26 15.1874 27.26C22.2345 27.26 27.9474 21.5472 27.9474 14.5ZM22.013 17.844C21.8399 18.5964 21.2244 19.1511 20.4839 19.2339C18.7297 19.4299 16.9543 19.4309 15.1865 19.4299C13.4188 19.4309 11.6433 19.4299 9.88925 19.2339C9.14854 19.1511 8.53342 18.5964 8.36045 17.844C8.11414 16.7724 8.11414 15.6032 8.11414 14.5002C8.11414 13.397 8.11706 12.2276 8.36321 11.156C8.53634 10.4036 9.15146 9.84871 9.892 9.76612C11.6462 9.57011 13.4216 9.56914 15.1894 9.57011C16.957 9.56914 18.7326 9.57011 20.4866 9.76612C21.2274 9.84871 21.8428 10.4036 22.0158 11.156C22.2621 12.2276 22.2606 13.397 22.2606 14.5002C22.2606 15.6032 22.2592 16.7724 22.013 17.844ZM13.9141 11.89L17.8291 14.1503L13.9141 16.4107V11.89Z" fill="white" fill-opacity="0.8"/>
</g>
<defs>
<clipPath id="clip0">
<rect x="0.687378" width="29" height="29" fill="white"/>
</clipPath>
</defs>
</svg>
