<svg width="123" height="102" viewBox="0 0 123 102" fill="none" xmlns="http://www.w3.org/2000/svg">
<path d="M39.5837 46.4825C36.5791 45.6217 33.5744 45.1849 30.6517 45.1849C26.1383 45.1849 22.3723 46.2113 19.4521 47.4681C22.2673 37.2124 29.0304 19.5164 42.5026 17.5235C43.7503 17.3389 44.7728 16.4412 45.1131 15.2328L48.0576 4.75293C48.3059 3.86667 48.1587 2.91801 47.6507 2.1489C47.1427 1.37978 46.3263 0.866615 45.4113 0.741825C44.417 0.606848 43.4035 0.538086 42.399 0.538086C26.2279 0.538086 10.2129 17.3338 3.45505 41.3826C-0.511899 55.4916 -1.67511 76.7033 8.09638 90.0546C13.5644 97.5254 21.5418 101.515 31.8072 101.913C31.8495 101.915 31.8904 101.916 31.9326 101.916C44.5987 101.916 55.8303 93.4277 59.247 81.276C61.2881 74.0114 60.3654 66.3929 56.6467 59.8185C52.9677 53.3179 46.9085 48.5797 39.5837 46.4825Z" fill="#DDDDDD"/>
<path d="M118.868 59.8193C115.189 53.3174 109.13 48.5792 101.805 46.482C98.8006 45.6212 95.7959 45.1844 92.8745 45.1844C88.3611 45.1844 84.5938 46.2108 81.6736 47.4676C84.4889 37.2119 91.2519 19.5159 104.725 17.5231C105.973 17.3384 106.994 16.4407 107.336 15.2323L110.28 4.75245C110.529 3.86618 110.382 2.91752 109.873 2.14841C109.367 1.37929 108.55 0.866126 107.634 0.741336C106.641 0.606359 105.628 0.537598 104.622 0.537598C88.4507 0.537598 72.4357 17.3333 65.6766 41.3821C61.7109 55.4911 60.5477 76.7028 70.3204 90.0566C75.7872 97.5262 83.7658 101.517 94.03 101.914C94.0722 101.916 94.1132 101.917 94.1567 101.917C106.822 101.917 118.054 93.4285 121.471 81.2768C123.51 74.0122 122.586 66.3924 118.868 59.8193Z" fill="#DDDDDD"/>
</svg>
