<svg width="78" height="61" viewBox="0 0 78 61" fill="none" xmlns="http://www.w3.org/2000/svg">
    <path class="fill-bg2" d="M55.2832 43.4177C66.9239 43.4177 76.3607 34.0006 76.3607 22.3839C76.3607 10.7673 66.9239 1.3501 55.2832 1.3501C43.6424 1.3501 34.2057 10.7673 34.2057 22.3839C34.2057 34.0006 43.6424 43.4177 55.2832 43.4177Z"
          fill="#F8F8F8"/>
    <path class="stroke-icon" d="M47.4544 7.36048H35.651C35.1692 6.15855 33.8444 5.19701 32.3991 5.19701C31.9173 5.19701 31.556 5.19701 31.0742 5.4374C30.2311 3.27393 28.1836 1.71143 25.7747 1.71143C22.6432 1.71143 20.1139 4.95663 20.1139 7.36048H8.91272"
          stroke="#CECECE" stroke-width="2" stroke-miterlimit="10"/>
    <path class="stroke-icon" d="M76.3606 13.3693H71.5429C70.6998 12.1674 69.1341 10.8453 67.0865 11.0857C66.2434 9.64334 64.6777 8.44141 62.7506 8.44141C59.9804 8.44141 57.8124 10.8453 57.8124 13.2491H46.2499"
          stroke="#CECECE" stroke-width="2" stroke-miterlimit="10"/>
    <path class="fill-main1" opacity="0.4"
          d="M75.1562 48.2255C75.1562 46.7831 75.7584 41.6148 72.2655 40.7735C72.0247 40.1725 70.6998 37.4081 69.6158 35.0042C68.6523 32.8408 66.3639 31.3984 63.955 31.3984H54.6809V54.2351H74.6744C74.6744 54.2351 76.3606 53.1534 76.3606 51.8312C76.3606 50.6293 76.7219 48.7062 75.1562 48.2255Z"
          fill="#F0AC0D"/>
    <path class="stroke-main1" d="M54.6809 54.2351H74.6744C74.6744 54.2351 76.3606 53.1534 76.3606 51.8312C76.3606 50.6293 76.7219 48.586 75.1562 48.2254C75.1562 46.7831 75.7584 41.6148 72.2655 40.7735C72.0247 40.1725 70.6998 37.4081 69.6158 35.0042C68.6523 32.8408 66.3639 31.3984 63.955 31.3984H54.6809"
          stroke="#F0AC0D" stroke-width="2" stroke-miterlimit="10"/>
    <path class="fill-bg stroke-main1" d="M66.7252 40.8936L64.7981 36.6868C64.6777 36.3262 64.3164 36.2061 63.955 36.2061H59.4987V42.2158H65.8821C66.6048 42.2158 67.0865 41.4946 66.7252 40.8936Z"
          fill="white" stroke="#F0AC0D" stroke-width="2" stroke-miterlimit="10"/>
    <path class="fill-bg" d="M16.1393 20.5811V30.1965V43.4177V54.2351H54.681V20.5811H16.1393Z" fill="white"/>
    <path class="stroke-main1" d="M16.1393 30.1965V20.5811H54.681V54.2351H16.1393V43.4177" stroke="#F0AC0D" stroke-width="2"
          stroke-miterlimit="10"/>
    <path class="stroke-main1" d="M16.1393 41.0139V33.8022" stroke="#F0AC0D" stroke-width="2" stroke-miterlimit="10"/>
    <path class="fill-bg2 stroke-main1" d="M31.7968 54.2354C31.7968 56.8797 29.6288 59.0431 26.9791 59.0431C24.3294 59.0431 22.1614 56.8797 22.1614 54.2354C22.1614 51.5912 24.3294 49.4277 26.9791 49.4277C29.6288 49.4277 31.7968 51.5912 31.7968 54.2354Z"
          fill="#F8F8F8" stroke="#F0AC0D" stroke-width="2" stroke-miterlimit="10"/>
    <path class="fill-bg stroke-main1" d="M67.9296 54.2354C67.9296 56.8797 65.7616 59.0431 63.1119 59.0431C60.4622 59.0431 58.2942 56.8797 58.2942 54.2354C58.2942 51.5912 60.4622 49.4277 63.1119 49.4277C65.7616 49.4277 67.9296 51.5912 67.9296 54.2354Z"
          fill="#F8F8F8" stroke="#F0AC0D" stroke-width="2" stroke-miterlimit="10"/>
    <path class="stroke-main1" d="M28.1836 39.812H5.29944" stroke="#F0AC0D" stroke-width="2" stroke-miterlimit="10"/>
    <path class="stroke-main1" d="M41.4322 30.1963H11.3215" stroke="#F0AC0D" stroke-width="2" stroke-miterlimit="10"/>
    <path class="stroke-main1" d="M48.6588 20.5811H11.3215" stroke="#F0AC0D" stroke-width="2" stroke-miterlimit="10"/>
    <path class="stroke-main1" d="M8.91264 20.5811H6.50378" stroke="#F0AC0D" stroke-width="2" stroke-miterlimit="10"/>
    <path class="stroke-main1" d="M4.09495 20.5811H1.6861" stroke="#F0AC0D" stroke-width="2" stroke-miterlimit="10"/>
    <path class="stroke-main1" d="M2.89055 39.812H0.481689" stroke="#F0AC0D" stroke-width="2" stroke-miterlimit="10"/>
    <path class="stroke-main1" d="M8.91264 30.1963H6.50378" stroke="#F0AC0D" stroke-width="2" stroke-miterlimit="10"/>
</svg>
