<svg width="52" height="61" viewBox="0 0 52 61" fill="none" xmlns="http://www.w3.org/2000/svg">
    <path class="fill-bg2" d="M26 51.966C40.3594 51.966 52 40.3427 52 26.0045C52 11.6663 40.3594 0.0429688 26 0.0429688C11.6406 0.0429688 0 11.6663 0 26.0045C0 40.3427 11.6406 51.966 26 51.966Z"
          fill="#F8F8F8"/>
    <path class="fill-bg" d="M42.3704 19.2737C42.3704 12.1583 35.2445 4.85059 26.4815 4.85059C17.7186 4.85059 10.5927 12.1583 10.5927 19.2737V29.8506C10.5927 29.8506 12.1334 30.8121 14.4445 31.7737C14.4445 37.3506 17.4297 42.0621 22.2445 44.9467C22.3408 44.9467 22.4371 45.0429 22.5334 45.0429C25.1334 46.4852 28.2149 46.4852 30.8149 45.0429C30.9112 45.0429 30.9112 44.9467 30.9112 44.9467C33.3186 43.5044 35.1482 41.5814 36.4964 39.2737C36.9778 39.3698 37.363 39.466 37.6519 39.466C40.8297 39.466 42.4667 35.6198 42.4667 35.6198V19.2737H42.3704Z"
          fill="white"/>
    <path class="stroke-main1" d="M42.3704 31.7737V19.5621C42.3704 12.5429 35.2445 4.85059 26.4815 4.85059C17.7186 4.85059 10.5927 12.5429 10.5927 19.5621V29.8506"
          stroke="#F0AC0D" stroke-width="2" stroke-miterlimit="10"/>
    <path class="stroke-main1" d="M18.2963 41.3892V48.1199" stroke="#F0AC0D" stroke-width="2" stroke-miterlimit="10"/>
    <path class="stroke-main1" d="M34.6666 41.3892V48.1199" stroke="#F0AC0D" stroke-width="2" stroke-miterlimit="10"/>
    <path class="stroke-main1" d="M36.563 45.303L26.9622 54.8896L30.8434 58.7651L40.4442 49.1785L36.563 45.303Z" stroke="#F0AC0D"
          stroke-width="2" stroke-miterlimit="10"/>
    <path class="stroke-main1" d="M16.3989 45.167L12.5177 49.0425L22.1185 58.6291L25.9997 54.7537L16.3989 45.167Z" stroke="#F0AC0D"
          stroke-width="2" stroke-miterlimit="10"/>
    <path class="stroke-main1" d="M9.91857 33.6969H10.5926V24.0815H9.91857C7.80005 24.0815 5.77783 26.1008 5.77783 28.2162V29.5623C5.77783 31.6777 7.80005 33.6969 9.91857 33.6969Z"
          stroke="#F0AC0D" stroke-width="2" stroke-miterlimit="10"/>
    <path class="stroke-main1" d="M43.0444 33.6969H42.3704V24.0815H43.0444C45.3555 24.0815 47.1852 25.9085 47.1852 28.2162V29.5623C47.1852 31.87 45.3555 33.6969 43.0444 33.6969Z"
          stroke="#F0AC0D" stroke-width="2" stroke-miterlimit="10"/>
    <path class="stroke-main1" d="M38.5185 27.9277V31.3892C38.5185 36.9662 35.6296 42.0623 30.8148 44.9469C30.7185 44.9469 30.7185 45.0431 30.7185 45.0431C28.2148 46.5815 25.037 46.5815 22.437 45.0431C22.3407 45.0431 22.2444 44.9469 22.1481 44.9469C17.3333 42.0623 14.3481 36.9662 14.3481 31.3892V24.0815"
          stroke="#F0AC0D" stroke-width="2" stroke-miterlimit="10"/>
    <path class="stroke-main1" d="M20.2222 12.543C20.2222 19.2737 33.6074 27.9276 40.4444 27.9276" stroke="#F0AC0D" stroke-width="2"
          stroke-miterlimit="10"/>
    <path class="stroke-main1" d="M14.4445 24.0814C15.3111 21.1967 19.2593 17.3506 22.1482 17.3506" stroke="#F0AC0D" stroke-width="2"
          stroke-miterlimit="10"/>
    <path class="stroke-main1" d="M29.5 39.4661H32.7407H36.7852C39 39.4661 40.9259 38.12 41.6963 36.1007L42.3704 34.6584V32.7354"
          stroke="#F0AC0D" stroke-width="2" stroke-miterlimit="10"/>
    <path class="stroke-main1" d="M27.9259 41.3892H25.037C23.9778 41.3892 23.1111 40.5239 23.1111 39.4662V38.5046C23.1111 37.4469 23.9778 36.5815 25.037 36.5815H27.9259C28.9852 36.5815 29.8518 37.4469 29.8518 38.5046V39.4662C29.8518 40.5239 28.9852 41.3892 27.9259 41.3892Z"
          stroke="#F0AC0D" stroke-width="2" stroke-miterlimit="10"/>
    <path class="fill-main1" opacity="0.4"
          d="M9.91857 33.6969H10.5926V24.0815H9.91857C7.80005 24.0815 5.77783 26.1008 5.77783 28.2162V29.5623C5.77783 31.6777 7.80005 33.6969 9.91857 33.6969Z"
          fill="#F0AC0D"/>
    <path class="fill-main1" opacity="0.4"
          d="M43.0444 33.6969H42.3704V24.0815H43.0444C45.3555 24.0815 47.1852 25.9085 47.1852 28.2162V29.5623C47.1852 31.87 45.3555 33.6969 43.0444 33.6969Z"
          fill="#F0AC0D"/>
    <path class="fill-main1" opacity="0.4"
          d="M27.9259 41.3892H25.037C23.9778 41.3892 23.1111 40.5239 23.1111 39.4662V38.5046C23.1111 37.4469 23.9778 36.5815 25.037 36.5815H27.9259C28.9852 36.5815 29.8518 37.4469 29.8518 38.5046V39.4662C29.8518 40.5239 28.9852 41.3892 27.9259 41.3892Z"
          fill="#F0AC0D"/>
</svg>
