<svg width="55" height="58" viewBox="0 0 55 58" fill="none" xmlns="http://www.w3.org/2000/svg">
<path d="M30.124 46.9199C36.7005 39.8804 36.3418 28.8268 29.3228 22.231C22.3039 15.6353 11.2826 15.995 4.70612 23.0345C-1.87037 30.0741 -1.51167 41.1277 5.50728 47.7235C12.5262 54.3192 23.5475 53.9595 30.124 46.9199Z" fill="#F8F8F8"/>
<path d="M4.58325 36.8174H1.83325" stroke="#CECECE" stroke-width="2" stroke-miterlimit="10"/>
<path d="M11 36.8174H8.25" stroke="#CECECE" stroke-width="2" stroke-miterlimit="10"/>
<path d="M6.41663 38.6558V41.4138" stroke="#CECECE" stroke-width="2" stroke-miterlimit="10"/>
<path d="M6.41663 32.2202V34.9783" stroke="#CECECE" stroke-width="2" stroke-miterlimit="10"/>
<path d="M7.33333 9.23633L5.5 11.075" stroke="#CECECE" stroke-width="2" stroke-miterlimit="10"/>
<path d="M11.9166 4.63965L10.0833 6.47836" stroke="#CECECE" stroke-width="2" stroke-miterlimit="10"/>
<path d="M10.0833 9.23633L11.9166 11.075" stroke="#CECECE" stroke-width="2" stroke-miterlimit="10"/>
<path d="M5.5 4.63965L7.33333 6.47836" stroke="#CECECE" stroke-width="2" stroke-miterlimit="10"/>
<path d="M52.25 0.0429688V1.88168" stroke="#CECECE" stroke-width="2" stroke-miterlimit="10"/>
<path d="M52.25 3.72021V5.55892" stroke="#CECECE" stroke-width="2" stroke-miterlimit="10"/>
<path d="M51.3333 2.80127H49.5" stroke="#CECECE" stroke-width="2" stroke-miterlimit="10"/>
<path d="M55 2.80127H53.1666" stroke="#CECECE" stroke-width="2" stroke-miterlimit="10"/>
<path d="M43.0833 4.6399V1.88184H23.8333V10.156" stroke="#CECECE" stroke-width="2" stroke-miterlimit="10"/>
<path d="M36.6666 12.9141H20.1666V19.3495H36.6666V12.9141Z" fill="#F8F8F8"/>
<path d="M36.6666 19.3495V12.9141H20.1666V19.3495" stroke="#F0AC0D" stroke-width="2" stroke-miterlimit="10"/>
<path opacity="0.4" d="M30.25 7.39795V12.9141H36.6667V19.3496H48.5833V7.39795H30.25Z" fill="#F0AC0D"/>
<path d="M48.5833 19.3496V7.39795H30.25V12.9141H36.6667V19.3496" stroke="#F0AC0D" stroke-width="2" stroke-miterlimit="10"/>
<path d="M51.3333 22.1074H11.9166L20.1666 41.4139H44C45.925 41.4139 47.6666 40.2187 48.2166 38.38L52.8916 24.13C53.2583 23.1187 52.3416 22.1074 51.3333 22.1074Z" fill="white"/>
<path d="M15.5833 22.1074H51.3333C52.3416 22.1074 53.2583 23.1187 52.9833 24.0381L48.3083 38.2881C47.6666 40.2187 45.9249 41.4139 43.9999 41.4139H20.1666" stroke="#F0AC0D" stroke-width="2" stroke-miterlimit="10"/>
<path d="M25.6666 24.8657V37.7367" stroke="#CECECE" stroke-width="2" stroke-miterlimit="10"/>
<path d="M33 24.8657V37.7367" stroke="#CECECE" stroke-width="2" stroke-miterlimit="10"/>
<path d="M40.3333 24.8657V37.7367" stroke="#CECECE" stroke-width="2" stroke-miterlimit="10"/>
<path d="M43.0833 34.0591H22.9166" stroke="#CECECE" stroke-width="2" stroke-miterlimit="10"/>
<path d="M44.9166 28.543H20.1666" stroke="#CECECE" stroke-width="2" stroke-miterlimit="10"/>
<path d="M45.8333 47.8495H24.75C23.5583 47.8495 22.55 47.206 22 46.0108C21.3583 44.7237 13.8416 27.164 11.0916 20.7286C10.45 19.3495 9.07496 18.4302 7.51663 18.4302H0.916626" stroke="#F0AC0D" stroke-width="2" stroke-miterlimit="10"/>
<path d="M22.9166 56.1235C24.4354 56.1235 25.6666 54.8887 25.6666 53.3655C25.6666 51.8422 24.4354 50.6074 22.9166 50.6074C21.3978 50.6074 20.1666 51.8422 20.1666 53.3655C20.1666 54.8887 21.3978 56.1235 22.9166 56.1235Z" fill="white" stroke="#F0AC0D" stroke-width="2" stroke-miterlimit="10"/>
<path d="M46.8416 53.3655C46.8416 54.9284 45.6499 56.1235 44.0916 56.1235C42.5332 56.1235 41.3416 54.9284 41.3416 53.3655C41.3416 51.8026 42.5332 50.6074 44.0916 50.6074C45.5582 50.6074 46.8416 51.8026 46.8416 53.3655Z" fill="white" stroke="#F0AC0D" stroke-width="2" stroke-miterlimit="10"/>
</svg>
