<svg width="144" height="155" viewBox="0 0 144 155" fill="none" xmlns="http://www.w3.org/2000/svg">
<circle cx="55" cy="55" r="55" fill="#FBFBFB"/>
<circle cx="89" cy="100" r="55" fill="#FBFBFB"/>
<path d="M125 98.7969C125 82.4718 114 68.2086 98.4885 63.9105C97.5135 41.187 78.725 23 55.7656 23C32.1842 23 13 42.1842 13 65.7656C13 73.4509 15.0457 80.9337 18.9302 87.5031L13.1572 108.373L34.0282 102.601C40.0669 106.172 46.8789 108.183 53.9097 108.487C58.2069 123.999 72.4709 135 88.7969 135C95.3132 135 101.65 133.265 107.218 129.967L124.842 134.842L119.967 117.218C123.265 111.65 125 105.313 125 98.7969ZM35.0638 95.5054L22.5695 98.9618L26.0259 86.4674L25.238 85.2352C21.5253 79.4264 19.5625 72.6938 19.5625 65.7656C19.5625 45.803 35.803 29.5625 55.7656 29.5625C75.7283 29.5625 91.9688 45.803 91.9688 65.7656C91.9688 85.7283 75.7283 101.969 55.7656 101.969C48.8374 101.969 42.1057 100.006 36.296 96.2932L35.0638 95.5054ZM115.431 125.431L106.159 122.865L104.921 123.671C100.121 126.789 94.545 128.438 88.7969 128.438C75.9658 128.438 64.6908 120.141 60.696 108.245C80.3442 105.98 95.9797 90.3442 98.2458 70.6952C110.141 74.6908 118.438 85.9658 118.438 98.7969C118.438 104.545 116.789 110.121 113.671 114.921L112.865 116.159L115.431 125.431Z" fill="url(#paint0_linear)"/>
<path d="M52.4844 82.2812H59.0469V88.8438H52.4844V82.2812Z" fill="url(#paint1_linear)"/>
<path d="M62.3281 55.8125C62.3281 57.6761 61.5693 59.3962 60.1919 60.6566L52.4844 67.7113V75.7188H59.0469V70.6012L64.6224 65.4982C67.3346 63.0159 68.8906 59.486 68.8906 55.8125C68.8906 48.575 63.0032 42.6875 55.7656 42.6875C48.5281 42.6875 42.6406 48.575 42.6406 55.8125H49.2031C49.2031 52.1937 52.1469 49.25 55.7656 49.25C59.3844 49.25 62.3281 52.1937 62.3281 55.8125Z" fill="url(#paint2_linear)"/>
<defs>
<linearGradient id="paint0_linear" x1="124.072" y1="44.2503" x2="10.7321" y2="46.7548" gradientUnits="userSpaceOnUse">
<stop stop-color="#FFB800"/>
<stop offset="1" stop-color="#FF8A00"/>
</linearGradient>
<linearGradient id="paint1_linear" x1="58.9925" y1="83.5264" x2="52.3515" y2="83.6731" gradientUnits="userSpaceOnUse">
<stop stop-color="#FFB800"/>
<stop offset="1" stop-color="#FF8A00"/>
</linearGradient>
<linearGradient id="paint2_linear" x1="68.6731" y1="48.9547" x2="42.1043" y2="49.4212" gradientUnits="userSpaceOnUse">
<stop stop-color="#FFB800"/>
<stop offset="1" stop-color="#FF8A00"/>
</linearGradient>
</defs>
</svg>
