<svg width="843" height="497" viewBox="0 0 843 497" fill="none" xmlns="http://www.w3.org/2000/svg">
<path d="M175.297 401H174.297V402H175.297V401ZM231.352 401V402H232.352V401H231.352ZM231.352 349.242V348.242H230.352V349.242H231.352ZM268.461 349.242V350.242H269.461V349.242H268.461ZM268.461 302.172H269.461V301.172H268.461V302.172ZM231.352 302.172H230.352V303.172H231.352V302.172ZM231.352 119.164H232.352V118.164H231.352V119.164ZM148.148 119.164V118.164H147.619L147.322 118.601L148.148 119.164ZM35.0625 300.023L34.1779 299.557L34.0625 299.776V300.023H35.0625ZM35.0625 349.242H34.0625V350.242H35.0625V349.242ZM175.297 349.242H176.297V348.242H175.297V349.242ZM86.4297 302.172L85.5479 301.7L85.4297 301.921V302.172H86.4297ZM175.297 161.352V160.352H174.774L174.475 160.781L175.297 161.352ZM176.469 161.352H177.469V160.352H176.469V161.352ZM176.469 303.734V304.734H177.469V303.734H176.469ZM86.4297 303.734H85.4297V304.734H86.4297V303.734ZM175.297 402H231.352V400H175.297V402ZM232.352 401V349.242H230.352V401H232.352ZM231.352 350.242H268.461V348.242H231.352V350.242ZM269.461 349.242V302.172H267.461V349.242H269.461ZM268.461 301.172H231.352V303.172H268.461V301.172ZM232.352 302.172V119.164H230.352V302.172H232.352ZM231.352 118.164H148.148V120.164H231.352V118.164ZM147.322 118.601C89.5029 203.572 58.8138 252.827 34.1779 299.557L35.9471 300.49C60.53 253.86 91.1689 204.678 148.975 119.727L147.322 118.601ZM34.0625 300.023V349.242H36.0625V300.023H34.0625ZM35.0625 350.242H175.297V348.242H35.0625V350.242ZM174.297 349.242V401H176.297V349.242H174.297ZM87.3115 302.644C109.746 260.701 135.307 220.698 176.118 161.922L174.475 160.781C133.646 219.583 108.035 259.658 85.5479 301.7L87.3115 302.644ZM175.297 162.352H176.469V160.352H175.297V162.352ZM175.469 161.352V303.734H177.469V161.352H175.469ZM176.469 302.734H86.4297V304.734H176.469V302.734ZM87.4297 303.734V302.172H85.4297V303.734H87.4297ZM422.062 408.25C458.099 408.25 487.108 393.91 507.082 368.067C527.033 342.253 537.906 305.051 537.906 259.398H535.906C535.906 304.761 525.1 341.485 505.5 366.844C485.923 392.172 457.511 406.25 422.062 406.25V408.25ZM537.906 259.398C537.906 213.744 526.935 176.832 506.932 151.311C486.906 125.761 457.897 111.719 422.062 111.719V113.719C457.321 113.719 485.734 127.508 505.357 152.545C525.003 177.609 535.906 214.037 535.906 259.398H537.906ZM422.062 111.719C386.227 111.719 357.169 125.811 337.096 151.408C317.044 176.978 306.023 213.938 306.023 259.594H308.023C308.023 214.234 318.975 177.757 338.67 152.642C358.342 127.556 386.805 113.719 422.062 113.719V111.719ZM306.023 259.594C306.023 305.345 316.945 342.499 336.947 368.24C356.971 394.009 386.029 408.25 422.062 408.25V406.25C386.612 406.25 358.15 392.268 338.526 367.012C318.879 341.728 308.023 305.054 308.023 259.594H306.023ZM422.062 358.984C405.1 358.984 391.638 350.3 382.361 333.548C373.054 316.742 367.984 291.838 367.984 259.594H365.984C365.984 291.998 371.071 317.289 380.612 334.517C390.182 351.798 404.259 360.984 422.062 360.984V358.984ZM367.984 259.594C367.984 227.646 373.151 202.938 382.505 186.255C391.831 169.621 405.295 160.984 422.062 160.984V158.984C404.455 158.984 390.38 168.121 380.761 185.277C371.17 202.382 365.984 227.479 365.984 259.594H367.984ZM422.062 160.984C438.93 160.984 452.343 169.575 461.594 186.179C470.876 202.838 475.945 227.545 475.945 259.594H477.945C477.945 227.385 472.859 202.287 463.341 185.206C453.794 168.07 439.766 158.984 422.062 158.984V160.984ZM475.945 259.594C475.945 291.84 470.924 316.744 461.665 333.55C452.436 350.301 439.023 358.984 422.062 358.984V360.984C439.867 360.984 453.896 351.797 463.417 334.515C472.908 317.287 477.945 291.996 477.945 259.594H475.945ZM719.609 401H718.609V402H719.609V401ZM775.664 401V402H776.664V401H775.664ZM775.664 349.242V348.242H774.664V349.242H775.664ZM812.773 349.242V350.242H813.773V349.242H812.773ZM812.773 302.172H813.773V301.172H812.773V302.172ZM775.664 302.172H774.664V303.172H775.664V302.172ZM775.664 119.164H776.664V118.164H775.664V119.164ZM692.461 119.164V118.164H691.932L691.634 118.601L692.461 119.164ZM579.375 300.023L578.49 299.557L578.375 299.776V300.023H579.375ZM579.375 349.242H578.375V350.242H579.375V349.242ZM719.609 349.242H720.609V348.242H719.609V349.242ZM630.742 302.172L629.86 301.7L629.742 301.921V302.172H630.742ZM719.609 161.352V160.352H719.086L718.788 160.781L719.609 161.352ZM720.781 161.352H721.781V160.352H720.781V161.352ZM720.781 303.734V304.734H721.781V303.734H720.781ZM630.742 303.734H629.742V304.734H630.742V303.734ZM719.609 402H775.664V400H719.609V402ZM776.664 401V349.242H774.664V401H776.664ZM775.664 350.242H812.773V348.242H775.664V350.242ZM813.773 349.242V302.172H811.773V349.242H813.773ZM812.773 301.172H775.664V303.172H812.773V301.172ZM776.664 302.172V119.164H774.664V302.172H776.664ZM775.664 118.164H692.461V120.164H775.664V118.164ZM691.634 118.601C633.815 203.572 603.126 252.827 578.49 299.557L580.26 300.49C604.842 253.86 635.481 204.678 693.288 119.727L691.634 118.601ZM578.375 300.023V349.242H580.375V300.023H578.375ZM579.375 350.242H719.609V348.242H579.375V350.242ZM718.609 349.242V401H720.609V349.242H718.609ZM631.624 302.644C654.058 260.701 679.619 220.698 720.431 161.922L718.788 160.781C677.959 219.583 652.348 259.658 629.86 301.7L631.624 302.644ZM719.609 162.352H720.781V160.352H719.609V162.352ZM719.781 161.352V303.734H721.781V161.352H719.781ZM720.781 302.734H630.742V304.734H720.781V302.734ZM631.742 303.734V302.172H629.742V303.734H631.742Z" fill="url(#paint0_linear)"/>
<path d="M154.297 381H210.352V329.242H247.461V282.172H210.352V99.1641H127.148C69.3359 184.125 38.6719 233.344 14.0625 280.023V329.242H154.297V381ZM65.4297 282.172C87.8906 240.18 113.477 200.141 154.297 141.352H155.469V283.734H65.4297V282.172ZM401.062 387.25C472.547 387.25 515.906 330.414 515.906 239.398C515.906 148.383 472.156 92.7188 401.062 92.7188C329.969 92.7188 286.023 148.578 286.023 239.594C286.023 330.805 329.578 387.25 401.062 387.25ZM401.062 339.984C366.297 339.984 345.984 304.242 345.984 239.594C345.984 175.531 366.688 139.984 401.062 139.984C435.633 139.984 455.945 175.336 455.945 239.594C455.945 304.242 435.828 339.984 401.062 339.984ZM698.609 381H754.664V329.242H791.773V282.172H754.664V99.1641H671.461C613.648 184.125 582.984 233.344 558.375 280.023V329.242H698.609V381ZM609.742 282.172C632.203 240.18 657.789 200.141 698.609 141.352H699.781V283.734H609.742V282.172Z" fill="url(#paint1_linear)"/>
<defs>
<linearGradient id="paint0_linear" x1="836.187" y1="110.504" x2="5.15442" y2="142.148" gradientUnits="userSpaceOnUse">
<stop stop-color="#FFB800"/>
<stop offset="1" stop-color="#FF8A00"/>
</linearGradient>
<linearGradient id="paint1_linear" x1="815.187" y1="90.5036" x2="-15.8456" y2="122.148" gradientUnits="userSpaceOnUse">
<stop stop-color="#FFB800"/>
<stop offset="1" stop-color="#FF8A00"/>
</linearGradient>
</defs>
</svg>
