<svg width="77" height="103" viewBox="0 0 77 103" fill="none" xmlns="http://www.w3.org/2000/svg">
<circle cx="20" cy="20.0005" r="20" fill="#F0F0F0"/>
<circle cx="39.5796" cy="65.6391" r="37.185" fill="#F0F0F0"/>
<circle cx="4.97279" cy="37.7047" r="2.48451" stroke="#F0AC0D"/>
<circle cx="39.0392" cy="7.50844" r="2.48451" stroke="#F0AC0D"/>
<circle cx="65.1648" cy="26.2077" r="1.56712" stroke="#F0AC0D"/>
<path d="M45.6978 15.1055V21.5976C45.6978 25.1683 48.6192 28.0897 52.1899 28.0897H58.682L45.6978 15.1055Z" fill="#F0AC0D"/>
<path d="M52.189 31.3358C46.833 31.3358 42.4509 26.9536 42.4509 21.5976V13.4824H19.7284C15.2651 13.4824 11.6133 17.1342 11.6133 21.5976V78.4036C11.6133 82.867 15.2651 86.5188 19.7284 86.5188H27.9247C32.3069 86.5188 35.9587 82.9481 35.9587 78.4848V70.3696C35.9587 65.8251 39.6105 62.1733 44.155 62.1733H52.3513C56.7335 62.1733 60.3853 58.6027 60.3853 54.1393V31.3358H52.189ZM19.7284 19.9745H35.9587C36.8514 19.9745 37.5818 20.7049 37.5818 21.5976C37.5818 22.4902 36.8514 23.2206 35.9587 23.2206H19.7284C18.8358 23.2206 18.1054 22.4902 18.1054 21.5976C18.1054 20.7049 18.8358 19.9745 19.7284 19.9745ZM52.189 55.6812H19.7284C18.8358 55.6812 18.1054 54.9508 18.1054 54.0582C18.1054 53.1655 18.8358 52.4351 19.7284 52.4351H52.189C53.0817 52.4351 53.8121 53.1655 53.8121 54.0582C53.8121 54.9508 53.0817 55.6812 52.189 55.6812ZM52.189 47.566H19.7284C18.8358 47.566 18.1054 46.8357 18.1054 45.943C18.1054 45.0504 18.8358 44.32 19.7284 44.32H52.189C53.0817 44.32 53.8121 45.0504 53.8121 45.943C53.8121 46.8357 53.0817 47.566 52.189 47.566ZM52.189 39.4509H19.7284C18.8358 39.4509 18.1054 38.7205 18.1054 37.8279C18.1054 36.9352 18.8358 36.2048 19.7284 36.2048H52.189C53.0817 36.2048 53.8121 36.9352 53.8121 37.8279C53.8121 38.7205 53.0817 39.4509 52.189 39.4509Z" fill="#F0AC0D"/>
<path d="M57.0584 69.1519C56.4091 68.5027 55.4353 68.5027 54.7861 69.1519L46.9956 76.9425L45.2914 75.2383C44.6422 74.5891 43.6683 74.5891 43.0191 75.2383C42.3699 75.8875 42.3699 76.8613 43.0191 77.5106L45.8594 80.3509C46.184 80.6755 46.5898 80.8378 46.9956 80.8378C47.4013 80.8378 47.8071 80.6755 48.1317 80.3509L57.0584 71.4242C57.7076 70.775 57.7076 69.8012 57.0584 69.1519Z" fill="#F0AC0D"/>
<line x1="3.81299" y1="17.6069" x2="3.81299" y2="21.8759" stroke="#F0AC0D"/>
<line x1="6.00049" y1="19.7388" x2="1.7315" y2="19.7388" stroke="#F0AC0D"/>
<line x1="65.3491" y1="40.7305" x2="65.3491" y2="44.9995" stroke="#F0AC0D"/>
<line x1="67.5366" y1="42.8623" x2="63.2676" y2="42.8623" stroke="#F0AC0D"/>
<line x1="53.3354" y1="10.2842" x2="53.3354" y2="14.5532" stroke="#F0AC0D"/>
<line x1="55.5229" y1="12.416" x2="51.254" y2="12.416" stroke="#F0AC0D"/>
</svg>
